<svg width="358" height="358" viewBox="0 0 358 358" fill="none" xmlns="http://www.w3.org/2000/svg">
<g filter="url(#filter0_d_1_37)">
<path d="M342.607 118.615C346.405 118.615 349.253 118.895 351.152 119.455C353.051 120.015 354 120.622 354 121.275C354 122.302 352.339 123.188 349.016 123.935C345.693 124.775 342.132 125.568 338.335 126.315C332.638 125.662 325.755 125.055 317.685 124.495C310.09 123.935 302.02 123.422 293.475 122.955C284.93 122.582 276.386 122.302 267.841 122.115C259.296 121.928 251.463 121.835 244.343 121.835H240.783L209.452 121.975C219.895 122.162 230.339 122.255 240.783 122.255C251.701 122.348 262.382 122.535 272.825 122.815C283.743 123.095 294.187 123.562 304.156 124.215C314.599 124.868 324.331 125.802 333.35 127.015L321.245 127.995C314.599 127.995 309.378 127.762 305.58 127.295C301.782 126.828 296.561 126.502 289.915 126.315L282.082 124.775C268.316 124.775 254.786 124.588 241.495 124.215C228.203 123.935 214.674 123.795 200.907 123.795C189.514 123.795 178.596 124.075 168.152 124.635V125.475C147.74 125.662 127.565 125.895 107.627 126.175C87.6896 126.455 67.5146 126.735 47.1022 127.015C41.8804 126.548 36.184 126.175 30.0128 125.895C24.3163 125.708 18.6198 125.615 12.9233 125.615C12.9233 125.428 12.9233 125.242 12.9233 125.055C13.398 124.962 13.6354 124.822 13.6354 124.635C13.6354 123.888 13.1607 123.048 12.2113 122.115L21.4681 120.575L26.4525 120.715V119.175C21.2307 118.708 16.2463 118.008 11.4992 117.075C7.22688 116.235 5.0907 115.162 5.0907 113.855C5.0907 112.828 6.75217 111.988 10.0751 111.335C13.3981 110.775 17.4331 110.355 22.1801 110.075C27.4019 109.795 32.6237 109.608 37.8455 109.515C43.0672 109.515 47.5769 109.515 51.3746 109.515C74.1605 109.515 96.9464 109.282 119.732 108.815C142.993 108.442 166.016 108.255 188.802 108.255C192.6 108.255 199.246 108.302 208.74 108.395C218.234 108.582 228.915 108.768 240.783 108.955C252.65 109.235 264.755 109.562 277.098 109.935C289.915 110.308 301.545 110.728 311.989 111.195C322.432 111.662 330.977 112.175 337.623 112.735C344.743 113.295 348.304 113.855 348.304 114.415C348.304 114.695 347.829 115.115 346.879 115.675C326.942 114.462 306.767 113.575 286.354 113.015C266.417 112.548 246.479 111.988 226.541 111.335C246.004 112.268 265.467 113.015 284.93 113.575C305.343 114.135 325.518 115.068 345.455 116.375L342.607 118.615ZM279.946 126.175C264.755 125.802 249.327 125.522 233.662 125.335C217.997 125.242 202.094 125.195 185.954 125.195C190.701 125.102 195.448 125.055 200.195 125.055H214.436C225.355 125.055 236.273 125.102 247.191 125.195C258.109 125.382 269.028 125.708 279.946 126.175Z" fill="#1E1E1E"/>
<path d="M118.975 11.4286C118.975 7.61906 119.254 4.76193 119.812 2.85716C120.37 0.952396 120.975 1.31103e-05 121.626 1.31103e-05C122.65 1.31103e-05 123.534 1.66667 124.278 4.99999C125.115 8.33334 125.906 11.9048 126.651 15.7143C125.999 21.4286 125.395 28.3333 124.836 36.4286C124.278 44.0476 123.766 52.1428 123.301 60.7143C122.929 69.2857 122.65 77.8571 122.464 86.4285C122.278 95 122.185 102.857 122.185 110V113.571L122.324 145C122.51 134.524 122.603 124.048 122.603 113.571C122.696 102.619 122.882 91.9048 123.162 81.4286C123.441 70.4762 123.906 60 124.557 50C125.208 39.5238 126.139 29.7619 127.348 20.7143L128.325 32.8571C128.325 39.5238 128.093 44.7619 127.628 48.5714C127.162 52.381 126.837 57.619 126.651 64.2857L125.115 72.1428C125.115 85.9524 124.929 99.5238 124.557 112.857C124.278 126.19 124.138 139.762 124.138 153.571C124.138 165 124.418 175.952 124.976 186.428H125.813C125.999 206.905 126.232 227.143 126.511 247.143C126.79 267.143 127.069 287.381 127.348 307.857C126.883 313.095 126.511 318.809 126.232 325C126.046 330.714 125.953 336.428 125.953 342.143C125.767 342.143 125.581 342.143 125.395 342.143C125.301 341.667 125.162 341.428 124.976 341.428C124.232 341.428 123.394 341.905 122.464 342.857L120.928 333.571L121.068 328.571H119.533C119.068 333.809 118.37 338.809 117.439 343.571C116.602 347.857 115.532 350 114.229 350C113.206 350 112.369 348.333 111.717 345C111.159 341.667 110.74 337.619 110.461 332.857C110.182 327.619 109.996 322.381 109.903 317.143C109.903 311.905 109.903 307.381 109.903 303.571C109.903 280.714 109.67 257.857 109.205 235C108.833 211.667 108.647 188.571 108.647 165.714C108.647 161.905 108.693 155.238 108.786 145.714C108.973 136.19 109.159 125.476 109.345 113.571C109.624 101.667 109.949 89.5238 110.322 77.1428C110.694 64.2857 111.113 52.619 111.578 42.1428C112.043 31.6666 112.555 23.0952 113.113 16.4286C113.671 9.28573 114.229 5.71431 114.788 5.71431C115.067 5.71431 115.486 6.19049 116.044 7.14286C114.834 27.1429 113.95 47.3809 113.392 67.8571C112.927 87.8571 112.369 107.857 111.717 127.857C112.648 108.333 113.392 88.8095 113.95 69.2857C114.509 48.8095 115.439 28.5714 116.742 8.57146L118.975 11.4286ZM126.511 74.2857C126.139 89.5238 125.86 105 125.674 120.714C125.581 136.429 125.534 152.381 125.534 168.571C125.441 163.809 125.395 159.048 125.395 154.286V140C125.395 129.048 125.441 118.095 125.534 107.143C125.72 96.1905 126.046 85.2381 126.511 74.2857Z" fill="#1E1E1E"/>
<path d="M232.51 338.571C232.51 342.381 232.231 345.238 231.673 347.143C231.115 349.047 230.51 350 229.859 350C228.835 350 227.951 348.333 227.207 345C226.37 341.667 225.579 338.095 224.834 334.286C225.486 328.571 226.09 321.667 226.649 313.571C227.207 305.952 227.719 297.857 228.184 289.286C228.556 280.714 228.835 272.143 229.021 263.571C229.207 255 229.3 247.143 229.3 240V236.428L229.161 205C228.975 215.476 228.882 225.952 228.882 236.428C228.789 247.381 228.603 258.095 228.323 268.571C228.044 279.524 227.579 290 226.928 300C226.277 310.476 225.346 320.238 224.137 329.286L223.16 317.143C223.16 310.476 223.392 305.238 223.857 301.428C224.323 297.619 224.648 292.381 224.834 285.714L226.37 277.857C226.37 264.048 226.556 250.476 226.928 237.143C227.207 223.809 227.346 210.238 227.346 196.429C227.346 185 227.067 174.048 226.509 163.571H225.672C225.486 143.095 225.253 122.857 224.974 102.857C224.695 82.8571 224.416 62.619 224.137 42.1428C224.602 36.9047 224.974 31.1905 225.253 25C225.439 19.2857 225.532 13.5714 225.532 7.85712C225.718 7.85712 225.904 7.85712 226.09 7.85712C226.183 8.33331 226.323 8.57142 226.509 8.57142C227.253 8.57142 228.091 8.09523 229.021 7.14285L230.556 16.4286L230.417 21.4286H231.952C232.417 16.1905 233.115 11.1905 234.046 6.42857C234.883 2.14286 235.953 0 237.256 0C238.279 0 239.116 1.66666 239.768 5C240.326 8.33333 240.745 12.3809 241.024 17.1428C241.303 22.3809 241.489 27.619 241.582 32.8571C241.582 38.0952 241.582 42.619 241.582 46.4286C241.582 69.2857 241.815 92.1428 242.28 115C242.652 138.333 242.838 161.429 242.838 184.286C242.838 188.095 242.792 194.762 242.699 204.286C242.512 213.809 242.326 224.524 242.14 236.428C241.861 248.333 241.535 260.476 241.163 272.857C240.791 285.714 240.372 297.381 239.907 307.857C239.442 318.333 238.93 326.905 238.372 333.571C237.814 340.714 237.256 344.286 236.697 344.286C236.418 344.286 235.999 343.809 235.441 342.857C236.651 322.857 237.535 302.619 238.093 282.143C238.558 262.143 239.116 242.143 239.768 222.143C238.837 241.667 238.093 261.19 237.535 280.714C236.976 301.19 236.046 321.428 234.743 341.428L232.51 338.571ZM224.974 275.714C225.346 260.476 225.625 245 225.811 229.286C225.904 213.571 225.951 197.619 225.951 181.429C226.044 186.19 226.09 190.952 226.09 195.714V210C226.09 220.952 226.044 231.905 225.951 242.857C225.765 253.809 225.439 264.762 224.974 275.714Z" fill="#1E1E1E"/>
<path d="M15.3929 233.573C11.5953 233.573 8.74702 233.293 6.84819 232.733C4.94936 232.173 3.99995 231.566 3.99995 230.913C3.99995 229.886 5.66141 228.999 8.98434 228.253C12.3073 227.413 15.8676 226.619 19.6653 225.873C25.3617 226.526 32.245 227.133 40.315 227.693C47.9103 228.253 55.9803 228.766 64.525 229.233C73.0697 229.606 81.6145 229.886 90.1592 230.073C98.7039 230.259 106.537 230.353 113.657 230.353H117.217L148.548 230.213C138.105 230.026 127.661 229.933 117.217 229.933C106.299 229.839 95.6183 229.653 85.1748 229.373C74.2565 229.093 63.813 228.626 53.8441 227.973C43.4006 227.319 33.6691 226.386 24.6497 225.173L36.7547 224.193C43.4006 224.193 48.6224 224.426 52.42 224.893C56.2177 225.359 61.4394 225.686 68.0853 225.873L75.918 227.413C89.6845 227.413 103.214 227.599 116.505 227.973C129.797 228.253 143.326 228.393 157.093 228.393C168.486 228.393 179.404 228.113 189.848 227.553V226.713C210.26 226.526 230.435 226.293 250.373 226.013C270.31 225.733 290.485 225.453 310.898 225.173C316.12 225.639 321.816 226.013 327.987 226.293C333.684 226.479 339.38 226.573 345.077 226.573C345.077 226.759 345.077 226.946 345.077 227.133C344.602 227.226 344.365 227.366 344.365 227.553C344.365 228.299 344.839 229.139 345.789 230.073L336.532 231.613L331.547 231.473V233.013C336.769 233.479 341.754 234.179 346.501 235.113C350.773 235.953 352.909 237.026 352.909 238.333C352.909 239.359 351.248 240.199 347.925 240.853C344.602 241.413 340.567 241.833 335.82 242.113C330.598 242.393 325.376 242.579 320.155 242.673C314.933 242.673 310.423 242.673 306.625 242.673C283.839 242.673 261.054 242.906 238.268 243.373C215.007 243.746 191.984 243.933 169.198 243.933C165.4 243.933 158.754 243.886 149.26 243.793C139.766 243.606 129.085 243.419 117.217 243.233C105.35 242.953 93.2448 242.626 80.9024 242.253C68.0853 241.879 56.455 241.459 46.0114 240.993C35.5679 240.526 27.0232 240.013 20.3773 239.453C13.2567 238.893 9.69644 238.333 9.69644 237.773C9.69644 237.493 10.1711 237.073 11.1205 236.513C31.0582 237.726 51.2332 238.613 71.6456 239.173C91.5833 239.639 111.521 240.199 131.459 240.853C111.996 239.919 92.5327 239.173 73.0698 238.613C52.6574 238.053 32.4823 237.119 12.5447 235.813L15.3929 233.573ZM78.0542 226.013C93.2448 226.386 108.673 226.666 124.338 226.853C140.003 226.946 155.906 226.993 172.046 226.993C167.299 227.086 162.552 227.133 157.805 227.133H143.564C132.645 227.133 121.727 227.086 110.809 226.993C99.8907 226.806 88.9724 226.479 78.0542 226.013Z" fill="#1E1E1E"/>
</g>
<defs>
<filter id="filter0_d_1_37" x="-6.10352e-05" y="0" width="358" height="358" filterUnits="userSpaceOnUse" color-interpolation-filters="sRGB">
<feFlood flood-opacity="0" result="BackgroundImageFix"/>
<feColorMatrix in="SourceAlpha" type="matrix" values="0 0 0 0 0 0 0 0 0 0 0 0 0 0 0 0 0 0 127 0" result="hardAlpha"/>
<feOffset dy="4"/>
<feGaussianBlur stdDeviation="2"/>
<feComposite in2="hardAlpha" operator="out"/>
<feColorMatrix type="matrix" values="0 0 0 0 0 0 0 0 0 0 0 0 0 0 0 0 0 0 0.25 0"/>
<feBlend mode="normal" in2="BackgroundImageFix" result="effect1_dropShadow_1_37"/>
<feBlend mode="normal" in="SourceGraphic" in2="effect1_dropShadow_1_37" result="shape"/>
</filter>
</defs>
</svg>
