<svg width="44" height="68" viewBox="0 0 44 68" fill="none" xmlns="http://www.w3.org/2000/svg">
<g filter="url(#filter0_d_15_80)">
<path d="M5.69765 25.4516C5.32316 25.4516 5.04229 25.3739 4.85504 25.2187C4.66779 25.0635 4.57417 24.8954 4.57417 24.7143C4.57417 24.4297 4.73801 24.184 5.06569 23.977C5.39337 23.7442 5.74446 23.5243 6.11896 23.3174C6.6807 23.4984 7.35948 23.6666 8.15528 23.8218C8.90427 23.977 9.70008 24.1193 10.5427 24.2486C11.3853 24.3521 12.2279 24.4297 13.0705 24.4815C13.9132 24.5332 14.6855 24.5591 15.3877 24.5591H15.7388L18.8284 24.5203C17.7985 24.4685 16.7687 24.4427 15.7388 24.4427C14.6621 24.4168 13.6089 24.3651 12.579 24.2874C11.5023 24.2098 10.4725 24.0805 9.48942 23.8994C8.45956 23.7183 7.49991 23.4596 6.61049 23.1233L7.80419 22.8517C8.45956 22.8517 8.97449 22.9164 9.34898 23.0457C9.72348 23.1751 10.2384 23.2656 10.8938 23.3174L11.6662 23.7442C13.0237 23.7442 14.3579 23.7959 15.6686 23.8994C16.9793 23.977 18.3135 24.0158 19.671 24.0158C20.7945 24.0158 21.8712 23.9382 22.901 23.783V23.5502C24.914 23.4984 26.9035 23.4338 28.8696 23.3562C30.8357 23.2786 32.8252 23.201 34.8381 23.1233C35.353 23.2527 35.9148 23.3562 36.5233 23.4338C37.0851 23.4855 37.6468 23.5114 38.2086 23.5114C38.2086 23.5631 38.2086 23.6149 38.2086 23.6666C38.1617 23.6925 38.1383 23.7313 38.1383 23.783C38.1383 23.99 38.1852 24.2228 38.2788 24.4815L37.3659 24.9083L36.8744 24.8695V25.2963C37.3894 25.4257 37.8809 25.6197 38.349 25.8784C38.7703 26.1112 38.981 26.4087 38.981 26.7709C38.981 27.0554 38.8171 27.2882 38.4894 27.4693C38.1617 27.6245 37.7638 27.7409 37.2957 27.8186C36.7808 27.8962 36.2659 27.9479 35.7509 27.9738C35.236 27.9738 34.7913 27.9738 34.4168 27.9738C32.1698 27.9738 29.9228 28.0384 27.6759 28.1678C25.3821 28.2713 23.1117 28.323 20.8647 28.323C20.4902 28.323 19.8349 28.3101 18.8986 28.2842C17.9624 28.2325 16.9091 28.1807 15.7388 28.129C14.5685 28.0514 13.3748 27.9608 12.1577 27.8574C10.8938 27.7539 9.74689 27.6375 8.71702 27.5081C7.68716 27.3788 6.84454 27.2365 6.18918 27.0813C5.487 26.9261 5.13591 26.7709 5.13591 26.6156C5.13591 26.538 5.18272 26.4216 5.27634 26.2664C7.24244 26.6027 9.23195 26.8485 11.2449 27.0037C13.211 27.133 15.1771 27.2882 17.1432 27.4693C15.2239 27.2106 13.3046 27.0037 11.3853 26.8485C9.37239 26.6933 7.38288 26.4346 5.41678 26.0724L5.69765 25.4516ZM11.8768 23.3562C13.3748 23.4596 14.8962 23.5372 16.441 23.589C17.9858 23.6149 19.554 23.6278 21.1456 23.6278C20.6775 23.6537 20.2094 23.6666 19.7412 23.6666H18.3369C17.2602 23.6666 16.1835 23.6537 15.1069 23.6278C14.0302 23.576 12.9535 23.4855 11.8768 23.3562Z" fill="#1E1E1E"/>
<path d="M6.34455 25.6038C6.34455 25.2254 6.39774 24.9417 6.50412 24.7525C6.61051 24.5633 6.72576 24.4687 6.84987 24.4687C7.0449 24.4687 7.21334 24.6343 7.35519 24.9653C7.51476 25.2964 7.66547 25.6511 7.80731 26.0294C7.6832 26.597 7.56795 27.2827 7.46157 28.0867C7.35519 28.8435 7.25767 29.6475 7.16902 30.4988C7.09809 31.3501 7.0449 32.2013 7.00944 33.0526C6.97398 33.9039 6.95625 34.6843 6.95625 35.3937V35.7484L6.98285 38.8699C7.01831 37.8294 7.03604 36.7889 7.03604 35.7484C7.05377 34.6607 7.08923 33.5965 7.14242 32.5561C7.19561 31.4683 7.28426 30.4278 7.40838 29.4346C7.53249 28.3942 7.70979 27.4246 7.94029 26.526L8.12646 27.732C8.12646 28.3942 8.08214 28.9144 7.99348 29.2927C7.90483 29.6711 7.84277 30.1913 7.80731 30.8535L7.51476 31.6338C7.51476 33.0054 7.4793 34.3532 7.40838 35.6775C7.35519 37.0017 7.32859 38.3496 7.32859 39.7212C7.32859 40.8562 7.38178 41.944 7.48817 42.9845H7.64774C7.6832 45.0181 7.72753 47.0281 7.78072 49.0145C7.83391 51.0009 7.8871 53.0109 7.94029 55.0445C7.85164 55.5648 7.78072 56.1323 7.72753 56.7471C7.69207 57.3147 7.67434 57.8822 7.67434 58.4497C7.63888 58.4497 7.60341 58.4497 7.56795 58.4497C7.55022 58.4024 7.52363 58.3788 7.48817 58.3788C7.34632 58.3788 7.18675 58.4261 7.00944 58.5207L6.71689 57.5984L6.74349 57.1018H6.45093C6.36228 57.6221 6.2293 58.1187 6.052 58.5916C5.89242 59.0173 5.68852 59.2301 5.44029 59.2301C5.24526 59.2301 5.08568 59.0645 4.96157 58.7335C4.85519 58.4024 4.7754 58.0004 4.72221 57.5275C4.66902 57.0072 4.63356 56.487 4.61583 55.9668C4.61583 55.4465 4.61583 54.9972 4.61583 54.6189C4.61583 52.3487 4.5715 50.0786 4.48285 47.8085C4.41192 45.4911 4.37646 43.1973 4.37646 40.9272C4.37646 40.5488 4.38533 39.8867 4.40306 38.9408C4.43852 37.9949 4.47398 36.9308 4.50944 35.7484C4.56263 34.5661 4.62469 33.3601 4.69561 32.1304C4.76654 30.8535 4.84632 29.6947 4.93498 28.6543C5.02363 27.6138 5.12115 26.7625 5.22753 26.1004C5.33391 25.391 5.44029 25.0363 5.54668 25.0363C5.59987 25.0363 5.67966 25.0835 5.78604 25.1781C5.55554 27.1645 5.3871 29.1745 5.28072 31.2082C5.19207 33.1945 5.08568 35.1809 4.96157 37.1673C5.13888 35.2282 5.28072 33.2891 5.3871 31.3501C5.49348 29.3164 5.67079 27.3064 5.91902 25.32L6.34455 25.6038ZM7.78072 31.8466C7.7098 33.3601 7.65661 34.8971 7.62114 36.4578C7.60341 38.0186 7.59455 39.6029 7.59455 41.2109C7.57682 40.738 7.56795 40.265 7.56795 39.7921V38.3733C7.56795 37.2855 7.57682 36.1977 7.59455 35.11C7.63001 34.0222 7.69207 32.9344 7.78072 31.8466Z" fill="#1E1E1E"/>
<path d="M37.4084 58.0946C37.4084 58.473 37.3552 58.7567 37.2488 58.9459C37.1424 59.1351 37.0272 59.2297 36.9031 59.2297C36.708 59.2297 36.5396 59.0641 36.3977 58.7331C36.2382 58.402 36.0875 58.0473 35.9456 57.669C36.0697 57.1014 36.185 56.4157 36.2914 55.6117C36.3977 54.8549 36.4953 54.0509 36.5839 53.1996C36.6548 52.3483 36.708 51.497 36.7435 50.6458C36.7789 49.7945 36.7967 49.0141 36.7967 48.3047V47.95L36.7701 44.8285C36.7346 45.869 36.7169 46.9095 36.7169 47.95C36.6992 49.0377 36.6637 50.1019 36.6105 51.1423C36.5573 52.2301 36.4687 53.2706 36.3446 54.2638C36.2204 55.3042 36.0431 56.2738 35.8126 57.1724L35.6265 55.9664C35.6265 55.3042 35.6708 54.784 35.7594 54.4057C35.8481 54.0273 35.9102 53.5071 35.9456 52.8449L36.2382 52.0646C36.2382 50.693 36.2736 49.3452 36.3446 48.0209C36.3977 46.6967 36.4243 45.3488 36.4243 43.9772C36.4243 42.8422 36.3711 41.7544 36.2648 40.7139H36.1052C36.0697 38.6803 36.0254 36.6703 35.9722 34.6839C35.919 32.6975 35.8658 30.6875 35.8126 28.6539C35.9013 28.1336 35.9722 27.5661 36.0254 26.9513C36.0609 26.3837 36.0786 25.8162 36.0786 25.2487C36.1141 25.2487 36.1495 25.2487 36.185 25.2487C36.2027 25.296 36.2293 25.3196 36.2648 25.3196C36.4066 25.3196 36.5662 25.2723 36.7435 25.1777L37.036 26.1L37.0094 26.5966H37.302C37.3907 26.0763 37.5236 25.5797 37.7009 25.1068C37.8605 24.6811 38.0644 24.4683 38.3126 24.4683C38.5077 24.4683 38.6672 24.6339 38.7914 24.9649C38.8977 25.296 38.9775 25.698 39.0307 26.1709C39.0839 26.6912 39.1194 27.2114 39.1371 27.7316C39.1371 28.2519 39.1371 28.7012 39.1371 29.0795C39.1371 31.3497 39.1814 33.6198 39.2701 35.8899C39.341 38.2073 39.3765 40.5011 39.3765 42.7712C39.3765 43.1496 39.3676 43.8117 39.3499 44.7576C39.3144 45.7035 39.2789 46.7676 39.2435 47.95C39.1903 49.1323 39.1282 50.3383 39.0573 51.568C38.9864 52.8449 38.9066 54.0036 38.818 55.0441C38.7293 56.0846 38.6318 56.9359 38.5254 57.598C38.419 58.3074 38.3126 58.6621 38.2063 58.6621C38.1531 58.6621 38.0733 58.6149 37.9669 58.5203C38.1974 56.5339 38.3658 54.5239 38.4722 52.4902C38.5609 50.5039 38.6672 48.5175 38.7914 46.5311C38.6141 48.4702 38.4722 50.4093 38.3658 52.3483C38.2594 54.382 38.0821 56.392 37.8339 58.3784L37.4084 58.0946ZM35.9722 51.8518C36.0431 50.3383 36.0963 48.8013 36.1318 47.2406C36.1495 45.6798 36.1584 44.0955 36.1584 42.4875C36.1761 42.9604 36.185 43.4334 36.185 43.9063V45.3251C36.185 46.4129 36.1761 47.5007 36.1584 48.5884C36.1229 49.6762 36.0609 50.764 35.9722 51.8518Z" fill="#1E1E1E"/>
<path d="M37.8574 56.8468C38.2319 56.8468 38.5127 56.9244 38.7 57.0797C38.8872 57.2349 38.9809 57.403 38.9809 57.5841C38.9809 57.8687 38.817 58.1144 38.4893 58.3214C38.1616 58.5542 37.8106 58.7741 37.4361 58.981C36.8743 58.7999 36.1955 58.6318 35.3997 58.4766C34.6507 58.3214 33.8549 58.1791 33.0123 58.0497C32.1697 57.9463 31.3271 57.8687 30.4845 57.8169C29.6419 57.7652 28.8695 57.7393 28.1673 57.7393H27.8162L24.7266 57.7781C25.7565 57.8299 26.7863 57.8557 27.8162 57.8557C28.8929 57.8816 29.9461 57.9333 30.976 58.0109C32.0527 58.0885 33.0826 58.2179 34.0656 58.399C35.0955 58.5801 36.0551 58.8387 36.9445 59.175L35.7508 59.4467C35.0955 59.4467 34.5805 59.382 34.206 59.2526C33.8315 59.1233 33.3166 59.0328 32.6612 58.981L31.8888 58.5542C30.5313 58.5542 29.1972 58.5024 27.8864 58.399C26.5757 58.3214 25.2415 58.2826 23.884 58.2826C22.7605 58.2826 21.6838 58.3602 20.654 58.5154V58.7482C18.6411 58.7999 16.6516 58.8646 14.6854 58.9422C12.7193 59.0198 10.7298 59.0974 8.71692 59.175C8.20199 59.0457 7.64025 58.9422 7.03169 58.8646C6.46995 58.8129 5.90821 58.787 5.34646 58.787C5.34646 58.7353 5.34646 58.6835 5.34646 58.6318C5.39328 58.6059 5.41668 58.5671 5.41668 58.5154C5.41668 58.3084 5.36987 58.0756 5.27625 57.8169L6.18908 57.3901L6.6806 57.4289V57.002C6.16567 56.8727 5.67415 56.6787 5.20603 56.42C4.78472 56.1872 4.57407 55.8897 4.57407 55.5275C4.57407 55.243 4.73791 55.0101 5.06559 54.8291C5.39328 54.6738 5.79118 54.5574 6.2593 54.4798C6.77423 54.4022 7.28916 54.3505 7.80409 54.3246C8.31902 54.3246 8.76374 54.3246 9.13823 54.3246C11.3852 54.3246 13.6322 54.2599 15.8792 54.1306C18.1729 54.0271 20.4433 53.9754 22.6903 53.9754C23.0648 53.9754 23.7202 53.9883 24.6564 54.0142C25.5926 54.0659 26.6459 54.1177 27.8162 54.1694C28.9865 54.247 30.1802 54.3376 31.3973 54.441C32.6612 54.5445 33.8081 54.6609 34.838 54.7903C35.8679 54.9196 36.7105 55.0619 37.3658 55.2171C38.068 55.3723 38.4191 55.5275 38.4191 55.6827C38.4191 55.7603 38.3723 55.8768 38.2787 56.032C36.3126 55.6957 34.3231 55.4499 32.3102 55.2947C30.344 55.1654 28.3779 55.0101 26.4118 54.8291C28.3311 55.0877 30.2504 55.2947 32.1697 55.4499C34.1826 55.6051 36.1721 55.8638 38.1382 56.226L37.8574 56.8468ZM31.6782 58.9422C30.1802 58.8387 28.6588 58.7611 27.114 58.7094C25.5692 58.6835 24.001 58.6706 22.4094 58.6706C22.8775 58.6447 23.3457 58.6318 23.8138 58.6318H25.2181C26.2948 58.6318 27.3715 58.6447 28.4482 58.6706C29.5248 58.7223 30.6015 58.8129 31.6782 58.9422Z" fill="#1E1E1E"/>
<path d="M12.3376 30.7317C12.3451 30.7706 12.3862 30.7901 12.461 30.7901H12.4834C12.5283 30.7901 12.5582 30.794 12.5732 30.8018C12.962 30.9264 13.3472 31.1094 13.7286 31.3509C14.1175 31.5845 14.4653 31.8688 14.7719 32.2037C15.086 32.5308 15.3365 32.9046 15.5235 33.3252C15.7179 33.7457 15.8151 34.1974 15.8151 34.6803C15.8151 35.1009 15.7366 35.5058 15.5796 35.8953C15.4225 36.2847 15.2056 36.6234 14.9289 36.9116C15.2131 36.6546 15.4375 36.3353 15.602 35.9537C15.774 35.5643 15.86 35.1476 15.86 34.7037C15.86 34.2052 15.7591 33.7418 15.5571 33.3135C15.3552 32.8773 15.0972 32.4879 14.7831 32.1453C14.469 31.8026 14.1175 31.5105 13.7286 31.2691C13.3472 31.0199 12.9733 30.8291 12.6068 30.6967C12.891 30.6967 13.1789 30.7629 13.4706 30.8953C13.7697 31.0277 14.0539 31.2029 14.3232 31.421C14.5924 31.6312 14.8392 31.8766 15.0635 32.1569C15.2954 32.4295 15.4898 32.7099 15.6469 32.9981L15.5683 33.1149C15.7179 33.3485 15.8301 33.6016 15.9049 33.8742C15.9872 34.1468 16.0283 34.4272 16.0283 34.7153C16.0283 35.2683 15.9124 35.7551 15.6805 36.1756C15.4562 36.5884 15.1682 36.935 14.8167 37.2153C14.4727 37.4879 14.0913 37.6943 13.6725 37.8345C13.2612 37.9747 12.8723 38.0448 12.5059 38.0448C12.2965 38.0448 12.0833 38.0214 11.8664 37.9747C11.657 37.928 11.4439 37.8501 11.227 37.741V37.8111C11.4364 37.9358 11.6495 38.0214 11.8664 38.0682C12.0908 38.1149 12.3114 38.1382 12.5283 38.1382C13.0667 38.1382 13.594 38.0136 14.11 37.7644C14.6335 37.523 15.0748 37.1803 15.4337 36.7364C15.0897 37.1959 14.6597 37.5541 14.1437 37.8111C13.6351 38.0682 13.1041 38.1967 12.5507 38.1967C11.9823 38.1967 11.5224 38.0798 11.1709 37.8462C10.8194 37.6203 10.5427 37.34 10.3408 37.0051C10.1463 36.6702 10.0155 36.3158 9.94816 35.942C9.88085 35.5682 9.8472 35.2333 9.8472 34.9373C9.8472 34.5401 9.89581 34.1507 9.99303 33.7691C10.0977 33.3875 10.2548 33.037 10.4642 32.7177C10.6736 32.3984 10.9428 32.1258 11.2719 31.8999C11.6009 31.6663 11.9973 31.5027 12.461 31.4093L12.1357 31.3275C11.9786 31.2886 11.8664 31.2418 11.7991 31.1873C11.7318 31.1328 11.6982 31.0861 11.6982 31.0471C11.6982 30.9848 11.7617 30.9186 11.8889 30.8485C12.0235 30.7706 12.1731 30.7317 12.3376 30.7317ZM11.8328 32.2037C12.0347 32.1258 12.2291 32.0868 12.4161 32.0868C12.6031 32.0868 12.7452 32.118 12.8424 32.1803C12.9471 32.2348 12.9994 32.2932 12.9994 32.3555C12.9994 32.3945 12.9546 32.4373 12.8648 32.484C12.7826 32.5308 12.6741 32.597 12.5395 32.6826C12.4124 32.7605 12.2703 32.8618 12.1132 32.9864C11.9637 33.111 11.8216 33.2706 11.6869 33.4653C11.5598 33.6523 11.4514 33.882 11.3616 34.1546C11.2794 34.4272 11.2382 34.7465 11.2382 35.1125C11.2382 35.6499 11.3541 36.0549 11.586 36.3275C11.8178 36.6001 12.1394 36.7364 12.5507 36.7364C12.8125 36.7364 13.078 36.6896 13.3472 36.5962C13.6239 36.5027 13.8707 36.3703 14.0876 36.199C14.3119 36.0277 14.4914 35.8174 14.626 35.5682C14.7681 35.3189 14.8392 35.0386 14.8392 34.727C14.8392 34.4934 14.7981 34.2597 14.7158 34.0261C14.641 33.7924 14.5326 33.5705 14.3905 33.3602C14.2559 33.1421 14.0913 32.9396 13.8969 32.7527C13.7099 32.5658 13.5042 32.4062 13.2799 32.2738C13.063 32.1491 12.8835 32.0557 12.7414 31.9934C12.6068 31.9233 12.5096 31.8571 12.4498 31.7948C12.3899 31.8259 12.3039 31.8649 12.1917 31.9116C12.087 31.9505 11.945 32.0129 11.7655 32.0985L11.8328 32.2037ZM12.5844 31.6546C12.9284 31.7714 13.2575 31.9467 13.5716 32.1803C13.8408 32.3906 14.0876 32.6203 14.3119 32.8696C14.0951 32.6048 13.8595 32.3672 13.6052 32.1569C13.3135 31.9077 12.9882 31.713 12.6292 31.5728L12.5844 31.6546ZM14.7607 35.6382C14.6485 35.8875 14.4914 36.1094 14.2895 36.3041C14.4241 36.2107 14.5363 36.0977 14.626 35.9653C14.7233 35.8329 14.8018 35.7005 14.8616 35.5682C14.9214 35.4358 14.9663 35.315 14.9962 35.206C15.0187 35.1048 15.0374 35.023 15.0523 34.9607C14.9701 35.1632 14.8728 35.389 14.7607 35.6382ZM15.5123 36.6429C15.5048 36.6585 15.4936 36.6741 15.4786 36.6896C15.4711 36.6974 15.4636 36.7013 15.4562 36.7013C15.4487 36.7013 15.4674 36.6624 15.5123 36.5845C15.5571 36.4988 15.6095 36.4015 15.6693 36.2925C15.7366 36.1756 15.8002 36.0549 15.86 35.9303C15.9124 35.8368 15.9498 35.7551 15.9722 35.685C15.8675 36.0199 15.7142 36.3392 15.5123 36.6429ZM16.1405 34.7504C16.1405 34.875 16.133 34.9996 16.118 35.1242C16.1031 35.241 16.0769 35.3501 16.0395 35.4513C16.0919 35.2566 16.118 35.0386 16.118 34.7971C16.118 34.618 16.1031 34.4428 16.0732 34.2714C16.0507 34.1234 16.0208 33.9794 15.9834 33.8392C16.0208 33.9794 16.0545 34.1196 16.0844 34.2597C16.1218 34.4155 16.1405 34.5791 16.1405 34.7504ZM12.5844 31.4677L12.4834 31.421C12.4759 31.4365 12.4647 31.4521 12.4498 31.4677C12.4348 31.4833 12.4273 31.4988 12.4273 31.5144C12.4273 31.53 12.4348 31.5534 12.4498 31.5845C12.4722 31.6079 12.4909 31.6273 12.5059 31.6429L12.5844 31.4677ZM14.3792 32.9513C14.3568 32.9202 14.3344 32.8929 14.3119 32.8696C14.3344 32.9007 14.3568 32.928 14.3792 32.9513Z" fill="#1E1E1E"/>
<path d="M21.0876 30.7317C21.095 30.7706 21.1362 30.7901 21.2109 30.7901H21.2334C21.2783 30.7901 21.3082 30.794 21.3231 30.8018C21.712 30.9264 22.0972 31.1094 22.4786 31.3509C22.8675 31.5845 23.2152 31.8688 23.5218 32.2037C23.8359 32.5308 24.0865 32.9046 24.2734 33.3252C24.4679 33.7457 24.5651 34.1974 24.5651 34.6803C24.5651 35.1009 24.4866 35.5058 24.3295 35.8953C24.1725 36.2847 23.9556 36.6234 23.6789 36.9116C23.9631 36.6546 24.1874 36.3353 24.352 35.9537C24.524 35.5643 24.61 35.1476 24.61 34.7037C24.61 34.2052 24.509 33.7418 24.3071 33.3135C24.1052 32.8773 23.8472 32.4879 23.5331 32.1453C23.219 31.8026 22.8675 31.5105 22.4786 31.2691C22.0972 31.0199 21.7232 30.8291 21.3568 30.6967C21.641 30.6967 21.9289 30.7629 22.2206 30.8953C22.5197 31.0277 22.8039 31.2029 23.0731 31.421C23.3424 31.6312 23.5892 31.8766 23.8135 32.1569C24.0453 32.4295 24.2398 32.7099 24.3968 32.9981L24.3183 33.1149C24.4679 33.3485 24.5801 33.6016 24.6549 33.8742C24.7371 34.1468 24.7783 34.4272 24.7783 34.7153C24.7783 35.2683 24.6623 35.7551 24.4305 36.1756C24.2061 36.5884 23.9182 36.935 23.5667 37.2153C23.2227 37.4879 22.8413 37.6943 22.4225 37.8345C22.0112 37.9747 21.6223 38.0448 21.2558 38.0448C21.0464 38.0448 20.8333 38.0214 20.6164 37.9747C20.407 37.928 20.1939 37.8501 19.977 37.741V37.8111C20.1864 37.9358 20.3995 38.0214 20.6164 38.0682C20.8408 38.1149 21.0614 38.1382 21.2783 38.1382C21.8167 38.1382 22.344 38.0136 22.86 37.7644C23.3835 37.523 23.8247 37.1803 24.1837 36.7364C23.8397 37.1959 23.4097 37.5541 22.8936 37.8111C22.3851 38.0682 21.8541 38.1967 21.3007 38.1967C20.7323 38.1967 20.2724 38.0798 19.9209 37.8462C19.5694 37.6203 19.2927 37.34 19.0908 37.0051C18.8963 36.6702 18.7654 36.3158 18.6981 35.942C18.6308 35.5682 18.5972 35.2333 18.5972 34.9373C18.5972 34.5401 18.6458 34.1507 18.743 33.7691C18.8477 33.3875 19.0048 33.037 19.2142 32.7177C19.4236 32.3984 19.6928 32.1258 20.0218 31.8999C20.3509 31.6663 20.7473 31.5027 21.2109 31.4093L20.8856 31.3275C20.7286 31.2886 20.6164 31.2418 20.5491 31.1873C20.4818 31.1328 20.4481 31.0861 20.4481 31.0471C20.4481 30.9848 20.5117 30.9186 20.6388 30.8485C20.7734 30.7706 20.923 30.7317 21.0876 30.7317ZM20.5827 32.2037C20.7847 32.1258 20.9791 32.0868 21.1661 32.0868C21.353 32.0868 21.4951 32.118 21.5924 32.1803C21.6971 32.2348 21.7494 32.2932 21.7494 32.3555C21.7494 32.3945 21.7045 32.4373 21.6148 32.484C21.5325 32.5308 21.4241 32.597 21.2895 32.6826C21.1623 32.7605 21.0202 32.8618 20.8632 32.9864C20.7136 33.111 20.5715 33.2706 20.4369 33.4653C20.3098 33.6523 20.2013 33.882 20.1116 34.1546C20.0293 34.4272 19.9882 34.7465 19.9882 35.1125C19.9882 35.6499 20.1041 36.0549 20.3359 36.3275C20.5678 36.6001 20.8894 36.7364 21.3007 36.7364C21.5624 36.7364 21.8279 36.6896 22.0972 36.5962C22.3739 36.5027 22.6207 36.3703 22.8376 36.199C23.0619 36.0277 23.2414 35.8174 23.376 35.5682C23.5181 35.3189 23.5892 35.0386 23.5892 34.727C23.5892 34.4934 23.548 34.2597 23.4658 34.0261C23.391 33.7924 23.2825 33.5705 23.1404 33.3602C23.0058 33.1421 22.8413 32.9396 22.6468 32.7527C22.4599 32.5658 22.2542 32.4062 22.0299 32.2738C21.813 32.1491 21.6335 32.0557 21.4914 31.9934C21.3568 31.9233 21.2596 31.8571 21.1997 31.7948C21.1399 31.8259 21.0539 31.8649 20.9417 31.9116C20.837 31.9505 20.6949 32.0129 20.5154 32.0985L20.5827 32.2037ZM21.3343 31.6546C21.6784 31.7714 22.0074 31.9467 22.3215 32.1803C22.5908 32.3906 22.8376 32.6203 23.0619 32.8696C22.845 32.6048 22.6095 32.3672 22.3552 32.1569C22.0635 31.9077 21.7382 31.713 21.3792 31.5728L21.3343 31.6546ZM23.5106 35.6382C23.3984 35.8875 23.2414 36.1094 23.0395 36.3041C23.1741 36.2107 23.2863 36.0977 23.376 35.9653C23.4732 35.8329 23.5518 35.7005 23.6116 35.5682C23.6714 35.4358 23.7163 35.315 23.7462 35.206C23.7686 35.1048 23.7873 35.023 23.8023 34.9607C23.72 35.1632 23.6228 35.389 23.5106 35.6382ZM24.2622 36.6429C24.2548 36.6585 24.2435 36.6741 24.2286 36.6896C24.2211 36.6974 24.2136 36.7013 24.2061 36.7013C24.1987 36.7013 24.2174 36.6624 24.2622 36.5845C24.3071 36.4988 24.3595 36.4015 24.4193 36.2925C24.4866 36.1756 24.5502 36.0549 24.61 35.9303C24.6623 35.8368 24.6997 35.7551 24.7222 35.685C24.6175 36.0199 24.4642 36.3392 24.2622 36.6429ZM24.8904 34.7504C24.8904 34.875 24.883 34.9996 24.868 35.1242C24.853 35.241 24.8269 35.3501 24.7895 35.4513C24.8418 35.2566 24.868 35.0386 24.868 34.7971C24.868 34.618 24.853 34.4428 24.8231 34.2714C24.8007 34.1234 24.7708 33.9794 24.7334 33.8392C24.7708 33.9794 24.8044 34.1196 24.8343 34.2597C24.8717 34.4155 24.8904 34.5791 24.8904 34.7504ZM21.3343 31.4677L21.2334 31.421C21.2259 31.4365 21.2147 31.4521 21.1997 31.4677C21.1848 31.4833 21.1773 31.4988 21.1773 31.5144C21.1773 31.53 21.1848 31.5534 21.1997 31.5845C21.2222 31.6079 21.2409 31.6273 21.2558 31.6429L21.3343 31.4677ZM23.1292 32.9513C23.1068 32.9202 23.0843 32.8929 23.0619 32.8696C23.0843 32.9007 23.1068 32.928 23.1292 32.9513Z" fill="#1E1E1E"/>
<path d="M29.8376 30.7317C29.845 30.7706 29.8862 30.7901 29.9609 30.7901H29.9834C30.0283 30.7901 30.0582 30.794 30.0731 30.8018C30.462 30.9264 30.8472 31.1094 31.2286 31.3509C31.6175 31.5845 31.9652 31.8688 32.2718 32.2037C32.5859 32.5308 32.8365 32.9046 33.0234 33.3252C33.2179 33.7457 33.3151 34.1974 33.3151 34.6803C33.3151 35.1009 33.2366 35.5058 33.0795 35.8953C32.9225 36.2847 32.7056 36.6234 32.4289 36.9116C32.7131 36.6546 32.9374 36.3353 33.102 35.9537C33.274 35.5643 33.36 35.1476 33.36 34.7037C33.36 34.2052 33.259 33.7418 33.0571 33.3135C32.8552 32.8773 32.5972 32.4879 32.2831 32.1453C31.969 31.8026 31.6175 31.5105 31.2286 31.2691C30.8472 31.0199 30.4732 30.8291 30.1068 30.6967C30.391 30.6967 30.6789 30.7629 30.9706 30.8953C31.2697 31.0277 31.5539 31.2029 31.8231 31.421C32.0924 31.6312 32.3392 31.8766 32.5635 32.1569C32.7953 32.4295 32.9898 32.7099 33.1468 32.9981L33.0683 33.1149C33.2179 33.3485 33.3301 33.6016 33.4049 33.8742C33.4871 34.1468 33.5283 34.4272 33.5283 34.7153C33.5283 35.2683 33.4123 35.7551 33.1805 36.1756C32.9561 36.5884 32.6682 36.935 32.3167 37.2153C31.9727 37.4879 31.5913 37.6943 31.1725 37.8345C30.7612 37.9747 30.3723 38.0448 30.0058 38.0448C29.7964 38.0448 29.5833 38.0214 29.3664 37.9747C29.157 37.928 28.9439 37.8501 28.727 37.741V37.8111C28.9364 37.9358 29.1495 38.0214 29.3664 38.0682C29.5908 38.1149 29.8114 38.1382 30.0283 38.1382C30.5667 38.1382 31.094 38.0136 31.61 37.7644C32.1335 37.523 32.5747 37.1803 32.9337 36.7364C32.5897 37.1959 32.1597 37.5541 31.6436 37.8111C31.1351 38.0682 30.6041 38.1967 30.0507 38.1967C29.4823 38.1967 29.0224 38.0798 28.6709 37.8462C28.3194 37.6203 28.0427 37.34 27.8408 37.0051C27.6463 36.6702 27.5154 36.3158 27.4481 35.942C27.3808 35.5682 27.3472 35.2333 27.3472 34.9373C27.3472 34.5401 27.3958 34.1507 27.493 33.7691C27.5977 33.3875 27.7548 33.037 27.9642 32.7177C28.1736 32.3984 28.4428 32.1258 28.7718 31.8999C29.1009 31.6663 29.4973 31.5027 29.9609 31.4093L29.6356 31.3275C29.4786 31.2886 29.3664 31.2418 29.2991 31.1873C29.2318 31.1328 29.1981 31.0861 29.1981 31.0471C29.1981 30.9848 29.2617 30.9186 29.3888 30.8485C29.5234 30.7706 29.673 30.7317 29.8376 30.7317ZM29.3327 32.2037C29.5347 32.1258 29.7291 32.0868 29.9161 32.0868C30.103 32.0868 30.2451 32.118 30.3424 32.1803C30.4471 32.2348 30.4994 32.2932 30.4994 32.3555C30.4994 32.3945 30.4545 32.4373 30.3648 32.484C30.2825 32.5308 30.1741 32.597 30.0395 32.6826C29.9123 32.7605 29.7702 32.8618 29.6132 32.9864C29.4636 33.111 29.3215 33.2706 29.1869 33.4653C29.0598 33.6523 28.9513 33.882 28.8616 34.1546C28.7793 34.4272 28.7382 34.7465 28.7382 35.1125C28.7382 35.6499 28.8541 36.0549 29.0859 36.3275C29.3178 36.6001 29.6394 36.7364 30.0507 36.7364C30.3124 36.7364 30.5779 36.6896 30.8472 36.5962C31.1239 36.5027 31.3707 36.3703 31.5876 36.199C31.8119 36.0277 31.9914 35.8174 32.126 35.5682C32.2681 35.3189 32.3392 35.0386 32.3392 34.727C32.3392 34.4934 32.298 34.2597 32.2158 34.0261C32.141 33.7924 32.0325 33.5705 31.8904 33.3602C31.7558 33.1421 31.5913 32.9396 31.3968 32.7527C31.2099 32.5658 31.0042 32.4062 30.7799 32.2738C30.563 32.1491 30.3835 32.0557 30.2414 31.9934C30.1068 31.9233 30.0096 31.8571 29.9497 31.7948C29.8899 31.8259 29.8039 31.8649 29.6917 31.9116C29.587 31.9505 29.4449 32.0129 29.2654 32.0985L29.3327 32.2037ZM30.0843 31.6546C30.4284 31.7714 30.7574 31.9467 31.0715 32.1803C31.3408 32.3906 31.5876 32.6203 31.8119 32.8696C31.595 32.6048 31.3595 32.3672 31.1052 32.1569C30.8135 31.9077 30.4882 31.713 30.1292 31.5728L30.0843 31.6546ZM32.2606 35.6382C32.1484 35.8875 31.9914 36.1094 31.7895 36.3041C31.9241 36.2107 32.0363 36.0977 32.126 35.9653C32.2232 35.8329 32.3018 35.7005 32.3616 35.5682C32.4214 35.4358 32.4663 35.315 32.4962 35.206C32.5186 35.1048 32.5373 35.023 32.5523 34.9607C32.47 35.1632 32.3728 35.389 32.2606 35.6382ZM33.0122 36.6429C33.0048 36.6585 32.9935 36.6741 32.9786 36.6896C32.9711 36.6974 32.9636 36.7013 32.9561 36.7013C32.9487 36.7013 32.9674 36.6624 33.0122 36.5845C33.0571 36.4988 33.1095 36.4015 33.1693 36.2925C33.2366 36.1756 33.3002 36.0549 33.36 35.9303C33.4123 35.8368 33.4497 35.7551 33.4722 35.685C33.3675 36.0199 33.2142 36.3392 33.0122 36.6429ZM33.6404 34.7504C33.6404 34.875 33.633 34.9996 33.618 35.1242C33.603 35.241 33.5769 35.3501 33.5395 35.4513C33.5918 35.2566 33.618 35.0386 33.618 34.7971C33.618 34.618 33.603 34.4428 33.5731 34.2714C33.5507 34.1234 33.5208 33.9794 33.4834 33.8392C33.5208 33.9794 33.5544 34.1196 33.5843 34.2597C33.6217 34.4155 33.6404 34.5791 33.6404 34.7504ZM30.0843 31.4677L29.9834 31.421C29.9759 31.4365 29.9647 31.4521 29.9497 31.4677C29.9348 31.4833 29.9273 31.4988 29.9273 31.5144C29.9273 31.53 29.9348 31.5534 29.9497 31.5845C29.9722 31.6079 29.9909 31.6273 30.0058 31.6429L30.0843 31.4677ZM31.8792 32.9513C31.8568 32.9202 31.8343 32.8929 31.8119 32.8696C31.8343 32.9007 31.8568 32.928 31.8792 32.9513Z" fill="#1E1E1E"/>
<path d="M11.2724 2.47372C11.0003 2.47372 10.7962 2.42068 10.6601 2.31458C10.5241 2.20849 10.4561 2.09356 10.4561 1.96978C10.4561 1.77528 10.5751 1.6073 10.8132 1.46585C11.0513 1.30671 11.3064 1.15641 11.5785 1.01495C11.9867 1.13873 12.4799 1.25366 13.0581 1.35975C13.6023 1.46584 14.1805 1.5631 14.7928 1.65151C15.405 1.72223 16.0173 1.77528 16.6295 1.81064C17.2418 1.84601 17.803 1.86369 18.3132 1.86369H18.5683L20.8132 1.83717C20.0649 1.8018 19.3166 1.78412 18.5683 1.78412C17.786 1.76644 17.0207 1.73108 16.2724 1.67803C15.4901 1.62498 14.7418 1.53657 14.0275 1.4128C13.2792 1.28902 12.5819 1.1122 11.9356 0.882336L12.803 0.696671C13.2792 0.696671 13.6533 0.740879 13.9254 0.82929C14.1975 0.917701 14.5717 0.979587 15.0479 1.01495L15.6091 1.30671C16.5955 1.30671 17.5649 1.34207 18.5173 1.4128C19.4697 1.46585 20.439 1.49237 21.4254 1.49237C22.2418 1.49237 23.0241 1.43932 23.7724 1.33323V1.17409C25.235 1.13873 26.6805 1.09452 28.1091 1.04147C29.5377 0.988426 30.9833 0.935383 32.4459 0.882336C32.82 0.970747 33.2282 1.04147 33.6703 1.09452C34.0785 1.12988 34.4867 1.14757 34.8948 1.14757C34.8948 1.18293 34.8948 1.21829 34.8948 1.25366C34.8608 1.27134 34.8438 1.29786 34.8438 1.33323C34.8438 1.47468 34.8778 1.63382 34.9459 1.81064L34.2826 2.1024L33.9254 2.07588V2.36763C34.2996 2.45604 34.6567 2.58866 34.9969 2.76548C35.303 2.92462 35.4561 3.12796 35.4561 3.37551C35.4561 3.57001 35.337 3.72915 35.0989 3.85293C34.8608 3.95902 34.5717 4.03859 34.2316 4.09164C33.8574 4.14468 33.4833 4.18005 33.1091 4.19773C32.735 4.19773 32.4118 4.19773 32.1397 4.19773C30.5071 4.19773 28.8744 4.24193 27.2418 4.33034C25.5751 4.40107 23.9254 4.43644 22.2928 4.43644C22.0207 4.43644 21.5445 4.42759 20.8642 4.40991C20.1839 4.37455 19.4186 4.33919 18.5683 4.30382C17.718 4.25077 16.8506 4.18889 15.9663 4.11816C15.0479 4.04743 14.2146 3.96786 13.4663 3.87945C12.718 3.79104 12.1057 3.69379 11.6295 3.5877C11.1193 3.4816 10.8642 3.37551 10.8642 3.26942C10.8642 3.21637 10.8982 3.1368 10.9663 3.03071C12.3948 3.26058 13.8404 3.42856 15.303 3.53465C16.7316 3.62306 18.1601 3.72915 19.5887 3.85293C18.1942 3.67611 16.7996 3.53465 15.405 3.42856C13.9424 3.32247 12.4969 3.14564 11.0683 2.89809L11.2724 2.47372ZM15.7622 1.04147C16.8506 1.1122 17.9561 1.16525 19.0785 1.20061C20.201 1.21829 21.3404 1.22713 22.4969 1.22713C22.1567 1.24482 21.8166 1.25366 21.4765 1.25366H20.4561C19.6737 1.25366 18.8914 1.24482 18.1091 1.22713C17.3268 1.19177 16.5445 1.12988 15.7622 1.04147Z" fill="#1E1E1E"/>
<path d="M33.7584 24.7861C33.7584 25.0447 33.7052 25.2387 33.5988 25.368C33.4924 25.4973 33.3771 25.5619 33.253 25.5619C33.058 25.5619 32.8896 25.4488 32.7477 25.2225C32.5881 24.9962 32.4374 24.7538 32.2956 24.4952C32.4197 24.1072 32.535 23.6385 32.6413 23.0889C32.7477 22.5717 32.8452 22.0221 32.9339 21.4403C33.0048 20.8584 33.058 20.2765 33.0935 19.6946C33.1289 19.1127 33.1467 18.5793 33.1467 18.0944V17.852L33.1201 15.7184C33.0846 16.4296 33.0669 17.1408 33.0669 17.852C33.0491 18.5955 33.0137 19.3228 32.9605 20.034C32.9073 20.7776 32.8186 21.4887 32.6945 22.1676C32.5704 22.8788 32.3931 23.5415 32.1626 24.1557L31.9764 23.3314C31.9764 22.8788 32.0208 22.5232 32.1094 22.2646C32.1981 22.006 32.2601 21.6504 32.2956 21.1978L32.5881 20.6644C32.5881 19.7269 32.6236 18.8056 32.6945 17.9005C32.7477 16.9953 32.7743 16.074 32.7743 15.1365C32.7743 14.3606 32.7211 13.6171 32.6147 12.9059H32.4552C32.4197 11.5159 32.3754 10.142 32.3222 8.78425C32.269 7.42652 32.2158 6.05262 32.1626 4.66256C32.2513 4.30696 32.3222 3.91904 32.3754 3.49879C32.4108 3.11087 32.4286 2.72294 32.4286 2.33502C32.464 2.33502 32.4995 2.33502 32.535 2.33502C32.5527 2.36735 32.5793 2.38351 32.6147 2.38351C32.7566 2.38351 32.9162 2.35118 33.0935 2.28653L33.386 2.9169L33.3594 3.25634H33.652C33.7406 2.90074 33.8736 2.56131 34.0509 2.23804C34.2105 1.9471 34.4144 1.80162 34.6626 1.80162C34.8576 1.80162 35.0172 1.91477 35.1413 2.14106C35.2477 2.36735 35.3275 2.64213 35.3807 2.96539C35.4339 3.32099 35.4693 3.67659 35.4871 4.03218C35.4871 4.38778 35.4871 4.69489 35.4871 4.9535C35.4871 6.5052 35.5314 8.05689 35.6201 9.60858C35.691 11.1926 35.7264 12.7605 35.7264 14.3122C35.7264 14.5708 35.7176 15.0234 35.6998 15.6699C35.6644 16.3164 35.6289 17.0438 35.5935 17.852C35.5403 18.6601 35.4782 19.4845 35.4073 20.325C35.3364 21.1978 35.2566 21.9898 35.1679 22.701C35.0793 23.4122 34.9818 23.9941 34.8754 24.4467C34.769 24.9316 34.6626 25.174 34.5562 25.174C34.503 25.174 34.4233 25.1417 34.3169 25.077C34.5474 23.7193 34.7158 22.3454 34.8222 20.9553C34.9108 19.5976 35.0172 18.2399 35.1413 16.8822C34.964 18.2076 34.8222 19.533 34.7158 20.8584C34.6094 22.2484 34.4321 23.6223 34.1839 24.9801L33.7584 24.7861ZM32.3222 20.5189C32.3931 19.4845 32.4463 18.4338 32.4818 17.3671C32.4995 16.3003 32.5084 15.2173 32.5084 14.1182C32.5261 14.4415 32.535 14.7647 32.535 15.088V16.0578C32.535 16.8013 32.5261 17.5449 32.5084 18.2884C32.4729 19.0319 32.4108 19.7754 32.3222 20.5189Z" fill="#1E1E1E"/>
<path d="M11.4445 2.57747C11.4445 2.31886 11.4977 2.1249 11.6041 1.99559C11.7105 1.86628 11.8257 1.80163 11.9498 1.80163C12.1449 1.80163 12.3133 1.91477 12.4552 2.14106C12.6147 2.36735 12.7654 2.6098 12.9073 2.86842C12.7832 3.25634 12.6679 3.72508 12.5615 4.27464C12.4552 4.79187 12.3576 5.34143 12.269 5.92332C12.1981 6.5052 12.1449 7.08709 12.1094 7.66897C12.074 8.25086 12.0562 8.78425 12.0562 9.26916V9.51161L12.0828 11.6452C12.1183 10.934 12.136 10.2228 12.136 9.51161C12.1537 8.76809 12.1892 8.04073 12.2424 7.32954C12.2956 6.58602 12.3842 5.87482 12.5084 5.19596C12.6325 4.48477 12.8098 3.82206 13.0403 3.20785L13.2264 4.03219C13.2264 4.48476 13.1821 4.84036 13.0935 5.09898C13.0048 5.35759 12.9428 5.71319 12.9073 6.16577L12.6147 6.69916C12.6147 7.63664 12.5793 8.55796 12.5084 9.46312C12.4552 10.3683 12.4286 11.2896 12.4286 12.2271C12.4286 13.0029 12.4818 13.7464 12.5881 14.4576H12.7477C12.7832 15.8477 12.8275 17.2216 12.8807 18.5793C12.9339 19.9371 12.9871 21.3109 13.0403 22.701C12.9516 23.0566 12.8807 23.4445 12.8275 23.8648C12.792 24.2527 12.7743 24.6406 12.7743 25.0285C12.7389 25.0285 12.7034 25.0285 12.6679 25.0285C12.6502 24.9962 12.6236 24.9801 12.5881 24.9801C12.4463 24.9801 12.2867 25.0124 12.1094 25.077L11.8169 24.4467L11.8435 24.1072H11.5509C11.4623 24.4628 11.3293 24.8023 11.152 25.1255C10.9924 25.4165 10.7885 25.5619 10.5403 25.5619C10.3452 25.5619 10.1857 25.4488 10.0615 25.2225C9.95516 24.9962 9.87537 24.7214 9.82218 24.3982C9.76899 24.0426 9.73353 23.687 9.7158 23.3314C9.7158 22.9758 9.7158 22.6687 9.7158 22.4101C9.7158 20.8584 9.67147 19.3067 9.58282 17.755C9.5119 16.171 9.47644 14.6031 9.47644 13.0514C9.47644 12.7928 9.48531 12.3402 9.50304 11.6937C9.5385 11.0471 9.57396 10.3198 9.60942 9.51161C9.66261 8.70343 9.72467 7.8791 9.79559 7.0386C9.86651 6.16577 9.9463 5.37376 10.035 4.66256C10.1236 3.95137 10.2211 3.36948 10.3275 2.91691C10.4339 2.432 10.5403 2.18955 10.6467 2.18955C10.6998 2.18955 10.7796 2.22188 10.886 2.28653C10.6555 3.64426 10.4871 5.01816 10.3807 6.40822C10.292 7.76595 10.1857 9.12368 10.0615 10.4814C10.2389 9.15601 10.3807 7.83061 10.4871 6.5052C10.5935 5.11514 10.7708 3.74125 11.019 2.38351L11.4445 2.57747ZM12.8807 6.84463C12.8098 7.8791 12.7566 8.92972 12.7211 9.99651C12.7034 11.0633 12.6945 12.1463 12.6945 13.2454C12.6768 12.9221 12.6679 12.5988 12.6679 12.2756V11.3058C12.6679 10.5622 12.6768 9.81871 12.6945 9.07519C12.73 8.33167 12.792 7.58815 12.8807 6.84463Z" fill="#1E1E1E"/>
<path d="M33.4381 23.9335C33.6941 23.9335 33.8861 23.9865 34.014 24.0926C34.142 24.1987 34.206 24.3136 34.206 24.4374C34.206 24.6319 34.094 24.7999 33.8701 24.9414C33.6461 25.1005 33.4061 25.2508 33.1501 25.3923C32.7662 25.2685 32.3022 25.1535 31.7582 25.0475C31.2463 24.9414 30.7023 24.8441 30.1264 24.7557C29.5504 24.685 28.9745 24.6319 28.3985 24.5966C27.8226 24.5612 27.2946 24.5435 26.8147 24.5435H26.5747L24.4629 24.57C25.1668 24.6054 25.8708 24.6231 26.5747 24.6231C27.3106 24.6408 28.0306 24.6761 28.7345 24.7292C29.4704 24.7822 30.1744 24.8706 30.8463 24.9944C31.5503 25.1182 32.2062 25.295 32.8142 25.5249L31.9982 25.7105C31.5503 25.7105 31.1983 25.6663 30.9423 25.5779C30.6863 25.4895 30.3344 25.4276 29.8864 25.3923L29.3584 25.1005C28.4305 25.1005 27.5186 25.0651 26.6227 24.9944C25.7268 24.9414 24.8148 24.9148 23.8869 24.9148C23.119 24.9148 22.3831 24.9679 21.6791 25.074V25.2331C20.3032 25.2685 18.9434 25.3127 17.5995 25.3657C16.2556 25.4188 14.8957 25.4718 13.5198 25.5249C13.1679 25.4365 12.7839 25.3657 12.3679 25.3127C11.984 25.2773 11.6 25.2596 11.216 25.2596C11.216 25.2243 11.216 25.1889 11.216 25.1535C11.248 25.1359 11.264 25.1093 11.264 25.074C11.264 24.9325 11.232 24.7734 11.168 24.5966L11.792 24.3048L12.1279 24.3313V24.0396C11.776 23.9512 11.44 23.8185 11.12 23.6417C10.8321 23.4826 10.6881 23.2792 10.6881 23.0317C10.6881 22.8372 10.8001 22.6781 11.024 22.5543C11.248 22.4482 11.52 22.3686 11.84 22.3156C12.1919 22.2625 12.5439 22.2272 12.8959 22.2095C13.2478 22.2095 13.5518 22.2095 13.8078 22.2095C15.3437 22.2095 16.8795 22.1653 18.4154 22.0769C19.9833 22.0061 21.5351 21.9708 23.071 21.9708C23.327 21.9708 23.7749 21.9796 24.4149 21.9973C25.0548 22.0327 25.7748 22.068 26.5747 22.1034C27.3746 22.1564 28.1905 22.2183 29.0225 22.289C29.8864 22.3598 30.6703 22.4393 31.3743 22.5278C32.0782 22.6162 32.6542 22.7134 33.1021 22.8195C33.5821 22.9256 33.8221 23.0317 33.8221 23.1378C33.8221 23.1908 33.7901 23.2704 33.7261 23.3765C32.3822 23.1466 31.0223 22.9786 29.6464 22.8726C28.3025 22.7841 26.9587 22.6781 25.6148 22.5543C26.9267 22.7311 28.2385 22.8726 29.5504 22.9786C30.9263 23.0847 32.2862 23.2616 33.6301 23.5091L33.4381 23.9335ZM29.2145 25.3657C28.1906 25.295 27.1506 25.242 26.0947 25.2066C25.0388 25.1889 23.9669 25.1801 22.879 25.1801C23.199 25.1624 23.519 25.1535 23.8389 25.1535H24.7988C25.5348 25.1535 26.2707 25.1624 27.0067 25.1801C27.7426 25.2154 28.4785 25.2773 29.2145 25.3657Z" fill="#1E1E1E"/>
<path d="M15.7468 11.6467C15.5553 12.2783 15.4595 12.9243 15.4595 13.5846C15.4595 14.3311 15.569 15.0273 15.7879 15.6733C16.0068 16.3193 16.3079 16.9078 16.691 17.439C17.0742 17.9701 17.5189 18.4367 18.0252 18.8386C18.381 19.1257 18.7641 19.3769 19.1747 19.5923C18.7915 19.4057 18.4152 19.1903 18.0457 18.9463C17.5257 18.6018 17.0673 18.1711 16.6705 17.6543C16.2737 17.1519 15.9589 16.5705 15.7263 15.9102C15.48 15.2498 15.3569 14.5034 15.3569 13.6708V13.3908C15.3569 12.1993 15.61 11.1658 16.1163 10.2901C16.6226 9.41444 17.2658 8.6895 18.0457 8.11529C18.8394 7.54109 19.722 7.11043 20.6936 6.82333C21.6651 6.55058 22.623 6.4142 23.5672 6.4142C23.964 6.4142 24.3814 6.43574 24.8192 6.4788C25.2708 6.52187 25.7224 6.61518 26.1739 6.75873C26.6255 6.90228 27.0634 7.10325 27.4876 7.36165C27.9255 7.63439 28.3223 8.00045 28.6781 8.45982C28.9654 8.83305 29.2049 9.235 29.3965 9.66565C29.6017 10.1107 29.7181 10.5485 29.7454 10.9792C29.7181 10.9361 29.6907 10.9146 29.6633 10.9146C29.6086 10.9146 29.547 10.9433 29.4786 11.0007C29.4239 11.0725 29.3623 11.1084 29.2939 11.1084H29.2528C29.1981 11.1084 29.157 11.0725 29.1297 11.0007C29.1023 10.9433 29.0612 10.8428 29.0065 10.6992C28.9654 10.5557 28.897 10.3691 28.8012 10.1394C28.7055 9.90969 28.5618 9.63694 28.3702 9.32113C28.2881 9.40726 28.2265 9.45033 28.1855 9.45033C28.3223 9.72307 28.4181 9.97429 28.4728 10.204C28.5276 10.4337 28.5549 10.649 28.5549 10.85C28.5549 11.2663 28.4865 11.5677 28.3497 11.7543C28.2128 11.941 28.1102 12.0343 28.0418 12.0343C27.9323 12.0343 27.8434 11.941 27.775 11.7543C27.7065 11.5821 27.6176 11.3739 27.5081 11.1299C27.4123 10.9002 27.2755 10.6562 27.0976 10.3978C26.9334 10.1394 26.6871 9.9384 26.3587 9.79485C26.0303 9.56517 25.6197 9.38573 25.1271 9.25653C24.6345 9.14169 24.135 9.08427 23.6287 9.08427C22.7667 9.08427 21.9798 9.19193 21.2683 9.40726C20.5567 9.62259 19.9409 9.92405 19.421 10.3116C18.901 10.7136 18.4973 11.1945 18.2099 11.7543C17.9226 12.3285 17.7789 12.9745 17.7789 13.6923C17.7789 14.3813 17.9431 14.9986 18.2715 15.5441C18.5999 16.104 19.0447 16.5777 19.6057 16.9653C20.1804 17.3529 20.8372 17.6471 21.5762 17.8481C22.3288 18.0491 23.1293 18.1496 23.9777 18.1496C24.3882 18.1496 24.7919 18.1209 25.1887 18.0634C25.5992 18.0204 25.9892 17.9199 26.3587 17.762C26.7281 17.6184 27.0771 17.4103 27.4055 17.1375C27.7339 16.8791 28.0349 16.5346 28.3086 16.104C28.5823 15.5585 28.7739 15.1134 28.8833 14.7689C29.0065 14.4244 29.1228 14.2521 29.2323 14.2521C29.2733 14.2521 29.3212 14.2808 29.376 14.3383C29.2254 15.056 28.9791 15.702 28.637 16.2762C28.3223 16.8074 27.9118 17.2524 27.4055 17.6113C27.9665 17.2237 28.3976 16.7858 28.6986 16.2978C29.0407 15.7666 29.3075 15.135 29.4991 14.4029C29.5675 14.4746 29.6291 14.5105 29.6838 14.5105C29.7386 14.5105 29.7865 14.4029 29.8275 14.1875C29.8686 13.9866 29.9165 13.7641 29.9712 13.52C30.0259 13.276 30.0944 13.0463 30.1765 12.831C30.2586 12.63 30.3612 12.5295 30.4844 12.5295C30.6349 12.5295 30.7443 12.6587 30.8128 12.9171C30.8812 13.1755 30.9633 13.4913 31.0591 13.8645C31.0591 13.965 31.0454 14.0583 31.018 14.1445C30.9907 14.245 30.9633 14.3311 30.9359 14.4029C30.8128 15.1063 30.5938 15.7738 30.2791 16.4054C29.9644 17.0514 29.5607 17.6256 29.0681 18.128C28.5755 18.6448 27.987 19.0755 27.3029 19.42C26.6323 19.7645 25.8729 19.987 25.0245 20.0875C25.8318 20.0157 26.5639 19.8219 27.2208 19.5061C27.8913 19.2047 28.4865 18.8027 29.0065 18.3003C29.5265 17.8122 29.9644 17.238 30.3201 16.5777C30.6759 15.9173 30.9496 15.2139 31.1412 14.4675C31.1412 15.1278 31.0112 15.781 30.7512 16.4269C30.5049 17.0873 30.1354 17.6902 29.6428 18.2357C29.1639 18.7812 28.5686 19.2549 27.8571 19.6569C27.1455 20.0588 26.3313 20.3459 25.4145 20.5182C25.4145 20.4895 25.4008 20.4464 25.3734 20.389C25.3598 20.3316 25.3529 20.2885 25.3529 20.2598C24.655 20.389 23.9777 20.4536 23.3209 20.4536C22.363 20.4536 21.4256 20.2957 20.5088 19.9799C19.592 19.6784 18.771 19.2334 18.0457 18.6448C17.3342 18.0706 16.7595 17.36 16.3216 16.5131C15.87 15.6661 15.6442 14.6971 15.6442 13.6062C15.6442 12.9602 15.7332 12.3285 15.9111 11.7113C16.0889 11.094 16.3284 10.5198 16.6295 9.98865C16.6021 10.0174 16.5747 10.0317 16.5474 10.0317C16.52 10.0317 16.5063 9.99582 16.5063 9.92405C16.1779 10.4552 15.9247 11.0294 15.7468 11.6467ZM23.0951 20.1306C22.5614 20.0588 22.0072 19.9511 21.4325 19.8076C20.8714 19.6784 20.3173 19.4918 19.7699 19.2477C19.2225 19.0181 18.7094 18.7238 18.2305 18.3649C17.7652 18.006 17.3615 17.5825 17.0194 17.0945C17.3479 17.5825 17.7378 18.0132 18.1894 18.3864C18.6547 18.7597 19.161 19.0683 19.7083 19.3123C20.2557 19.5707 20.8304 19.7645 21.4325 19.8937C22.0483 20.0373 22.6572 20.1234 23.2593 20.1521C23.2182 20.1378 23.1635 20.1306 23.0951 20.1306ZM21.9046 18.408C21.3846 18.2931 20.8783 18.1209 20.3857 17.8912C19.9067 17.6615 19.4757 17.3672 19.0925 17.0083C19.462 17.3816 19.8862 17.683 20.3651 17.9127C20.8441 18.1424 21.3572 18.3075 21.9046 18.408ZM23.7108 20.6258C23.4782 20.6258 23.2388 20.6115 22.9924 20.5828C22.7598 20.5684 22.5204 20.5469 22.274 20.5182C22.5067 20.5182 22.7667 20.5325 23.054 20.5612C23.3551 20.59 23.6835 20.6043 24.0393 20.6043H24.4087C24.2993 20.6187 24.1829 20.6258 24.0598 20.6258H23.7108ZM21.9046 18.408C22.2056 18.4797 22.5067 18.53 22.8077 18.5587C23.1224 18.6018 23.4372 18.6233 23.7519 18.6233C24.094 18.6233 24.4429 18.6018 24.7987 18.5587C24.6482 18.573 24.5045 18.5802 24.3677 18.5802C24.2308 18.5946 24.0872 18.6018 23.9366 18.6018C23.2388 18.6018 22.5614 18.5372 21.9046 18.408ZM22.1509 20.5182L21.1451 20.3244C20.8988 20.2526 20.6525 20.1808 20.4062 20.1091C20.1736 20.0373 19.9409 19.9511 19.7083 19.8507C20.1325 20.0086 20.5567 20.1378 20.9809 20.2383C21.4051 20.3531 21.8225 20.4464 22.233 20.5182H22.1509ZM16.4653 9.94558C16.4789 9.94558 16.4926 9.9384 16.5063 9.92405C16.4926 9.92405 16.4789 9.93122 16.4653 9.94558ZM27.2413 17.7404C27.2686 17.7261 27.296 17.7046 27.3234 17.6758C27.296 17.6902 27.2686 17.7117 27.2413 17.7404Z" fill="#1E1E1E"/>
</g>
<defs>
<filter id="filter0_d_15_80" x="0.376465" y="0.696671" width="43" height="66.75" filterUnits="userSpaceOnUse" color-interpolation-filters="sRGB">
<feFlood flood-opacity="0" result="BackgroundImageFix"/>
<feColorMatrix in="SourceAlpha" type="matrix" values="0 0 0 0 0 0 0 0 0 0 0 0 0 0 0 0 0 0 127 0" result="hardAlpha"/>
<feOffset dy="4"/>
<feGaussianBlur stdDeviation="2"/>
<feComposite in2="hardAlpha" operator="out"/>
<feColorMatrix type="matrix" values="0 0 0 0 0 0 0 0 0 0 0 0 0 0 0 0 0 0 0.25 0"/>
<feBlend mode="normal" in2="BackgroundImageFix" result="effect1_dropShadow_15_80"/>
<feBlend mode="normal" in="SourceGraphic" in2="effect1_dropShadow_15_80" result="shape"/>
</filter>
</defs>
</svg>
