<svg width="219" height="102" viewBox="0 0 219 102" fill="none" xmlns="http://www.w3.org/2000/svg">
<g filter="url(#filter0_d_24_82)">
<path d="M189.228 87.4291C191.119 87.4291 192.538 87.621 193.484 88.0048C194.43 88.3886 194.903 88.8044 194.903 89.2521C194.903 89.9557 194.075 90.5633 192.42 91.0751C190.765 91.6507 188.991 92.1944 187.099 92.7061C184.262 92.2584 180.833 91.8426 176.813 91.4588C173.03 91.0751 169.01 90.7233 164.753 90.4034C160.497 90.1476 156.241 89.9557 151.984 89.8278C147.728 89.6998 143.826 89.6359 140.279 89.6359H138.506L122.899 89.7318C128.101 89.8598 133.303 89.9237 138.506 89.9237C143.944 89.9877 149.265 90.1156 154.467 90.3075C159.906 90.4994 165.108 90.8192 170.074 91.267C175.276 91.7147 180.124 92.3543 184.617 93.1859L178.587 93.8575C175.276 93.8575 172.675 93.6976 170.783 93.3778C168.892 93.0579 166.29 92.8341 162.98 92.7061L159.078 91.6507C152.221 91.6507 145.481 91.5228 138.86 91.267C132.239 91.0751 125.5 90.9791 118.643 90.9791C112.967 90.9791 107.529 91.171 102.326 91.5548V92.1305C92.1585 92.2584 82.1087 92.4183 72.1771 92.6102C62.2456 92.8021 52.1958 92.994 42.0278 93.1859C39.4266 92.866 36.589 92.6102 33.515 92.4183C30.6774 92.2904 27.8398 92.2264 25.0022 92.2264C25.0022 92.0985 25.0022 91.9706 25.0022 91.8426C25.2387 91.7787 25.3569 91.6827 25.3569 91.5548C25.3569 91.0431 25.1205 90.4674 24.6475 89.8278L29.2586 88.7724L31.7415 88.8683V87.8129C29.1404 87.4931 26.6575 87.0134 24.2928 86.3737C22.1646 85.7981 21.1005 85.0625 21.1005 84.167C21.1005 83.4634 21.9282 82.8877 23.5834 82.44C25.2387 82.0562 27.2487 81.7683 29.6133 81.5764C32.2144 81.3846 34.8156 81.2566 37.4167 81.1927C40.0178 81.1927 42.2642 81.1927 44.1559 81.1927C55.5063 81.1927 66.8566 81.0328 78.207 80.7129C89.7938 80.4571 101.262 80.3292 112.613 80.3292C114.504 80.3292 117.815 80.3611 122.544 80.4251C127.274 80.553 132.594 80.681 138.506 80.8089C144.417 81.0008 150.447 81.2247 156.595 81.4805C162.98 81.7364 168.773 82.0242 173.976 82.344C179.178 82.6638 183.434 83.0156 186.745 83.3994C190.292 83.7832 192.065 84.167 192.065 84.5508C192.065 84.7427 191.829 85.0305 191.356 85.4143C181.424 84.5827 171.374 83.9751 161.206 83.5913C151.275 83.2715 141.343 82.8877 131.412 82.44C141.107 83.0796 150.802 83.5913 160.497 83.9751C170.665 84.3589 180.715 84.9985 190.646 85.894L189.228 87.4291ZM158.014 92.6102C150.447 92.3543 142.762 92.1625 134.959 92.0345C127.155 91.9706 119.234 91.9386 111.194 91.9386C113.559 91.8746 115.923 91.8426 118.288 91.8426H125.382C130.821 91.8426 136.259 91.8746 141.698 91.9386C147.137 92.0665 152.575 92.2904 158.014 92.6102Z" fill="#1E1E1E"/>
<path d="M31.7882 6.38414C29.8967 6.35111 28.4815 6.13447 27.5425 5.73423C26.6035 5.33399 26.1379 4.91003 26.1457 4.46235C26.1579 3.75886 26.996 3.16575 28.66 2.68303C30.325 2.13635 32.1077 1.6237 34.0081 1.14511C36.8374 1.64233 40.2584 2.11791 44.271 2.57183C48.0472 3.02162 52.0604 3.44357 56.3105 3.83766C60.5618 4.16781 64.8142 4.43399 69.0677 4.63623C73.3212 4.83846 77.2212 4.97055 80.7676 5.03249L82.5408 5.06346L98.1469 5.24005C92.9476 5.0213 87.7473 4.8665 82.5459 4.77566C77.1091 4.61673 71.7916 4.39592 66.5935 4.11322C61.159 3.82638 55.9631 3.41577 51.0059 2.88138C45.8123 2.34286 40.9766 1.61867 36.499 0.708812L42.5396 0.142578C45.8497 0.200388 48.4476 0.405706 50.3334 0.758509C52.2193 1.11131 54.8161 1.38057 58.1239 1.56629L62.0066 2.68966C68.8631 2.80941 75.5991 3.055 82.2146 3.42644C88.8313 3.73392 95.5679 3.94753 102.424 4.06728C108.099 4.16638 113.54 4.06949 118.748 3.77661L118.758 3.20103C128.927 3.25068 138.978 3.26628 148.911 3.24784C158.845 3.22941 168.896 3.21305 179.066 3.19875C181.661 3.56394 184.494 3.8693 187.564 4.11484C190.399 4.2923 193.235 4.4058 196.072 4.45536C196.07 4.58326 196.068 4.71117 196.066 4.83908C195.828 4.89891 195.708 4.99277 195.706 5.12068C195.697 5.63231 195.923 6.21203 196.385 6.85983L191.756 7.83455L189.275 7.69526L189.257 8.7505C191.852 9.11569 194.326 9.6387 196.679 10.3195C198.797 10.9323 199.848 11.6863 199.833 12.5817C199.82 13.2852 198.983 13.8463 197.32 14.2651C195.658 14.6199 193.644 14.8726 191.276 15.0232C188.672 15.1696 186.069 15.2521 183.467 15.2706C180.867 15.2252 178.62 15.186 176.729 15.153C165.38 14.9547 154.029 14.9164 142.675 15.038C131.085 15.0915 119.616 15.0191 108.268 14.8209C106.376 14.7879 103.067 14.6981 98.3392 14.5515C93.6128 14.3411 88.2954 14.1202 82.3869 13.8891C76.4795 13.594 70.4544 13.2649 64.3117 12.9017C57.9326 12.5344 52.1451 12.1454 46.9492 11.7348C41.7533 11.3242 37.5037 10.8981 34.2004 10.4566C30.6607 10.0109 28.8941 9.59624 28.9008 9.21252C28.9042 9.02066 29.1456 8.737 29.6252 8.36153C39.5407 9.36636 49.5784 10.1494 59.7382 10.7107C69.6626 11.2039 79.586 11.761 89.5082 12.3822C79.8258 11.5733 70.1411 10.8924 60.4541 10.3394C50.2944 9.77808 40.2573 8.96305 30.3428 7.89427L31.7882 6.38414ZM63.0873 1.74893C70.6486 2.13688 78.3292 2.46294 86.1291 2.72712C93.9302 2.92734 101.85 3.09764 109.889 3.23803C107.523 3.26069 105.158 3.25139 102.794 3.21009L95.7012 3.08622C90.2633 2.99124 84.826 2.86429 79.3892 2.70536C73.9535 2.48248 68.5196 2.16367 63.0873 1.74893Z" fill="#1E1E1E"/>
<path d="M31.9043 93.3693C28.7079 93.3693 25.7992 92.7616 23.1782 91.5463C20.4932 90.395 18.1279 88.7959 16.0823 86.749C13.9727 84.7022 12.1827 82.3355 10.7124 79.6491C9.17811 77.0265 7.93153 74.2441 6.97262 71.3018C5.94978 68.4234 5.21462 65.4811 4.76713 62.4748C4.25571 59.4685 4 56.6221 4 53.9356C4 51.3771 4.19178 48.5307 4.57535 45.3965C4.89498 42.3262 5.4064 39.224 6.1096 36.0898C6.8128 32.9555 7.70778 29.9173 8.79455 26.9749C9.81738 24.0966 11.032 21.57 12.4384 19.3952C13.0137 18.4997 14.0366 17.1885 15.5069 15.4614C16.9133 13.7344 18.4795 12.0074 20.2056 10.2804C21.8677 8.4894 23.5298 6.92229 25.1919 5.57905C26.854 4.17185 28.1645 3.43626 29.1234 3.3723L29.9864 4.13986C26.6622 6.63445 23.7855 9.16102 21.3563 11.7196C18.8631 14.2142 16.7215 16.9006 14.9316 19.779C13.0777 22.6574 11.5434 25.7596 10.3288 29.0857C9.11418 32.4758 8.09135 36.1857 7.26029 40.2154C8.2192 36.1217 9.30596 32.4118 10.5206 29.0857C11.6713 25.8236 13.1416 22.7853 14.9316 19.9709C16.6576 17.1565 18.7672 14.502 21.2604 12.0074C23.7535 9.51282 26.7261 7.05022 30.1782 4.61959L31.0412 5.96283C31.4248 5.38716 32.0641 4.87545 32.959 4.4277C33.7901 3.97995 34.5572 3.75608 35.2604 3.75608C36.475 3.75608 37.0824 4.29977 37.0824 5.38716C37.0824 5.96283 36.9865 6.53851 36.7947 7.11418C36.539 7.68985 36.2513 8.23354 35.9317 8.74525C33.0549 10.6642 30.4979 12.5831 28.2604 14.502C25.959 16.3569 23.9773 18.3718 22.3152 20.5466C20.5891 22.7853 19.1508 25.2159 18.0001 27.8384C16.8494 30.5249 15.9224 33.6271 15.2192 37.1452C15.9224 33.883 16.8174 30.9407 17.9042 28.3182C18.9909 25.7596 20.3654 23.393 22.0275 21.2182C23.6257 19.1074 25.5115 17.1245 27.6851 15.2696C29.8586 13.4786 32.3837 11.7835 35.2604 10.1844C34.4294 11.5277 33.4385 12.743 32.2878 13.8304L28.8357 16.9006C27.6851 17.988 26.5663 19.0754 25.4796 20.1628C24.3289 21.2502 23.338 22.4655 22.5069 23.8087L21.6439 23.233C19.2786 27.6465 17.5526 32.3799 16.4658 37.433C15.3151 42.5501 14.7398 47.6032 14.7398 52.5924C14.7398 53.9996 14.8037 55.4068 14.9316 56.814C15.0594 58.2212 15.2832 59.5964 15.6028 60.9397C15.6028 60.7478 15.6667 60.6518 15.7946 60.6518C15.9864 60.6518 16.0823 60.6838 16.0823 60.7478C15.9544 59.3406 15.8585 57.9334 15.7946 56.5262C15.6667 55.119 15.6028 53.6478 15.6028 52.1127C15.6028 47.5073 16.0503 42.9019 16.9453 38.2965C17.7763 33.7551 19.2147 29.6934 21.2604 26.1114C20.3015 27.9664 19.4704 29.9492 18.7672 32.06C18.064 34.2988 17.5206 36.6015 17.1371 38.9681C16.6896 41.3348 16.4019 43.6695 16.274 45.9721C16.0823 48.2748 15.9864 50.4816 15.9864 52.5924C15.9864 55.7906 16.274 59.0847 16.8494 62.4748C17.4247 65.9288 18.4476 69.095 19.9179 71.9734C21.3882 74.9158 23.37 77.4103 25.8631 79.4572C28.2924 81.504 31.3928 82.7833 35.1645 83.295C35.1006 83.4869 35.0686 83.7747 35.0686 84.1585V85.118C35.0686 85.5017 34.9728 85.8216 34.781 86.0774C34.5892 86.3333 34.1417 86.4612 33.4385 86.4612C32.9271 86.4612 32.4157 86.3972 31.9043 86.2693C31.3289 86.1414 30.7855 86.0135 30.2741 85.8855L30.0823 86.845C30.4659 86.9729 31.0412 87.1968 31.8084 87.5166C32.5755 87.8364 33.3746 88.2202 34.2056 88.668C34.9728 89.1157 35.644 89.5634 36.2193 90.0112C36.7947 90.5229 37.0824 91.0346 37.0824 91.5463C37.0824 91.9941 36.8906 92.3459 36.507 92.6017C36.0595 92.8576 35.5481 93.0175 34.9728 93.0815C34.3974 93.2094 33.8221 93.2733 33.2467 93.2733C32.6714 93.3373 32.2239 93.3693 31.9043 93.3693Z" fill="#1E1E1E"/>
<path d="M187.096 3.37291C190.292 3.37291 193.201 3.98056 195.822 5.19587C198.507 6.34722 200.872 7.94631 202.918 9.99315C205.027 12.04 206.817 14.4067 208.288 17.0931C209.822 19.7156 211.068 22.4981 212.027 25.4404C213.05 28.3188 213.785 31.2611 214.233 34.2674C214.744 37.2737 215 40.1201 215 42.8066C215 45.3651 214.808 48.2115 214.425 51.3457C214.105 54.416 213.594 57.5182 212.89 60.6524C212.187 63.7867 211.292 66.8249 210.205 69.7673C209.183 72.6456 207.968 75.1722 206.562 77.347C205.986 78.2425 204.963 79.5537 203.493 81.2807C202.087 83.0078 200.52 84.7348 198.794 86.4618C197.132 88.2528 195.47 89.8199 193.808 91.1631C192.146 92.5703 190.835 93.3059 189.877 93.3699L189.013 92.6023C192.338 90.1077 195.214 87.5812 197.644 85.0226C200.137 82.528 202.278 79.8416 204.068 76.9632C205.922 74.0848 207.457 70.9826 208.671 67.6565C209.886 64.2664 210.909 60.5565 211.74 56.5268C210.781 60.6205 209.694 64.3303 208.479 67.6565C207.329 70.9186 205.858 73.9569 204.068 76.7713C202.342 79.5857 200.233 82.2402 197.74 84.7348C195.246 87.2294 192.274 89.692 188.822 92.1226L187.959 90.7794C187.575 91.355 186.936 91.8667 186.041 92.3145C185.21 92.7622 184.443 92.9861 183.739 92.9861C182.525 92.9861 181.918 92.4424 181.918 91.355C181.918 90.7794 182.013 90.2037 182.205 89.628C182.461 89.0523 182.749 88.5087 183.068 87.9969C185.945 86.078 188.502 84.1591 190.74 82.2402C193.041 80.3853 195.023 78.3704 196.685 76.1956C198.411 73.9569 199.849 71.5263 201 68.9038C202.151 66.2173 203.077 63.115 203.781 59.597C203.077 62.8592 202.183 65.8015 201.096 68.424C200.009 70.9826 198.635 73.3492 196.972 75.524C195.374 77.6348 193.488 79.6177 191.315 81.4726C189.141 83.2636 186.616 84.9587 183.739 86.5578C184.571 85.2145 185.561 83.9992 186.712 82.9118L190.164 79.8416C191.315 78.7542 192.434 77.6668 193.52 76.5794C194.671 75.492 195.662 74.2767 196.493 72.9335L197.356 73.5091C199.721 69.0956 201.447 64.3623 202.534 59.3092C203.685 54.1921 204.26 49.139 204.26 44.1498C204.26 42.7426 204.196 41.3354 204.068 39.9282C203.941 38.521 203.717 37.1458 203.397 35.8025C203.397 35.9944 203.333 36.0904 203.205 36.0904C203.014 36.0904 202.918 36.0584 202.918 35.9944C203.046 37.4016 203.141 38.8088 203.205 40.216C203.333 41.6232 203.397 43.0944 203.397 44.6295C203.397 49.2349 202.95 53.8403 202.055 58.4457C201.224 62.9871 199.785 67.0488 197.74 70.6308C198.698 68.7758 199.53 66.793 200.233 64.6822C200.936 62.4434 201.479 60.1407 201.863 57.7741C202.31 55.4074 202.598 53.0727 202.726 50.77C202.918 48.4673 203.014 46.2606 203.014 44.1498C203.014 40.9516 202.726 37.6575 202.151 34.2674C201.575 30.8134 200.552 27.6471 199.082 24.7688C197.612 21.8264 195.63 19.3319 193.137 17.285C190.708 15.2382 187.607 13.9589 183.835 13.4472C183.899 13.2553 183.931 12.9675 183.931 12.5837V11.6242C183.931 11.2404 184.027 10.9206 184.219 10.6648C184.411 10.4089 184.858 10.281 185.561 10.281C186.073 10.281 186.584 10.345 187.096 10.4729C187.671 10.6008 188.214 10.7287 188.726 10.8567L188.918 9.89721C188.534 9.76928 187.959 9.54541 187.192 9.22559C186.424 8.90577 185.625 8.52199 184.794 8.07424C184.027 7.62649 183.356 7.17875 182.781 6.731C182.205 6.21929 181.918 5.70758 181.918 5.19587C181.918 4.74812 182.109 4.39632 182.493 4.14047C182.94 3.88462 183.452 3.72471 184.027 3.66074C184.603 3.53281 185.178 3.46885 185.753 3.46885C186.329 3.40489 186.776 3.37291 187.096 3.37291Z" fill="#1E1E1E"/>
<path d="M44.4831 34.7448C44.6538 34.7448 44.7498 34.8514 44.7711 35.0648C44.8138 35.2568 44.8351 35.4488 44.8351 35.6408L44.8031 35.8648C44.7818 35.9928 44.7498 36.1634 44.7071 36.3768C44.6644 36.5688 44.6111 36.7821 44.5471 37.0168C44.5044 37.2514 44.4404 37.4648 44.3551 37.6568C44.0564 38.5954 43.8111 39.5234 43.6191 40.4408C43.4484 41.3581 43.3098 42.2861 43.2031 43.2248C43.0964 44.1421 43.0111 45.0701 42.9471 46.0088C42.8831 46.9474 42.8191 47.8968 42.7551 48.8568C42.8404 47.9821 42.9151 47.0648 42.9791 46.1048C43.0644 45.1448 43.1711 44.1848 43.2991 43.2248C43.4271 42.2434 43.5871 41.2941 43.7791 40.3768C43.9924 39.4381 44.2804 38.5634 44.6431 37.7528C44.3231 39.8008 44.0564 41.8381 43.8431 43.8648C43.6511 45.8914 43.4911 47.9394 43.3631 50.0088L42.9791 50.2008C42.9791 51.5021 42.8511 52.7501 42.5951 53.9448C42.3391 55.1181 42.0511 56.3341 41.7311 57.5928C41.6244 57.5928 41.4964 57.5928 41.3471 57.5928C41.2191 57.6141 41.0911 57.6248 40.9631 57.6248C40.8564 57.6248 40.7071 57.5928 40.5151 57.5288C40.3231 57.4648 40.1204 57.3794 39.9071 57.2728C39.6938 57.1874 39.4698 57.0808 39.2351 56.9528C39.0218 56.8461 38.8404 56.7394 38.6911 56.6328C37.7738 56.0354 36.9524 55.2994 36.2271 54.4248C35.5018 53.5288 34.8511 52.5474 34.2751 51.4808C33.6991 50.4141 33.1871 49.2941 32.7391 48.1208C32.2911 46.9261 31.8644 45.7314 31.4591 44.5368C31.0751 43.3421 30.7018 42.1794 30.3391 41.0488C29.9764 39.8968 29.6138 38.8408 29.2511 37.8808L29.0591 38.0408C29.4218 39.1074 29.7738 40.2701 30.1151 41.5288C30.4778 42.7661 30.8511 44.0354 31.2351 45.3368C31.6404 46.6168 32.0884 47.8861 32.5791 49.1448C33.0911 50.4034 33.6778 51.5768 34.3391 52.6648C35.0218 53.7528 35.8111 54.7234 36.7071 55.5768C37.6031 56.4088 38.6484 57.0594 39.8431 57.5288C38.8191 57.2514 37.9018 56.7821 37.0911 56.1208C36.3018 55.4381 35.5764 54.6381 34.9151 53.7208C34.2751 52.8034 33.6991 51.8114 33.1871 50.7448C32.6964 49.6568 32.2484 48.5581 31.8431 47.4488C31.4378 46.3394 31.0751 45.2514 30.7551 44.1848C30.4351 43.1181 30.1364 42.1474 29.8591 41.2728C29.8591 42.1688 29.9018 43.0434 29.9871 43.8968C30.0938 44.7501 30.1471 45.6141 30.1471 46.4888C30.1471 47.9608 30.1898 49.4434 30.2751 50.9368C30.3604 52.4088 30.4458 53.8808 30.5311 55.3528L29.8271 55.4808C29.6564 55.4808 29.5284 55.3421 29.4431 55.0648C29.3578 54.7661 29.2938 54.4354 29.2511 54.0728C29.2084 53.7101 29.1764 53.3688 29.1551 53.0488C29.1551 52.7074 29.1551 52.4941 29.1551 52.4088H28.7711C28.7711 52.5794 28.7604 52.9208 28.7391 53.4328C28.7391 53.9234 28.7071 54.4354 28.6431 54.9688C28.5791 55.5021 28.4724 55.9821 28.3231 56.4088C28.1951 56.8354 28.0031 57.0488 27.7471 57.0488C27.5764 57.0488 27.4164 56.7714 27.2671 56.2168C27.1178 55.6408 26.9684 54.8941 26.8191 53.9768C26.6698 53.0381 26.5311 51.9821 26.4031 50.8088C26.2751 49.6141 26.1684 48.4088 26.0831 47.1928C25.9978 45.9768 25.9231 44.7928 25.8591 43.6408C25.8164 42.4888 25.7951 41.4754 25.7951 40.6008C25.7951 39.4701 25.8698 38.3501 26.0191 37.2408C26.1898 36.1314 26.4564 35.0328 26.8191 33.9448L30.3391 33.2728C30.4458 33.4221 30.5418 33.5608 30.6271 33.6888C30.7124 33.7954 30.8084 33.9128 30.9151 34.0408C31.5338 34.9368 32.0671 35.9181 32.5151 36.9848C32.9631 38.0301 33.3684 39.1288 33.7311 40.2808C34.0938 41.4114 34.4351 42.5634 34.7551 43.7368C35.0964 44.8888 35.4698 46.0194 35.8751 47.1288C36.2804 48.2168 36.7498 49.2514 37.2831 50.2328C37.8164 51.2141 38.4671 52.0888 39.2351 52.8568C39.3204 52.2381 39.3951 51.4168 39.4591 50.3928C39.5444 49.3688 39.6298 48.2701 39.7151 47.0968C39.8218 45.9234 39.9284 44.7501 40.0351 43.5768C40.1418 42.3821 40.2698 41.3048 40.4191 40.3448C40.5898 39.3634 40.7818 38.5741 40.9951 37.9768C41.2298 37.3581 41.4964 37.0488 41.7951 37.0488L41.9871 37.1768C41.5391 38.4994 41.2298 39.8328 41.0591 41.1768C40.9098 42.5208 40.7924 43.8754 40.7071 45.2408C40.6431 46.6061 40.5578 47.9714 40.4511 49.3368C40.3658 50.6808 40.1631 52.0141 39.8431 53.3368L40.0351 53.4328C40.0564 53.2408 40.0778 53.0488 40.0991 52.8568C40.1204 52.6434 40.1524 52.4408 40.1951 52.2488C40.3658 51.0114 40.4831 49.7741 40.5471 48.5368C40.6324 47.2781 40.7178 46.0194 40.8031 44.7608C40.9098 43.5021 41.0484 42.2541 41.2191 41.0168C41.4111 39.7794 41.6991 38.5634 42.0831 37.3688L42.4031 37.5928C42.5311 37.5074 42.6484 37.3154 42.7551 37.0168C42.8618 36.6968 42.9898 36.3768 43.1391 36.0568C43.2884 35.7154 43.4698 35.4168 43.6831 35.1608C43.8964 34.8834 44.1631 34.7448 44.4831 34.7448ZM41.2191 57.3368C41.4538 56.5688 41.6671 55.8008 41.8591 55.0328C42.0511 54.2648 42.2004 53.4754 42.3071 52.6648C42.1791 53.4328 42.0084 54.1901 41.7951 54.9368C41.6031 55.6621 41.4111 56.3981 41.2191 57.1448C39.9391 56.6968 38.8938 56.2061 38.0831 55.6728C37.2938 55.1394 36.6218 54.5314 36.0671 53.8488C35.5338 53.1661 35.0538 52.3981 34.6271 51.5448C34.2858 50.8834 33.9124 50.1474 33.5071 49.3368C33.7631 49.8701 33.9871 50.3608 34.1791 50.8088C34.4778 51.4274 34.7658 52.0034 35.0431 52.5368C35.3418 53.0488 35.6511 53.5181 35.9711 53.9448C36.2911 54.3501 36.6858 54.7448 37.1551 55.1288C37.6244 55.4914 38.1791 55.8541 38.8191 56.2168C39.4804 56.5581 40.2804 56.9314 41.2191 57.3368ZM39.7471 54.1368C39.5338 53.9874 39.2564 53.6994 38.9151 53.2728C38.5951 52.8461 38.2644 52.4088 37.9231 51.9608C37.6031 51.4914 37.3151 51.0754 37.0591 50.7128C36.8031 50.3501 36.6538 50.1581 36.6111 50.1368C36.9524 50.9261 37.3898 51.6514 37.9231 52.3128C38.4778 52.9528 39.0538 53.5608 39.6511 54.1368H39.7471Z" fill="#1E1E1E"/>
<path d="M59.9981 57.4648C59.1874 57.7421 58.5688 57.8914 58.1421 57.9128C57.7154 57.9554 57.3421 57.9874 57.0221 58.0088C55.8274 58.0088 54.7501 57.7848 53.7901 57.3368C52.8301 56.8888 52.0088 56.2808 51.3261 55.5128C50.6434 54.7448 50.1101 53.8488 49.7261 52.8248C49.3634 51.7794 49.1821 50.6701 49.1821 49.4968C49.1821 48.8141 49.2461 48.1101 49.3741 47.3848C49.5021 46.6381 49.6941 45.9128 49.9501 45.2088C50.2061 44.4834 50.5368 43.8114 50.9421 43.1928C51.3261 42.5741 51.7848 42.0194 52.3181 41.5288C51.7634 41.9768 51.2941 42.5101 50.9101 43.1288C50.5048 43.7474 50.1634 44.4194 49.8861 45.1448C49.6088 45.8488 49.4061 46.5848 49.2781 47.3528C49.1501 48.0994 49.0861 48.8248 49.0861 49.5288C49.0861 50.4248 49.2248 51.3848 49.5021 52.4088C49.8008 53.4114 50.2701 54.3501 50.9101 55.2248C51.5501 56.0781 52.3714 56.7928 53.3741 57.3688C54.3981 57.9448 55.6354 58.2328 57.0861 58.2328C57.7688 58.2328 58.4834 58.1368 59.2301 57.9448C58.4194 58.4781 57.5128 58.7448 56.5101 58.7448C55.6994 58.7448 54.9314 58.6168 54.2061 58.3608C53.5021 58.1261 52.8408 57.7848 52.2221 57.3368C51.6248 56.9101 51.0808 56.3981 50.5901 55.8008C50.0994 55.2034 49.6834 54.5634 49.3421 53.8808L49.6301 53.6248C49.2674 52.8994 49.0008 52.1741 48.8301 51.4488C48.6808 50.7234 48.6061 49.9874 48.6061 49.2408C48.6061 48.1528 48.7554 47.1074 49.0541 46.1048C49.3741 45.1021 49.7901 44.1528 50.3021 43.2568L51.0701 42.2008C51.1981 41.9661 51.3794 41.7314 51.6141 41.4968C51.8701 41.2621 52.1474 41.0381 52.4461 40.8248C52.7448 40.5901 53.0541 40.3874 53.3741 40.2168C53.7154 40.0248 54.0354 39.8541 54.3341 39.7048C55.1021 39.3208 55.8701 38.9794 56.6381 38.6808C57.4061 38.3608 58.3021 38.1261 59.3261 37.9768L59.1981 37.8808C57.2354 38.0728 55.5714 38.5528 54.2061 39.3208C52.8408 40.0674 51.7314 40.9848 50.8781 42.0728C50.0248 43.1608 49.4061 44.3554 49.0221 45.6568C48.6381 46.9368 48.4461 48.1954 48.4461 49.4328C48.4461 50.0941 48.4994 50.7661 48.6061 51.4488C48.7341 52.1101 48.9154 52.7714 49.1501 53.4328C48.6168 52.1528 48.3501 50.7981 48.3501 49.3688C48.3501 47.9608 48.5848 46.5634 49.0541 45.1768C49.5234 43.7901 50.2594 42.5101 51.2621 41.3368C52.5421 40.1634 53.9394 39.2674 55.4541 38.6488C56.9688 38.0088 58.4301 37.6888 59.8381 37.6888C60.2861 37.6888 60.7448 37.7634 61.2141 37.9128C61.6834 38.0621 62.1101 38.2968 62.4941 38.6168C62.8781 38.9154 63.1874 39.3101 63.4221 39.8008C63.6781 40.2914 63.8061 40.8888 63.8061 41.5928C63.8061 42.1688 63.6674 42.8728 63.3901 43.7048C63.1128 44.5368 62.6968 45.3474 62.1421 46.1368C61.6088 46.9048 60.9368 47.5661 60.1261 48.1208C59.3154 48.6541 58.3768 48.9208 57.3101 48.9208H56.2541C55.4648 48.7501 54.7394 48.5581 54.0781 48.3448C53.4381 48.1101 52.8301 47.9288 52.2541 47.8008C52.1688 48.1421 52.1154 48.4728 52.0941 48.7928C52.0941 49.0914 52.0941 49.3901 52.0941 49.6888C52.0941 50.3074 52.1581 50.9154 52.2861 51.5128C52.4354 52.0888 52.6594 52.6221 52.9581 53.1128C53.2568 53.6034 53.6301 54.0194 54.0781 54.3608C54.5474 54.6808 55.1128 54.8834 55.7741 54.9688C56.1794 55.0541 56.5314 55.1074 56.8301 55.1288C57.1288 55.1288 57.3741 55.1394 57.5661 55.1608C57.7794 55.1608 57.9288 55.1928 58.0141 55.2568C58.1208 55.2994 58.1741 55.3954 58.1741 55.5448C57.9608 55.6088 57.7368 55.6514 57.5021 55.6728C57.2888 55.6941 57.0648 55.7048 56.8301 55.7048C56.0834 55.7048 55.4114 55.5874 54.8141 55.3528C54.2168 55.0968 53.7048 54.8088 53.2781 54.4888C53.7688 54.9794 54.3554 55.3314 55.0381 55.5448C55.7208 55.7368 56.3928 55.8328 57.0541 55.8328C57.4168 55.8328 57.7901 55.8008 58.1741 55.7368C58.1314 55.8648 58.1101 55.9394 58.1101 55.9608C58.1101 56.0888 58.1634 56.1741 58.2701 56.2168C58.3554 56.1954 58.5048 56.1421 58.7181 56.0568C58.9314 55.9501 59.1448 55.8541 59.3581 55.7688C59.5928 55.6621 59.8168 55.5768 60.0301 55.5128C60.2434 55.4274 60.3928 55.3848 60.4781 55.3848C60.5848 55.3848 60.6808 55.4061 60.7661 55.4488C60.8514 55.4701 60.8941 55.5874 60.8941 55.8008C60.8941 56.0141 60.8194 56.2701 60.6701 56.5688C60.5208 56.8674 60.2968 57.1661 59.9981 57.4648ZM55.5821 44.7928L56.2861 44.9208C56.5208 44.9634 56.7341 44.9848 56.9261 44.9848C57.1394 44.9848 57.3848 44.9208 57.6621 44.7928C57.9608 44.6434 58.2488 44.4408 58.5261 44.1848C58.8248 43.9288 59.0808 43.6088 59.2941 43.2248C59.5288 42.8408 59.6994 42.4034 59.8061 41.9128L59.8701 41.7208C59.5714 41.7208 59.1234 41.7954 58.5261 41.9448C57.9288 42.0941 57.3101 42.2968 56.6701 42.5528C56.0301 42.7874 55.4328 43.0754 54.8781 43.4168C54.3234 43.7368 53.9394 44.0888 53.7261 44.4728C54.0461 44.5368 54.3554 44.6008 54.6541 44.6648C54.9741 44.7074 55.2834 44.7501 55.5821 44.7928ZM54.1101 47.1608C54.1528 47.1181 54.1741 47.0541 54.1741 46.9688C54.1954 46.8834 54.2061 46.8194 54.2061 46.7768L52.7021 46.2328L52.5421 46.6808L54.1101 47.1608ZM53.2141 54.4248C53.0648 54.2541 52.9154 54.0834 52.7661 53.9128C52.6381 53.7634 52.5314 53.6141 52.4461 53.4648C52.6381 53.8274 52.8941 54.1474 53.2141 54.4248Z" fill="#1E1E1E"/>
<path d="M88.4858 40.2808C88.0165 41.1768 87.4618 42.3821 86.8218 43.8968C86.1818 45.3901 85.4778 46.9688 84.7098 48.6328C85.3285 47.3954 85.9258 46.1688 86.5018 44.9528C87.0992 43.7368 87.7285 42.4674 88.3898 41.1448C88.1765 42.0621 87.9205 42.9261 87.6218 43.7368C87.3445 44.5261 87.0245 45.2941 86.6618 46.0408C86.3205 46.7874 85.9579 47.5448 85.5739 48.3128C85.1899 49.0808 84.8059 49.8914 84.4219 50.7448L83.8778 51.0648C83.5152 51.9394 83.1312 52.8248 82.7258 53.7208C82.3418 54.5954 81.8725 55.4274 81.3178 56.2168C80.7845 57.0061 80.1552 57.7208 79.4298 58.3608C78.7045 59.0008 77.8512 59.5128 76.8699 59.8968C76.5498 59.7048 76.2192 59.4914 75.8778 59.2568C75.5365 59.0221 75.1952 58.8301 74.8539 58.6808C74.8539 58.6594 74.8432 58.6381 74.8218 58.6168C74.8218 58.5954 74.8218 58.5634 74.8218 58.5208C74.8218 58.3501 74.8325 58.0728 74.8539 57.6888C74.8965 57.3261 74.9392 56.9528 74.9818 56.5688C75.0245 56.1848 75.0565 55.8434 75.0779 55.5448C75.1205 55.2248 75.1418 55.0328 75.1418 54.9688L74.9499 55.1608C74.9499 55.3101 74.9285 55.5341 74.8858 55.8328C74.8645 56.1101 74.8219 56.4088 74.7579 56.7288C74.7152 57.0488 74.6725 57.3581 74.6299 57.6568C74.6085 57.9768 74.5978 58.2328 74.5978 58.4248V58.5848L77.0619 60.0888C77.6805 60.0248 78.3312 59.6621 79.0138 59.0008C79.7178 58.3394 80.3898 57.5608 81.0298 56.6648C81.6698 55.7688 82.2458 54.8621 82.7579 53.9448C83.2058 53.1554 83.5578 52.5048 83.8139 51.9928C83.5152 52.6328 83.1525 53.3688 82.7258 54.2008C82.2565 55.1181 81.7232 56.0034 81.1258 56.8568C80.5498 57.7101 79.9205 58.4461 79.2378 59.0648C78.5552 59.7048 77.8405 60.0888 77.0938 60.2168L74.5658 58.7448C74.5232 58.6594 74.5018 58.5634 74.5018 58.4568C74.5018 58.1154 74.5552 57.6461 74.6618 57.0488C74.7685 56.4514 74.8218 55.9501 74.8218 55.5448V55.2888C74.7152 55.3954 74.5552 55.5981 74.3419 55.8968C74.1285 56.1954 73.8832 56.5048 73.6059 56.8248C73.3499 57.1234 73.0832 57.3901 72.8058 57.6248C72.5498 57.8594 72.3365 57.9768 72.1658 57.9768C71.8032 57.7421 71.4618 57.4861 71.1418 57.2088C70.8218 56.9528 70.4912 56.6968 70.1498 56.4408C70.0005 55.7794 69.7765 55.1181 69.4779 54.4568C69.2005 53.7954 68.9018 53.1448 68.5818 52.5048C68.2618 51.8434 67.9632 51.1821 67.6858 50.5208C67.4085 49.8594 67.2165 49.1768 67.1098 48.4728C66.9392 47.4488 66.6725 46.4248 66.3098 45.4008C65.9685 44.3768 65.6698 43.3528 65.4138 42.3288L65.5418 42.3928C65.6485 42.3501 65.7445 42.2861 65.8298 42.2008C65.9365 42.1154 66.0325 42.0728 66.1178 42.0728C66.2458 42.0728 66.3632 42.1901 66.4698 42.4248C66.5765 42.6381 66.6618 42.8941 66.7258 43.1928C66.8112 43.4701 66.8752 43.7474 66.9178 44.0248C66.9818 44.2808 67.0245 44.4514 67.0458 44.5368L67.4298 44.4408C67.3872 43.9714 67.3445 43.5128 67.3018 43.0648C67.2592 42.5954 67.2379 42.1261 67.2379 41.6568V41.3368C67.2379 41.1874 67.2485 41.0274 67.2698 40.8568C67.3125 40.6861 67.3552 40.5368 67.3979 40.4088C67.4619 40.2808 67.5472 40.2168 67.6538 40.2168C67.9098 40.2168 68.1978 40.5688 68.5178 41.2728C68.8378 41.9768 69.1685 42.8408 69.5098 43.8648C69.8512 44.8674 70.1818 45.9234 70.5018 47.0328C70.8432 48.1421 71.1525 49.1128 71.4298 49.9448C71.4938 50.1581 71.5792 50.4141 71.6859 50.7128C71.8139 50.9901 71.9312 51.2674 72.0378 51.5448C72.1445 51.8221 72.2405 52.0781 72.3259 52.3128C72.4325 52.5261 72.4965 52.6754 72.5178 52.7608C72.5818 52.4408 72.6885 52.0034 72.8379 51.4488C72.9872 50.8728 73.1365 50.2754 73.2859 49.6568C73.4565 49.0168 73.6165 48.4194 73.7658 47.8648C73.9365 47.2888 74.0752 46.8514 74.1818 46.5528C74.3525 46.5314 74.5125 46.5208 74.6618 46.5208C74.8112 46.4994 74.9499 46.4888 75.0779 46.4888C75.5045 46.4888 75.8885 46.5421 76.2299 46.6488C76.5712 46.7341 77.0085 46.8834 77.5418 47.0968C77.6912 47.4168 77.8085 47.8221 77.8939 48.3128C77.9792 48.8034 78.0432 49.3261 78.0858 49.8808C78.1498 50.4354 78.1818 51.0008 78.1818 51.5768C78.2032 52.1528 78.2139 52.6861 78.2139 53.1768V54.4568C79.0885 53.1768 79.8458 51.8754 80.4858 50.5528C81.1472 49.2088 81.7979 47.8434 82.4379 46.4568C82.5019 46.3074 82.6085 46.0514 82.7579 45.6888C82.9072 45.3261 83.0779 44.9208 83.2699 44.4728C83.4832 44.0248 83.6965 43.5554 83.9099 43.0648C84.1445 42.5528 84.3685 42.0941 84.5818 41.6888C84.7952 41.2834 84.9872 40.9528 85.1579 40.6968C85.3499 40.4194 85.4992 40.2808 85.6059 40.2808L85.7979 40.3768C85.4565 41.1661 85.1152 41.9234 84.7738 42.6488C84.4538 43.3741 84.1232 44.0888 83.7819 44.7928C83.4619 45.4968 83.1418 46.2221 82.8218 46.9688C82.5018 47.6941 82.1818 48.4514 81.8618 49.2408L85.8939 40.5688L86.2139 40.8568L86.3738 40.7608C86.4165 40.6114 86.4912 40.3981 86.5978 40.1208C86.7258 39.8434 86.8645 39.5661 87.0138 39.2888C87.1845 39.0114 87.3552 38.7661 87.5258 38.5528C87.7178 38.3394 87.9099 38.2328 88.1019 38.2328C88.1872 38.2328 88.2619 38.2754 88.3259 38.3608C88.3899 38.4461 88.4325 38.5528 88.4538 38.6808C88.4965 38.8088 88.5285 38.9368 88.5499 39.0648C88.5712 39.1714 88.5818 39.2568 88.5818 39.3208L88.4858 40.2808ZM73.0938 53.3048C73.2005 52.9634 73.3178 52.5794 73.4458 52.1528C73.5952 51.7048 73.7445 51.2354 73.8939 50.7448C74.0645 50.2541 74.2139 49.7954 74.3419 49.3688C74.4912 48.9208 74.6085 48.5581 74.6938 48.2808C74.7792 47.9821 74.8218 47.8114 74.8218 47.7688V47.7368L74.4698 47.9928H74.3419C74.2352 48.4408 74.1072 48.9208 73.9578 49.4328C73.8085 49.9234 73.6592 50.4248 73.5098 50.9368C73.3605 51.4488 73.2218 51.9608 73.0938 52.4728C72.9872 52.9634 72.9232 53.4221 72.9018 53.8488C72.9232 53.7848 72.9872 53.6034 73.0938 53.3048ZM76.8058 59.4808C77.4032 59.3954 78.0112 59.0648 78.6299 58.4888C79.2699 57.9128 79.8672 57.2621 80.4219 56.5368C80.9765 55.7901 81.4672 55.0434 81.8939 54.2968C82.3419 53.5288 82.6832 52.8994 82.9178 52.4088L83.4618 51.2248C83.0138 52.1208 82.5552 52.9848 82.0858 53.8168C81.5738 54.7128 81.0512 55.5234 80.5179 56.2488C79.9845 56.9741 79.4405 57.5928 78.8858 58.1048C78.3312 58.6168 77.7872 58.9581 77.2539 59.1288L76.6778 59.3848L75.3659 58.4888C75.3659 58.3608 75.3765 58.1581 75.3979 57.8808C75.4405 57.6248 75.4725 57.3474 75.4939 57.0488C75.5365 56.7501 75.5685 56.4621 75.5899 56.1848C75.6325 55.9074 75.6538 55.6728 75.6538 55.4808C75.6325 55.6514 75.6005 55.8861 75.5578 56.1848C75.5152 56.4621 75.4618 56.7394 75.3979 57.0168C75.3552 57.3154 75.3125 57.5928 75.2699 57.8488C75.2485 58.1048 75.2378 58.2968 75.2378 58.4248C75.2378 58.5314 75.2912 58.6381 75.3979 58.7448C75.5258 58.8514 75.6645 58.9474 75.8139 59.0328C75.9845 59.1394 76.1552 59.2354 76.3259 59.3208C76.5179 59.4061 76.6672 59.4808 76.7738 59.5448L76.8058 59.4808ZM81.7979 49.4008C81.2645 50.4888 80.7205 51.5661 80.1658 52.6328C79.6112 53.6994 78.9285 54.6808 78.1179 55.5768V55.6728C78.9285 54.7768 79.6219 53.7848 80.1979 52.6968C80.7739 51.5874 81.3072 50.4888 81.7979 49.4008ZM76.4219 57.0488L76.6459 55.3208L76.1019 56.9848L76.4219 57.0488ZM71.9099 54.9688C71.8459 54.9688 71.7605 55.0328 71.6538 55.1608C71.5685 55.2674 71.4725 55.3954 71.3659 55.5448C71.2592 55.6728 71.1632 55.8114 71.0779 55.9608C70.9925 56.0888 70.9392 56.1741 70.9178 56.2168L70.9499 56.2488C70.9925 56.2274 71.0672 56.1634 71.1739 56.0568C71.2805 55.9288 71.3872 55.8008 71.4939 55.6728C71.6005 55.5234 71.6965 55.3848 71.7818 55.2568C71.8672 55.1288 71.9312 55.0434 71.9738 55.0008L71.9099 54.9688ZM78.2778 57.4008C77.9578 57.2088 77.5952 57.1128 77.1898 57.1128L76.7419 57.1448C76.9765 57.1874 77.2112 57.2408 77.4458 57.3048C77.6805 57.3688 77.9152 57.4008 78.1498 57.4008H78.2778ZM75.5578 54.3288V54.6168C75.5578 54.5741 75.5578 54.5421 75.5578 54.5208C75.5792 54.4568 75.5899 54.3928 75.5899 54.3288H75.5578ZM75.5899 54.9048C75.5899 54.8621 75.5792 54.8301 75.5578 54.8088C75.5578 54.8301 75.5685 54.8621 75.5899 54.9048Z" fill="#1E1E1E"/>
<path d="M119.358 58.0088C119.187 58.0088 118.974 57.9341 118.718 57.7848C118.483 57.6568 118.366 57.4861 118.366 57.2728C118.366 56.9101 118.409 56.5688 118.494 56.2488C118.579 55.9074 118.643 55.5661 118.686 55.2248L118.558 55.3208L118.174 57.1448C117.918 56.7821 117.79 56.4194 117.79 56.0568C117.79 55.9714 117.811 55.8861 117.854 55.8008C117.449 55.9928 117.033 56.1528 116.606 56.2808C116.201 56.4088 115.774 56.4728 115.326 56.4728C114.174 56.4728 113.086 56.3234 112.062 56.0248C111.059 55.7261 110.046 55.3528 109.022 54.9048L108.862 54.4888C107.838 54.0621 106.889 53.4861 106.014 52.7608C105.161 52.0354 104.414 51.2141 103.774 50.2968C103.155 49.3581 102.665 48.3554 102.302 47.2888C101.961 46.2221 101.79 45.1341 101.79 44.0248C101.79 43.0648 101.918 42.1261 102.174 41.2088C102.451 40.2914 102.857 39.4381 103.39 38.6488L103.198 38.5528C102.686 39.3421 102.27 40.1848 101.95 41.0808C101.651 41.9768 101.502 42.9048 101.502 43.8648C101.502 44.8034 101.63 45.7528 101.886 46.7128C102.142 47.6514 102.505 48.5581 102.974 49.4328C103.443 50.3074 103.998 51.1181 104.638 51.8648C105.278 52.5688 105.982 53.1768 106.75 53.6888C106.003 53.2194 105.299 52.6434 104.638 51.9608C103.977 51.2354 103.401 50.4461 102.91 49.5928C102.441 48.7181 102.067 47.8114 101.79 46.8728C101.513 45.9128 101.374 44.9848 101.374 44.0888C101.374 42.5101 101.726 41.0594 102.43 39.7368C103.155 38.3928 104.094 37.2408 105.246 36.2808C106.398 35.3208 107.699 34.5741 109.15 34.0408C110.622 33.4861 112.105 33.2088 113.598 33.2088C114.558 33.2088 115.475 33.3368 116.35 33.5928C117.246 33.8488 118.142 34.1261 119.038 34.4248C118.931 34.4888 118.867 34.5741 118.846 34.6808C118.846 34.7874 118.835 34.8941 118.814 35.0008C118.793 35.0861 118.75 35.1608 118.686 35.2248C118.643 35.2888 118.537 35.3208 118.366 35.3208C118.089 35.3208 117.811 35.2781 117.534 35.1928C117.278 35.1074 117.033 35.0114 116.798 34.9048L116.702 35.3208C116.851 35.3634 117.043 35.4488 117.278 35.5768C117.534 35.7048 117.779 35.8541 118.014 36.0248C118.27 36.1741 118.483 36.3448 118.654 36.5368C118.846 36.7288 118.942 36.9101 118.942 37.0808C118.942 37.3368 118.835 37.4968 118.622 37.5608C118.43 37.6034 118.238 37.6248 118.046 37.6248C117.406 37.6248 116.766 37.5288 116.126 37.3368C115.486 37.1448 114.846 37.0488 114.206 37.0488C113.054 37.0488 111.945 37.2088 110.878 37.5288C109.811 37.8488 108.873 38.3181 108.062 38.9368C107.251 39.5341 106.601 40.2808 106.11 41.1768C105.619 42.0514 105.374 43.0648 105.374 44.2168C105.374 45.3901 105.662 46.4994 106.238 47.5448C106.814 48.5688 107.55 49.4754 108.446 50.2648C109.363 51.0328 110.387 51.6408 111.518 52.0888C112.649 52.5368 113.769 52.7608 114.878 52.7608C114.963 52.7608 115.091 52.7608 115.262 52.7608C115.454 52.7394 115.657 52.7288 115.87 52.7288C116.169 52.7288 116.435 52.7608 116.67 52.8248C116.926 52.8674 117.065 52.9741 117.086 53.1448C116.787 53.1874 116.478 53.2408 116.158 53.3048C115.838 53.3474 115.529 53.3688 115.23 53.3688C114.355 53.3688 113.449 53.2514 112.51 53.0168C113.513 53.3154 114.515 53.4648 115.518 53.4648C115.753 53.4648 115.998 53.4541 116.254 53.4328C116.51 53.4114 116.755 53.3794 116.99 53.3368L117.31 53.7208C117.502 53.6781 117.662 53.6568 117.79 53.6568C117.918 53.6354 118.142 53.5608 118.462 53.4328C118.462 52.7501 118.494 52.0888 118.558 51.4488C118.622 50.7874 118.654 50.1154 118.654 49.4328V48.9848C118.654 48.6008 118.622 48.1954 118.558 47.7688C118.515 47.3208 118.366 46.9688 118.11 46.7128L117.918 46.8088C118.131 47.2994 118.27 47.8221 118.334 48.3768C118.398 48.9314 118.43 49.4861 118.43 50.0408C118.43 50.9581 118.366 51.8434 118.238 52.6968C118.302 51.9928 118.334 51.2888 118.334 50.5848C118.334 50.4354 118.313 50.1474 118.27 49.7208C118.249 49.2728 118.206 48.8248 118.142 48.3768C118.078 47.9074 117.993 47.4914 117.886 47.1288C117.801 46.7661 117.705 46.5848 117.598 46.5848C117.086 46.5848 116.563 46.5421 116.03 46.4568C115.518 46.3714 115.006 46.3288 114.494 46.3288H114.334L113.47 46.3608C113.47 46.2968 113.459 46.2221 113.438 46.1368C113.438 46.0514 113.438 45.9661 113.438 45.8808C113.438 45.7101 113.47 45.5501 113.534 45.4008C113.598 45.2514 113.747 45.1768 113.982 45.1768L114.366 45.2088V44.8248C114.067 44.7394 113.758 44.6008 113.438 44.4088C113.139 44.2168 112.99 43.9394 112.99 43.5768C112.99 43.3208 113.129 43.1181 113.406 42.9688C113.683 42.8194 114.003 42.7128 114.366 42.6488C114.75 42.5634 115.123 42.5101 115.486 42.4888C115.849 42.4674 116.126 42.4568 116.318 42.4568C118.259 42.4568 119.721 42.9581 120.702 43.9608C121.705 44.9634 122.206 46.4354 122.206 48.3768C122.206 49.6568 122.099 50.9368 121.886 52.2168C121.673 53.4754 121.566 54.7448 121.566 56.0248C121.566 56.3021 121.523 56.5581 121.438 56.7928C121.374 57.0274 121.171 57.1448 120.83 57.1448L120.99 54.8408L120.702 57.0488C120.638 57.0488 120.574 57.0488 120.51 57.0488C120.446 57.0701 120.382 57.0808 120.318 57.0808C120.275 57.0808 120.243 57.0701 120.222 57.0488C120.201 57.0488 120.169 57.0488 120.126 57.0488V57.5288C119.955 57.8488 119.699 58.0088 119.358 58.0088ZM117.918 55.4808C117.534 55.5021 117.15 55.5448 116.766 55.6088C116.403 55.6728 116.03 55.7048 115.646 55.7048C114.131 55.7048 112.627 55.4594 111.134 54.9688C109.641 54.4568 108.275 53.7528 107.038 52.8568C105.822 51.9394 104.777 50.8408 103.902 49.5608C103.283 48.6434 102.825 47.6514 102.526 46.5848C102.825 47.8008 103.326 48.8994 104.03 49.8808C104.947 51.2034 106.067 52.3128 107.39 53.2088C108.713 54.1048 110.174 54.7768 111.774 55.2248C113.374 55.6728 114.985 55.8968 116.606 55.8968H116.798C117.011 55.8968 117.214 55.8754 117.406 55.8328C117.598 55.7901 117.769 55.6728 117.918 55.4808ZM105.886 48.6328V48.6968C105.886 48.9101 106.025 49.1661 106.302 49.4648C106.579 49.7634 106.899 50.0621 107.262 50.3608C107.625 50.6381 107.977 50.9048 108.318 51.1608C108.681 51.3954 108.947 51.5554 109.118 51.6408C108.926 51.4914 108.67 51.2994 108.35 51.0648C108.051 50.8301 107.742 50.5741 107.422 50.2968C107.102 50.0194 106.793 49.7421 106.494 49.4648C106.217 49.1661 106.014 48.8888 105.886 48.6328ZM118.878 53.4968C118.921 53.0061 118.985 52.5368 119.07 52.0888C119.155 51.6194 119.198 51.1394 119.198 50.6488C119.198 50.3501 119.187 50.0621 119.166 49.7848C119.145 49.5074 119.102 49.2194 119.038 48.9208C119.038 49.6888 119.027 50.4568 119.006 51.2248C118.985 51.9928 118.921 52.7501 118.814 53.4968H118.878ZM121.598 49.7208C121.342 50.3608 121.225 50.9901 121.246 51.6088C121.267 52.1848 121.235 52.7608 121.15 53.3368C121.257 52.7608 121.342 52.1741 121.406 51.5768C121.491 50.9581 121.555 50.3394 121.598 49.7208ZM102.302 45.3048C102.323 45.4328 102.334 45.5501 102.334 45.6568C102.313 45.5501 102.302 45.4328 102.302 45.3048Z" fill="#1E1E1E"/>
<path d="M136.645 48.5048C136.069 48.5048 135.631 48.4941 135.333 48.4728C135.055 48.4514 134.799 48.4408 134.565 48.4408C133.925 48.4408 133.359 48.4728 132.869 48.5368C132.378 48.6008 131.962 48.7288 131.621 48.9208C131.279 49.1128 131.023 49.3901 130.853 49.7528C130.682 50.1154 130.597 50.5954 130.597 51.1928C130.597 52.0674 130.693 52.7181 130.885 53.1448C131.098 53.5501 131.386 53.8488 131.749 54.0408C132.133 54.2114 132.591 54.3181 133.125 54.3608C133.658 54.4034 134.255 54.4994 134.917 54.6488C135.301 54.6914 135.685 54.7234 136.069 54.7448C136.453 54.7448 136.837 54.7448 137.221 54.7448H139.525C138.458 54.6808 137.391 54.6488 136.325 54.6488C135.279 54.6274 134.33 54.5314 133.477 54.3608C132.645 54.1901 131.962 53.8914 131.429 53.4648C130.917 53.0381 130.661 52.3874 130.661 51.5128C130.661 50.8088 130.746 50.2754 130.917 49.9128C131.109 49.5288 131.354 49.2514 131.653 49.0808C131.973 48.8888 132.346 48.7821 132.773 48.7608C133.199 48.7181 133.658 48.6968 134.149 48.6968C134.746 48.6968 135.354 48.7288 135.973 48.7928C135.482 48.9421 134.981 49.0594 134.469 49.1448C133.978 49.2088 133.519 49.2834 133.093 49.3688C132.666 49.4328 132.293 49.5288 131.973 49.6568C131.674 49.7634 131.471 49.9234 131.365 50.1368V51.5768L131.109 51.7048C131.194 52.2381 131.269 52.6434 131.333 52.9208C131.418 53.1768 131.631 53.3794 131.973 53.5288C132.314 53.6568 132.858 53.7634 133.605 53.8488C134.373 53.9341 135.482 54.0728 136.933 54.2648H139.237C139.642 54.2648 139.877 54.2541 139.941 54.2328C140.026 54.1901 140.079 54.1688 140.101 54.1688L139.813 52.4408C139.77 52.0141 139.717 51.6301 139.653 51.2888C139.589 50.9474 139.503 50.5848 139.397 50.2008C139.375 50.2648 139.311 50.2968 139.205 50.2968C139.311 50.6594 139.397 51.0434 139.461 51.4488C139.546 51.8541 139.61 52.2381 139.653 52.6008C139.717 52.9634 139.759 53.2728 139.781 53.5288C139.823 53.7848 139.866 53.9341 139.909 53.9768L139.717 54.0408C139.674 54.0621 139.61 54.0728 139.525 54.0728H139.333C139.183 54.0728 139.013 54.0621 138.821 54.0408C138.629 53.9981 138.383 53.9768 138.085 53.9768H137.029C136.197 53.9768 135.429 53.9341 134.725 53.8488C134.063 53.7634 133.487 53.6568 132.997 53.5288C133.487 53.6354 134.085 53.7208 134.789 53.7848C135.535 53.8701 136.229 53.9128 136.869 53.9128C137.146 53.9128 137.434 53.9128 137.733 53.9128C138.053 53.8914 138.394 53.8808 138.757 53.8808H139.813C139.749 53.8168 139.674 53.7848 139.589 53.7848H139.525C139.439 52.3128 139.247 50.9048 138.949 49.5608C138.65 48.2168 138.17 47.0434 137.509 46.0408C136.847 45.0168 135.983 44.2061 134.917 43.6088C133.85 42.9901 132.517 42.6808 130.917 42.6808C130.469 42.6808 130.021 42.7128 129.573 42.7768C129.125 42.8408 128.666 42.9261 128.197 43.0328C128.239 42.9901 128.261 42.9474 128.261 42.9048C128.261 42.7981 128.218 42.7021 128.133 42.6168C128.047 42.5101 128.005 42.4034 128.005 42.2968C128.005 42.1688 128.133 42.0514 128.389 41.9448C128.666 41.8168 129.242 41.6994 130.117 41.5928C130.074 41.5501 130.042 41.4861 130.021 41.4008C130.021 41.3154 130.021 41.2514 130.021 41.2088C128.869 41.2088 127.973 41.1874 127.333 41.1448C126.693 41.0808 126.373 40.9208 126.373 40.6648C126.373 40.5581 126.501 40.4088 126.757 40.2168C127.034 40.0248 127.418 39.8434 127.909 39.6728C128.399 39.4808 128.986 39.3208 129.669 39.1928C130.373 39.0434 131.151 38.9688 132.005 38.9688C133.647 38.9688 135.055 39.2248 136.229 39.7368C137.402 40.2274 138.383 40.8888 139.173 41.7208C139.983 42.5314 140.634 43.4594 141.125 44.5048C141.637 45.5501 142.042 46.6061 142.341 47.6728C142.661 48.7181 142.895 49.7421 143.045 50.7448C143.194 51.7261 143.333 52.5794 143.461 53.3048C143.461 53.4328 143.461 53.5608 143.461 53.6888C143.482 53.8168 143.493 53.9661 143.493 54.1368C143.493 54.7554 143.375 55.2994 143.141 55.7688C142.927 56.2168 142.618 56.5901 142.213 56.8888C141.829 57.2088 141.37 57.4434 140.837 57.5928C140.325 57.7634 139.77 57.8488 139.173 57.8488C138.703 57.8488 138.095 57.8381 137.349 57.8168C136.602 57.7954 135.887 57.7314 135.205 57.6248C134.757 57.5181 134.266 57.4328 133.733 57.3688C133.199 57.3261 132.655 57.2408 132.101 57.1128C131.546 56.9848 131.002 56.8034 130.469 56.5688C129.957 56.3341 129.487 55.9821 129.061 55.5128C128.655 55.0221 128.325 54.3928 128.069 53.6248C127.834 52.8568 127.717 51.8861 127.717 50.7128C127.717 49.6034 127.973 48.7181 128.485 48.0568C128.997 47.3741 129.605 46.8514 130.309 46.4888C131.034 46.1048 131.77 45.8594 132.517 45.7528C133.263 45.6248 133.871 45.5608 134.341 45.5608C134.938 45.5608 135.333 45.6034 135.525 45.6888C135.717 45.7741 135.813 45.8594 135.813 45.9448C135.813 46.0088 135.802 46.0621 135.781 46.1048C135.247 46.1048 134.565 46.1261 133.733 46.1688C132.901 46.2114 132.09 46.3501 131.301 46.5848C130.533 46.8194 129.871 47.1821 129.317 47.6728C128.762 48.1421 128.485 48.8141 128.485 49.6888C128.677 48.8994 128.997 48.2808 129.445 47.8328C129.914 47.3634 130.447 47.0221 131.045 46.8088C131.642 46.5741 132.25 46.4354 132.869 46.3928C133.509 46.3288 134.085 46.2968 134.597 46.2968H135.685C135.599 46.3821 135.557 46.4674 135.557 46.5528C135.557 46.6381 135.599 46.7128 135.685 46.7768H136.933C137.274 46.8408 137.519 46.9581 137.669 47.1288C137.818 47.2781 137.893 47.4168 137.893 47.5448C137.893 47.7368 137.797 47.9074 137.605 48.0568C137.413 48.2061 137.093 48.3554 136.645 48.5048ZM131.269 56.2488C131.866 56.4834 132.474 56.6648 133.093 56.7928C133.733 56.9208 134.362 57.0061 134.981 57.0488C135.599 57.1128 136.175 57.1448 136.709 57.1448C136.282 57.1021 135.855 57.0274 135.429 56.9208C134.981 56.8141 134.586 56.7181 134.245 56.6328C133.882 56.5474 133.519 56.4941 133.157 56.4728C132.815 56.4301 132.453 56.3768 132.069 56.3128C131.706 56.2488 131.333 56.1528 130.949 56.0248C130.565 55.8754 130.181 55.6621 129.797 55.3848C130.202 55.7474 130.693 56.0354 131.269 56.2488ZM131.589 52.8888C131.567 52.8674 131.631 52.9314 131.781 53.0808C131.909 53.2088 132.079 53.3048 132.293 53.3688C132.186 53.3261 132.026 53.2728 131.813 53.2088C131.578 53.1234 131.461 52.9954 131.461 52.8248L131.589 52.8888ZM132.389 53.3688C132.367 53.3688 132.335 53.3688 132.293 53.3688C132.314 53.3688 132.346 53.3688 132.389 53.3688Z" fill="#1E1E1E"/>
<path d="M161.147 55.3528C161.147 54.6488 161.093 53.9341 160.987 53.2088C160.901 52.4834 160.859 51.7794 160.859 51.0968V50.2328C160.752 49.4008 160.624 48.4301 160.475 47.3208C160.325 46.1901 160.133 45.1234 159.899 44.1208C159.664 43.1181 159.376 42.2648 159.035 41.5608C158.693 40.8568 158.267 40.5048 157.755 40.5048C157.008 40.5048 156.24 40.8568 155.451 41.5608C154.661 42.2434 154 43.2461 153.467 44.5688C153.211 45.3154 153.029 46.1048 152.923 46.9368C152.837 47.7688 152.763 48.6434 152.699 49.5608C152.635 50.4781 152.571 51.4274 152.507 52.4088C152.464 53.3688 152.368 54.3714 152.219 55.4168C152.176 55.5234 152.133 55.6514 152.091 55.8008C152.069 55.9501 152.048 56.0781 152.027 56.1848H148.091V53.5928C148.069 53.3794 148.048 53.1234 148.027 52.8248C148.005 52.5261 147.973 52.2274 147.931 51.9288C147.909 51.6088 147.888 51.2994 147.867 51.0008C147.845 50.7021 147.824 50.4461 147.803 50.2328C147.803 48.5048 147.728 46.7768 147.579 45.0488C147.451 43.3208 147.365 41.5608 147.323 39.7688L148.059 39.6088C148.123 39.6088 148.187 39.6728 148.251 39.8008C148.336 39.9074 148.4 40.1208 148.443 40.4408C148.507 40.7608 148.56 41.2194 148.603 41.8168C148.667 42.3928 148.72 43.1501 148.763 44.0888C148.784 44.0888 148.816 44.0781 148.859 44.0568C148.944 44.0141 149.008 43.9928 149.051 43.9928C149.051 43.8434 149.04 43.6941 149.019 43.5448C149.019 43.3954 149.019 43.2461 149.019 43.0968C149.019 41.2621 149.136 39.8541 149.371 38.8728C149.627 37.8701 149.84 37.3688 150.011 37.3688C150.139 37.3688 150.267 37.6461 150.395 38.2008C150.523 38.7554 150.661 39.6301 150.811 40.8248C151.173 40.2488 151.589 39.6941 152.059 39.1608C152.528 38.6274 153.051 38.1688 153.627 37.7848C154.224 37.3794 154.864 37.0594 155.547 36.8248C156.229 36.5901 156.976 36.4728 157.787 36.4728C158.491 36.4728 159.109 36.6221 159.643 36.9208C160.176 37.2194 160.645 37.6141 161.051 38.1048C161.477 38.5741 161.829 39.1181 162.107 39.7368C162.405 40.3341 162.661 40.9421 162.875 41.5608C163.088 42.1581 163.259 42.7448 163.387 43.3208C163.536 43.8754 163.664 44.3448 163.771 44.7288C163.771 44.7714 163.781 44.8248 163.803 44.8888C163.824 44.9314 163.845 44.9741 163.867 45.0168C164.123 44.3341 164.443 43.5554 164.827 42.6808C165.211 41.7848 165.691 40.9421 166.267 40.1528C166.843 39.3634 167.515 38.7021 168.283 38.1688C169.072 37.6141 169.979 37.3368 171.003 37.3368C172.005 37.3368 172.859 37.6034 173.563 38.1368C174.267 38.6701 174.853 39.3528 175.323 40.1848C175.813 41.0168 176.197 41.9448 176.475 42.9688C176.773 43.9714 176.997 44.9634 177.147 45.9448C177.296 46.9048 177.392 47.7901 177.435 48.6008C177.477 49.4114 177.499 50.0301 177.499 50.4568C177.499 51.1394 177.467 51.6408 177.403 51.9608C177.36 52.2808 177.221 52.4408 176.987 52.4408C176.944 51.5874 176.901 50.7234 176.859 49.8488C176.837 48.9741 176.773 48.0994 176.667 47.2248C176.581 46.3288 176.453 45.4541 176.283 44.6008C176.112 43.7688 175.888 42.9474 175.611 42.1368C176.144 43.8221 176.453 45.5074 176.539 47.1928C176.645 48.8994 176.731 50.5848 176.795 52.2488C176.645 52.0994 176.528 52.0248 176.443 52.0248C176.379 52.0248 176.336 52.0674 176.315 52.1528V53.1128C176.315 53.3901 176.315 53.6781 176.315 53.9768C176.336 54.2754 176.368 54.5314 176.411 54.7448C176.368 55.6194 176.325 56.2488 176.283 56.6328C176.261 56.9954 176.187 57.2301 176.059 57.3368C175.888 57.3368 175.739 57.2408 175.611 57.0488C175.483 56.8568 175.355 56.6114 175.227 56.3128C175.12 56.0141 175.013 55.6834 174.907 55.3208C174.8 54.9581 174.693 54.6061 174.587 54.2648V53.4008C174.587 52.4621 174.576 51.4808 174.555 50.4568C174.555 49.4328 174.512 48.4408 174.427 47.4808C174.363 46.4994 174.245 45.5714 174.075 44.6968C173.925 43.8221 173.712 43.0541 173.435 42.3928C173.179 41.7101 172.837 41.1768 172.411 40.7928C172.005 40.4088 171.504 40.2168 170.907 40.2168C170.416 40.2168 169.968 40.3448 169.563 40.6008C169.328 40.7501 169.093 40.9421 168.859 41.1768C169.093 40.9634 169.339 40.7821 169.595 40.6328C170 40.3768 170.437 40.2488 170.907 40.2488H171.035C171.568 40.2488 172.016 40.4621 172.379 40.8888C172.763 41.2941 173.072 41.8381 173.307 42.5208C173.563 43.2034 173.755 43.9821 173.883 44.8568C174.011 45.7314 174.107 46.6381 174.171 47.5768C174.256 48.5154 174.309 49.4541 174.331 50.3928C174.352 51.3101 174.373 52.1528 174.395 52.9208C174.267 52.3234 174.149 51.6194 174.043 50.8088C173.957 49.9768 173.861 49.1128 173.755 48.2168C173.669 47.3208 173.552 46.4354 173.403 45.5608C173.275 44.6861 173.104 43.9074 172.891 43.2248C172.677 42.5208 172.411 41.9554 172.091 41.5288C171.771 41.1021 171.376 40.8888 170.907 40.8888C170.715 40.8888 170.544 40.9101 170.395 40.9528C170.245 40.9741 170.053 41.0808 169.819 41.2728L169.499 41.1128C168.773 41.7528 168.165 42.6061 167.675 43.6728C167.184 44.7394 166.768 45.8914 166.427 47.1288C166.085 48.3448 165.797 49.5928 165.563 50.8728C165.328 52.1528 165.104 53.3368 164.891 54.4248V55.6408C165.232 53.9554 165.541 52.3021 165.819 50.6808C166.117 49.0381 166.544 47.4488 167.099 45.9128C166.672 47.2354 166.341 48.6008 166.107 50.0088C165.872 51.4168 165.605 52.8568 165.307 54.3288C165.307 54.4781 165.275 54.6808 165.211 54.9368C165.147 55.1928 165.04 55.5768 164.891 56.0888L161.371 55.7368L161.147 55.3528ZM161.499 53.7528C161.435 53.1768 161.371 52.4408 161.307 51.5448C161.264 50.6488 161.2 49.6994 161.115 48.6968C161.029 47.6941 160.912 46.6808 160.763 45.6568C160.613 44.6328 160.4 43.7154 160.123 42.9048C159.867 42.0728 159.536 41.4008 159.131 40.8888C158.747 40.3768 158.256 40.1208 157.659 40.1208C157.467 40.1208 157.264 40.1634 157.051 40.2488C156.837 40.3341 156.635 40.4301 156.443 40.5368C156.507 40.5154 156.56 40.5048 156.603 40.5048H156.635C156.635 40.5261 156.603 40.5688 156.539 40.6328C157.115 40.4408 157.563 40.3448 157.883 40.3448C158.288 40.4941 158.651 40.8248 158.971 41.3368C159.291 41.8488 159.557 42.4674 159.771 43.1928C160.005 43.8968 160.197 44.6648 160.347 45.4968C160.517 46.3288 160.645 47.1288 160.731 47.8968C160.816 48.6434 160.88 49.3154 160.923 49.9128C160.965 50.5101 160.987 50.9368 160.987 51.1928C161.051 51.8328 161.104 52.4621 161.147 53.0808C161.211 53.6994 161.243 54.3181 161.243 54.9368L161.499 53.7528ZM164.187 45.1448C164.187 45.1661 164.208 45.2621 164.251 45.4328C164.293 45.5821 164.325 45.6781 164.347 45.7208C164.411 45.5074 164.549 45.1661 164.763 44.6968C164.976 44.2061 165.211 43.6941 165.467 43.1608C165.723 42.6061 165.968 42.0941 166.203 41.6248C166.288 41.4328 166.363 41.2621 166.427 41.1128C166.363 41.2408 166.277 41.3794 166.171 41.5288C165.936 41.9554 165.68 42.4034 165.403 42.8728C165.125 43.3208 164.869 43.7581 164.635 44.1848C164.4 44.6114 164.251 44.9314 164.187 45.1448ZM166.715 44.7608C166.288 45.8488 165.915 47.0008 165.595 48.2168C165.275 49.4114 164.987 50.6488 164.731 51.9288L164.795 52.4408C165.072 50.9048 165.392 49.3581 165.755 47.8008C166.096 46.4354 166.533 45.1448 167.067 43.9288C167.045 43.9928 167.024 44.0461 167.003 44.0888C166.896 44.3021 166.8 44.5261 166.715 44.7608ZM161.499 49.1128C161.541 49.4541 161.563 49.7848 161.563 50.1048C161.584 50.4248 161.605 50.7234 161.627 51.0008L161.723 52.5368L161.755 52.3768C161.733 52.0781 161.723 51.7901 161.723 51.5128V50.7128L161.499 49.1128ZM171.995 38.1368C171.611 38.0301 171.248 37.9768 170.907 37.9768H170.555C170.405 37.9768 170.331 37.9874 170.331 38.0088H170.363C170.704 38.0941 171.024 38.1368 171.323 38.1368H171.995ZM167.259 45.4648C167.365 45.1661 167.461 44.8781 167.547 44.6008C167.653 44.3234 167.739 44.1314 167.803 44.0248C167.803 44.0674 167.781 44.1528 167.739 44.2808C167.696 44.4301 167.611 44.6541 167.483 44.9528L167.259 45.4648ZM174.203 39.4808C174.096 39.3528 173.957 39.2248 173.787 39.0968C173.659 39.0114 173.541 38.9368 173.435 38.8728C173.691 39.0434 173.947 39.2461 174.203 39.4808ZM166.587 40.8248C166.544 40.8674 166.512 40.9314 166.491 41.0168C166.533 40.9528 166.565 40.8888 166.587 40.8248Z" fill="#1E1E1E"/>
<path d="M192.342 57.4648C191.531 57.7421 190.913 57.8914 190.486 57.9128C190.059 57.9554 189.686 57.9874 189.366 58.0088C188.171 58.0088 187.094 57.7848 186.134 57.3368C185.174 56.8888 184.353 56.2808 183.67 55.5128C182.987 54.7448 182.454 53.8488 182.07 52.8248C181.707 51.7794 181.526 50.6701 181.526 49.4968C181.526 48.8141 181.59 48.1101 181.718 47.3848C181.846 46.6381 182.038 45.9128 182.294 45.2088C182.55 44.4834 182.881 43.8114 183.286 43.1928C183.67 42.5741 184.129 42.0194 184.662 41.5288C184.107 41.9768 183.638 42.5101 183.254 43.1288C182.849 43.7474 182.507 44.4194 182.23 45.1448C181.953 45.8488 181.75 46.5848 181.622 47.3528C181.494 48.0994 181.43 48.8248 181.43 49.5288C181.43 50.4248 181.569 51.3848 181.846 52.4088C182.145 53.4114 182.614 54.3501 183.254 55.2248C183.894 56.0781 184.715 56.7928 185.718 57.3688C186.742 57.9448 187.979 58.2328 189.43 58.2328C190.113 58.2328 190.827 58.1368 191.574 57.9448C190.763 58.4781 189.857 58.7448 188.854 58.7448C188.043 58.7448 187.275 58.6168 186.55 58.3608C185.846 58.1261 185.185 57.7848 184.566 57.3368C183.969 56.9101 183.425 56.3981 182.934 55.8008C182.443 55.2034 182.027 54.5634 181.686 53.8808L181.974 53.6248C181.611 52.8994 181.345 52.1741 181.174 51.4488C181.025 50.7234 180.95 49.9874 180.95 49.2408C180.95 48.1528 181.099 47.1074 181.398 46.1048C181.718 45.1021 182.134 44.1528 182.646 43.2568L183.414 42.2008C183.542 41.9661 183.723 41.7314 183.958 41.4968C184.214 41.2621 184.491 41.0381 184.79 40.8248C185.089 40.5901 185.398 40.3874 185.718 40.2168C186.059 40.0248 186.379 39.8541 186.678 39.7048C187.446 39.3208 188.214 38.9794 188.982 38.6808C189.75 38.3608 190.646 38.1261 191.67 37.9768L191.542 37.8808C189.579 38.0728 187.915 38.5528 186.55 39.3208C185.185 40.0674 184.075 40.9848 183.222 42.0728C182.369 43.1608 181.75 44.3554 181.366 45.6568C180.982 46.9368 180.79 48.1954 180.79 49.4328C180.79 50.0941 180.843 50.7661 180.95 51.4488C181.078 52.1101 181.259 52.7714 181.494 53.4328C180.961 52.1528 180.694 50.7981 180.694 49.3688C180.694 47.9608 180.929 46.5634 181.398 45.1768C181.867 43.7901 182.603 42.5101 183.606 41.3368C184.886 40.1634 186.283 39.2674 187.798 38.6488C189.313 38.0088 190.774 37.6888 192.182 37.6888C192.63 37.6888 193.089 37.7634 193.558 37.9128C194.027 38.0621 194.454 38.2968 194.838 38.6168C195.222 38.9154 195.531 39.3101 195.766 39.8008C196.022 40.2914 196.15 40.8888 196.15 41.5928C196.15 42.1688 196.011 42.8728 195.734 43.7048C195.457 44.5368 195.041 45.3474 194.486 46.1368C193.953 46.9048 193.281 47.5661 192.47 48.1208C191.659 48.6541 190.721 48.9208 189.654 48.9208H188.598C187.809 48.7501 187.083 48.5581 186.422 48.3448C185.782 48.1101 185.174 47.9288 184.598 47.8008C184.513 48.1421 184.459 48.4728 184.438 48.7928C184.438 49.0914 184.438 49.3901 184.438 49.6888C184.438 50.3074 184.502 50.9154 184.63 51.5128C184.779 52.0888 185.003 52.6221 185.302 53.1128C185.601 53.6034 185.974 54.0194 186.422 54.3608C186.891 54.6808 187.457 54.8834 188.118 54.9688C188.523 55.0541 188.875 55.1074 189.174 55.1288C189.473 55.1288 189.718 55.1394 189.91 55.1608C190.123 55.1608 190.273 55.1928 190.358 55.2568C190.465 55.2994 190.518 55.3954 190.518 55.5448C190.305 55.6088 190.081 55.6514 189.846 55.6728C189.633 55.6941 189.409 55.7048 189.174 55.7048C188.427 55.7048 187.755 55.5874 187.158 55.3528C186.561 55.0968 186.049 54.8088 185.622 54.4888C186.113 54.9794 186.699 55.3314 187.382 55.5448C188.065 55.7368 188.737 55.8328 189.398 55.8328C189.761 55.8328 190.134 55.8008 190.518 55.7368C190.475 55.8648 190.454 55.9394 190.454 55.9608C190.454 56.0888 190.507 56.1741 190.614 56.2168C190.699 56.1954 190.849 56.1421 191.062 56.0568C191.275 55.9501 191.489 55.8541 191.702 55.7688C191.937 55.6621 192.161 55.5768 192.374 55.5128C192.587 55.4274 192.737 55.3848 192.822 55.3848C192.929 55.3848 193.025 55.4061 193.11 55.4488C193.195 55.4701 193.238 55.5874 193.238 55.8008C193.238 56.0141 193.163 56.2701 193.014 56.5688C192.865 56.8674 192.641 57.1661 192.342 57.4648ZM187.926 44.7928L188.63 44.9208C188.865 44.9634 189.078 44.9848 189.27 44.9848C189.483 44.9848 189.729 44.9208 190.006 44.7928C190.305 44.6434 190.593 44.4408 190.87 44.1848C191.169 43.9288 191.425 43.6088 191.638 43.2248C191.873 42.8408 192.043 42.4034 192.15 41.9128L192.214 41.7208C191.915 41.7208 191.467 41.7954 190.87 41.9448C190.273 42.0941 189.654 42.2968 189.014 42.5528C188.374 42.7874 187.777 43.0754 187.222 43.4168C186.667 43.7368 186.283 44.0888 186.07 44.4728C186.39 44.5368 186.699 44.6008 186.998 44.6648C187.318 44.7074 187.627 44.7501 187.926 44.7928ZM186.454 47.1608C186.497 47.1181 186.518 47.0541 186.518 46.9688C186.539 46.8834 186.55 46.8194 186.55 46.7768L185.046 46.2328L184.886 46.6808L186.454 47.1608ZM185.558 54.4248C185.409 54.2541 185.259 54.0834 185.11 53.9128C184.982 53.7634 184.875 53.6141 184.79 53.4648C184.982 53.8274 185.238 54.1474 185.558 54.4248Z" fill="#1E1E1E"/>
</g>
<defs>
<filter id="filter0_d_24_82" x="0" y="0.142578" width="219" height="101.715" filterUnits="userSpaceOnUse" color-interpolation-filters="sRGB">
<feFlood flood-opacity="0" result="BackgroundImageFix"/>
<feColorMatrix in="SourceAlpha" type="matrix" values="0 0 0 0 0 0 0 0 0 0 0 0 0 0 0 0 0 0 127 0" result="hardAlpha"/>
<feOffset dy="4"/>
<feGaussianBlur stdDeviation="2"/>
<feComposite in2="hardAlpha" operator="out"/>
<feColorMatrix type="matrix" values="0 0 0 0 0 0 0 0 0 0 0 0 0 0 0 0 0 0 0.25 0"/>
<feBlend mode="normal" in2="BackgroundImageFix" result="effect1_dropShadow_24_82"/>
<feBlend mode="normal" in="SourceGraphic" in2="effect1_dropShadow_24_82" result="shape"/>
</filter>
</defs>
</svg>
