<svg width="44" height="68" viewBox="0 0 44 68" fill="none" xmlns="http://www.w3.org/2000/svg">
<g filter="url(#filter0_d_15_81)">
<path d="M18.5579 25.6383C19.5337 25.9487 20.5315 26.1039 21.5516 26.1039C22.7047 26.1039 23.7802 25.9265 24.7781 25.5718C25.776 25.2171 26.6852 24.7293 27.5057 24.1086C28.3262 23.4878 29.0469 22.7673 29.6678 21.947C30.1113 21.3705 30.4994 20.7498 30.832 20.0847C30.5437 20.7054 30.2111 21.3151 29.8341 21.9137C29.3019 22.7562 28.6366 23.4989 27.8383 24.1418C27.0622 24.7848 26.1641 25.2947 25.144 25.6716C24.1239 26.0707 22.9708 26.2702 21.6847 26.2702H21.2522C19.4117 26.2702 17.8151 25.86 16.4624 25.0397C15.1097 24.2194 13.9898 23.1774 13.1028 21.9137C12.2158 20.6278 11.5505 19.1978 11.107 17.6237C10.6857 16.0496 10.475 14.4977 10.475 12.968C10.475 12.325 10.5083 11.6488 10.5748 10.9394C10.6414 10.2077 10.7855 9.47613 11.0072 8.7445C11.229 8.01288 11.5395 7.30343 11.9386 6.61615C12.3599 5.90669 12.9254 5.26375 13.635 4.68732C14.2116 4.22175 14.8325 3.83376 15.4977 3.52338C16.1852 3.19082 16.8615 3.00237 17.5268 2.95803C17.4603 3.00237 17.427 3.04672 17.427 3.09106C17.427 3.17974 17.4714 3.2795 17.5601 3.39036C17.6709 3.47904 17.7264 3.5788 17.7264 3.68966V3.75617C17.7264 3.84485 17.6709 3.91136 17.5601 3.9557C17.4714 4.00004 17.3161 4.06655 17.0944 4.15523C16.8726 4.22175 16.5843 4.3326 16.2295 4.48779C15.8747 4.64298 15.4534 4.87577 14.9655 5.18616C15.0986 5.31918 15.1651 5.41895 15.1651 5.48546C15.5864 5.26375 15.9745 5.10856 16.3293 5.01988C16.6841 4.9312 17.0168 4.88686 17.3272 4.88686C17.9703 4.88686 18.436 4.99771 18.7243 5.21941C19.0125 5.44112 19.1567 5.60739 19.1567 5.71825C19.1567 5.89561 19.0125 6.03972 18.7243 6.15057C18.4582 6.26142 18.1366 6.40553 17.7596 6.58289C17.4048 6.73808 17.0278 6.95979 16.6287 7.248C16.2295 7.51405 15.9191 7.91311 15.6973 8.4452C15.3425 8.97729 15.0653 9.6424 14.8658 10.4405C14.6883 11.2387 14.5996 12.0479 14.5996 12.8682C14.5996 14.2649 14.766 15.5397 15.0986 16.6926C15.4312 17.8454 15.8969 18.8431 16.4956 19.6856C17.1165 20.5281 17.8594 21.1821 18.7243 21.6477C19.6113 22.1132 20.6092 22.346 21.7179 22.346C22.7823 22.346 23.7359 22.08 24.5785 21.5479C25.4434 21.0158 26.1752 20.2953 26.7739 19.3863C27.3726 18.4551 27.8272 17.391 28.1377 16.1938C28.4481 14.9744 28.6034 13.6774 28.6034 12.3028C28.6034 11.6377 28.559 10.9837 28.4703 10.3408C28.4038 9.67566 28.2486 9.0438 28.0046 8.4452C27.7829 7.8466 27.4613 7.28126 27.04 6.74917C26.6408 6.21708 26.1086 5.72933 25.4434 5.28592C24.6007 4.84252 23.9133 4.53213 23.3811 4.35477C22.8489 4.15523 22.5828 3.96679 22.5828 3.78942C22.5828 3.72291 22.6271 3.64531 22.7158 3.55663C23.8246 3.80051 24.8225 4.19958 25.7095 4.75383C26.53 5.26375 27.2174 5.92886 27.7718 6.74917C27.1731 5.84018 26.4967 5.14182 25.7427 4.65407C24.9223 4.09981 23.9465 3.66749 22.8156 3.3571C22.9265 3.24625 22.9819 3.14648 22.9819 3.0578C22.9819 2.96912 22.8156 2.89152 22.483 2.82501C22.1725 2.7585 21.8288 2.6809 21.4518 2.59222C21.0748 2.50354 20.72 2.39269 20.3874 2.25967C20.077 2.12664 19.9217 1.96037 19.9217 1.76083C19.9217 1.51696 20.1213 1.3396 20.5205 1.22874C20.9196 1.11789 21.4075 0.98487 21.984 0.829678C22.1393 0.829678 22.2834 0.851848 22.4164 0.896188C22.5717 0.94053 22.7047 0.98487 22.8156 1.02921C23.9022 1.22874 24.9333 1.58347 25.9091 2.09339C26.907 2.60331 27.794 3.25733 28.5701 4.05547C29.3684 4.8536 30.0337 5.80693 30.5659 6.91545C31.0981 8.0018 31.4418 9.23225 31.597 10.6068C31.4862 9.29876 31.1868 8.11265 30.6989 7.04847C30.2332 5.96212 29.6123 4.99771 28.8362 4.15523C28.0822 3.31276 27.1952 2.60331 26.1752 2.02688C25.1551 1.45045 24.0685 1.00704 22.9154 0.696655C23.9355 0.696655 24.9444 0.907274 25.9423 1.32851C26.9624 1.72758 27.8938 2.32618 28.7364 3.12431C29.5791 3.90027 30.3109 4.86469 30.9318 6.01755C31.5527 7.17041 31.9962 8.48954 32.2623 9.97496C32.2179 9.97496 32.1514 9.99713 32.0627 10.0415C31.974 10.0636 31.9075 10.0747 31.8631 10.0747C32.0627 11.2054 32.1625 12.3028 32.1625 13.367C32.1625 14.919 31.9186 16.4376 31.4307 17.923C30.965 19.4085 30.2776 20.7387 29.3684 21.9137C28.4814 23.0666 27.3837 23.9977 26.0754 24.7072C24.767 25.4388 23.2702 25.8046 21.5849 25.8046C20.587 25.8046 19.6113 25.6605 18.6577 25.3723C17.7042 25.0841 16.8172 24.6961 15.9967 24.2083C16.041 24.2527 16.0632 24.297 16.0632 24.3414C16.0632 24.3857 16.0078 24.4079 15.8969 24.4079C16.7174 24.94 17.6044 25.3501 18.5579 25.6383ZM31.6636 13.7328C31.5527 14.5975 31.3864 15.4954 31.1646 16.4265C30.965 17.3355 30.6768 18.2334 30.2998 19.1202C29.945 20.0071 29.4904 20.8384 28.936 21.6144C28.3816 22.3682 27.7274 23.0222 26.9735 23.5765C27.7274 23.0444 28.3927 22.4125 28.9693 21.6809C29.5458 20.9271 30.0226 20.1068 30.3996 19.22C30.7987 18.3332 31.0981 17.402 31.2977 16.4265C31.5194 15.4289 31.6525 14.4423 31.6968 13.4668C31.6746 13.5333 31.6636 13.622 31.6636 13.7328ZM29.0025 15.6617C28.8251 16.5041 28.559 17.3244 28.2042 18.1226C27.8494 18.8985 27.3948 19.5969 26.8404 20.2177C27.417 19.6191 27.8827 18.9318 28.2375 18.1558C28.5923 17.3799 28.8473 16.5485 29.0025 15.6617ZM32.4286 12.7352C32.4286 13.1121 32.4064 13.5 32.3621 13.8991C32.3399 14.276 32.3066 14.664 32.2623 15.0631C32.2623 14.6862 32.2845 14.2649 32.3288 13.7993C32.3732 13.3116 32.3953 12.7795 32.3953 12.2031V11.6045C32.4175 11.7818 32.4286 11.9703 32.4286 12.1698V12.7352ZM29.0025 15.6617C29.1134 15.1739 29.191 14.6862 29.2354 14.1984C29.3019 13.6885 29.3351 13.1786 29.3351 12.6687C29.3351 12.1144 29.3019 11.5491 29.2354 10.9726C29.2575 11.2165 29.2686 11.4493 29.2686 11.671C29.2908 11.8927 29.3019 12.1255 29.3019 12.3694C29.3019 13.5 29.2021 14.5975 29.0025 15.6617ZM32.2623 15.2626L31.9629 16.8921C31.852 17.2912 31.7412 17.6903 31.6303 18.0893C31.5194 18.4662 31.3864 18.8431 31.2311 19.22C31.4751 18.5327 31.6746 17.8454 31.8299 17.1582C32.0073 16.4709 32.1514 15.7947 32.2623 15.1296V15.2626ZM15.9302 24.4744C15.9302 24.4522 15.9191 24.43 15.8969 24.4079C15.8969 24.43 15.908 24.4522 15.9302 24.4744ZM27.9714 7.01521C27.9492 6.97087 27.9159 6.92653 27.8716 6.88219C27.8938 6.92653 27.927 6.97087 27.9714 7.01521Z" fill="#1E1E1E"/>
<path d="M5.50866 56.3083C5.64817 55.7504 5.7528 55.175 5.82256 54.5822C5.85744 53.9894 5.87488 53.3792 5.87488 52.7516C5.87488 51.3916 5.85744 49.9968 5.82256 48.5671C5.78768 47.1723 5.77024 45.8647 5.77024 44.6442C5.77024 42.1685 5.96207 39.6578 6.34573 37.1123C6.69451 34.6016 7.37463 32.3002 8.38609 30.208C9.39755 28.1158 10.8275 26.3374 12.6761 24.8729C14.5246 23.4432 16.9137 22.5714 19.8435 22.2576C16.6696 22.5714 14.1235 23.4955 12.2052 25.0298C10.2869 26.5989 8.80463 28.5168 7.75829 30.7834C6.71195 33.0848 6.01439 35.5954 5.66561 38.3153C5.31683 41.0352 5.14244 43.7027 5.14244 46.318C5.14244 47.399 5.15988 48.48 5.19476 49.5609C5.22964 50.6419 5.24707 51.7229 5.24707 52.8039V54.0069C5.24707 54.4253 5.22964 54.8263 5.19476 55.2099C4.74134 54.1289 4.47976 52.8039 4.41 51.2347C4.30537 49.6655 4.25305 48.1836 4.25305 46.7888C4.25305 45.3242 4.27049 44.0166 4.30537 42.8659C4.34025 41.75 4.46232 40.4598 4.67159 38.9953L5.19476 38.2107C5.47378 35.7349 5.99695 33.4684 6.76426 31.411C7.53158 29.3537 8.59536 27.5753 9.9556 26.0759C11.3158 24.6113 12.99 23.4606 14.978 22.6237C16.9661 21.8217 19.2854 21.4207 21.9362 21.4207C24.1335 21.4207 26.2959 21.7345 28.4235 22.3622C30.5161 22.955 32.3821 24.036 34.0214 25.6051L34.126 25.239C32.4867 23.635 30.6382 22.5191 28.5804 21.8915C26.4877 21.2638 24.3253 20.95 22.0931 20.95C19.5819 20.95 17.3672 21.3335 15.4489 22.1007C13.5306 22.8678 11.8739 23.9314 10.4788 25.2913C9.04877 26.6861 7.88036 28.3424 6.97353 30.2603C6.10158 32.1084 5.42146 34.1658 4.93317 36.4323C5.42146 34.096 6.08414 31.9864 6.92122 30.1034C7.75829 28.1507 8.85694 26.4769 10.2172 25.0821C11.5774 23.6873 13.2167 22.6237 15.135 21.8915C17.0533 21.1243 19.3378 20.7407 21.9885 20.7407C25.0229 20.7407 27.6387 21.2115 29.836 22.153C31.9984 23.0945 33.7772 24.4195 35.1723 26.1282C36.5675 27.8368 37.5964 29.8767 38.259 32.2479C38.9217 34.6191 39.2531 37.2343 39.2531 40.0937C39.2531 41.628 39.1484 43.1274 38.9392 44.5919C38.695 46.0914 38.416 47.5733 38.1021 49.0379C37.7882 50.5024 37.4743 51.967 37.1604 53.4315C36.8465 54.9309 36.6023 56.4304 36.4279 57.9298H35.1723C34.9631 57.86 34.8236 57.6857 34.7538 57.4067C34.684 57.1278 34.6492 56.9011 34.6492 56.7268C34.6492 56.2386 34.684 55.7678 34.7538 55.3145C34.8236 54.8612 34.8933 54.3905 34.9631 53.9023H34.4922C34.4573 54.1115 34.3527 54.5125 34.1783 55.1053C33.969 55.733 33.7423 56.3606 33.4982 56.9883C33.2192 57.6159 32.9227 58.1739 32.6088 58.6621C32.2949 59.1851 31.981 59.4466 31.6671 59.4466C31.4578 59.4466 31.3009 59.3246 31.1963 59.0805C31.0916 58.8364 31.0219 58.5574 30.987 58.2436C30.9172 57.9298 30.8824 57.5985 30.8824 57.2498C30.8475 56.936 30.83 56.6919 30.83 56.5175C30.83 55.0879 30.9347 53.6756 31.1439 52.2808C31.3183 50.9209 31.5276 49.5435 31.7717 48.1487C32.0159 46.7539 32.2426 45.3591 32.4519 43.9643C32.6262 42.5695 32.7134 41.1747 32.7134 39.7799C32.7134 37.9317 32.5042 36.2405 32.0856 34.7062C31.6671 33.172 31.0044 31.8469 30.0976 30.731C29.1559 29.6501 27.9875 28.7958 26.5924 28.1681C25.1624 27.5753 23.4534 27.2789 21.4653 27.2789C19.3378 27.2789 17.559 27.802 16.129 28.8481C14.6641 29.8942 13.4957 31.2192 12.6238 32.8233C11.7169 34.4622 11.0891 36.258 10.7403 38.2107C10.3567 40.1634 10.1649 42.029 10.1649 43.8074C10.1649 45.2719 10.2346 46.719 10.3741 48.1487C10.5136 49.5784 10.5834 51.0255 10.5834 52.49V52.6469C10.5834 52.9608 10.5485 53.3792 10.4788 53.9023C10.3741 54.4253 10.1125 54.6869 9.69401 54.6869C9.62425 54.6869 9.57194 54.1987 9.53706 53.2223C9.4673 52.2808 9.41499 51.1998 9.38011 49.9794C9.34523 48.7589 9.32779 47.5908 9.32779 46.4749C9.29292 45.3591 9.27548 44.6442 9.27548 44.3304V42.2382C9.27548 41.5757 9.31035 40.8957 9.38011 40.1983C9.20572 41.1049 9.11853 41.9941 9.11853 42.8659C9.08365 43.7376 9.06621 44.6268 9.06621 45.5334C9.06621 47.0329 9.10109 48.5323 9.17084 50.0317L9.38011 54.5299H8.38609C8.45584 54.8786 8.49072 55.4017 8.49072 56.0991C8.49072 56.7268 8.42097 57.337 8.28146 57.9298C8.14195 58.5574 7.84548 58.8713 7.39207 58.8713C7.1828 58.8713 6.97353 58.7667 6.76426 58.5574C6.555 58.3482 6.38061 58.1041 6.2411 57.8252C6.06671 57.5462 5.9272 57.2498 5.82256 56.936C5.68305 56.657 5.57842 56.4478 5.50866 56.3083ZM13.4608 29.1096C13.9491 28.8306 14.5944 28.4296 15.3966 27.9066C16.1987 27.3835 17.2451 26.8953 18.5356 26.442C18.0473 26.5466 17.559 26.6861 17.0707 26.8605C16.5475 27.0697 16.0592 27.2963 15.6058 27.5404C15.1524 27.8194 14.7339 28.0984 14.3502 28.3773C13.9666 28.6563 13.6701 28.9004 13.4608 29.1096Z" fill="#1E1E1E"/>
</g>
<defs>
<filter id="filter0_d_15_81" x="0.253052" y="0.696655" width="43" height="66.75" filterUnits="userSpaceOnUse" color-interpolation-filters="sRGB">
<feFlood flood-opacity="0" result="BackgroundImageFix"/>
<feColorMatrix in="SourceAlpha" type="matrix" values="0 0 0 0 0 0 0 0 0 0 0 0 0 0 0 0 0 0 127 0" result="hardAlpha"/>
<feOffset dy="4"/>
<feGaussianBlur stdDeviation="2"/>
<feComposite in2="hardAlpha" operator="out"/>
<feColorMatrix type="matrix" values="0 0 0 0 0 0 0 0 0 0 0 0 0 0 0 0 0 0 0.25 0"/>
<feBlend mode="normal" in2="BackgroundImageFix" result="effect1_dropShadow_15_81"/>
<feBlend mode="normal" in="SourceGraphic" in2="effect1_dropShadow_15_81" result="shape"/>
</filter>
</defs>
</svg>
