<svg width="152" height="72" viewBox="0 0 152 72" fill="none" xmlns="http://www.w3.org/2000/svg">
<g filter="url(#filter0_d_5_1049)">
<path d="M130.184 59.6233C131.473 59.6233 132.44 59.754 133.084 60.0153C133.728 60.2766 134.051 60.5596 134.051 60.8645C134.051 61.3435 133.487 61.7573 132.359 62.1057C131.232 62.4976 130.023 62.8678 128.735 63.2162C126.802 62.9113 124.466 62.6283 121.727 62.367C119.15 62.1057 116.411 61.8661 113.512 61.6484C110.612 61.4742 107.712 61.3435 104.813 61.2564C101.913 61.1693 99.2552 61.1258 96.8389 61.1258H95.6307L84.9988 61.1911C88.5427 61.2782 92.0867 61.3218 95.6307 61.3218C99.3357 61.3653 102.96 61.4524 106.504 61.5831C110.209 61.7137 113.753 61.9315 117.136 62.2363C120.68 62.5412 123.982 62.9767 127.043 63.5428L122.935 64.0001C120.68 64.0001 118.908 63.8912 117.619 63.6735C116.331 63.4557 114.559 63.3033 112.303 63.2162L109.645 62.4976C104.974 62.4976 100.383 62.4105 95.8723 62.2363C91.3618 62.1057 86.7708 62.0403 82.0992 62.0403C78.233 62.0403 74.5279 62.171 70.984 62.4323V62.8242C64.0571 62.9113 57.2108 63.0202 50.445 63.1509C43.6793 63.2815 36.833 63.4122 29.9061 63.5428C28.1341 63.3251 26.201 63.1509 24.1069 63.0202C22.1738 62.9331 20.2407 62.8896 18.3076 62.8896C18.3076 62.8025 18.3076 62.7154 18.3076 62.6283C18.4687 62.5847 18.5493 62.5194 18.5493 62.4323C18.5493 62.0839 18.3882 61.6919 18.066 61.2564L21.2073 60.5379L22.8987 60.6032V59.8846C21.1267 59.6669 19.4353 59.3403 17.8244 58.9048C16.3746 58.5128 15.6497 58.012 15.6497 57.4023C15.6497 56.9232 16.2135 56.5313 17.3411 56.2264C18.4687 55.9651 19.838 55.7692 21.4489 55.6385C23.2209 55.5079 24.9929 55.4208 26.7648 55.3772C28.5368 55.3772 30.0672 55.3772 31.3559 55.3772C39.0882 55.3772 46.8205 55.2683 54.5528 55.0506C62.4462 54.8764 70.2591 54.7893 77.9914 54.7893C79.2801 54.7893 81.5353 54.8111 84.7571 54.8546C87.9789 54.9417 91.6034 55.0288 95.6307 55.1159C99.6579 55.2466 103.766 55.399 107.954 55.5732C112.303 55.7474 116.25 55.9434 119.794 56.1611C123.338 56.3789 126.238 56.6184 128.493 56.8797C130.909 57.141 132.117 57.4023 132.117 57.6636C132.117 57.7942 131.956 57.9902 131.634 58.2515C124.868 57.6854 118.022 57.2716 111.095 57.0103C104.33 56.7926 97.5638 56.5313 90.798 56.2264C97.4027 56.6619 104.007 57.0103 110.612 57.2716C117.539 57.5329 124.385 57.9684 131.151 58.5781L130.184 59.6233ZM108.921 63.1509C103.766 62.9767 98.5303 62.846 93.2143 62.7589C87.8984 62.7154 82.5019 62.6936 77.0248 62.6936C78.6357 62.65 80.2466 62.6283 81.8575 62.6283H86.6902C90.3953 62.6283 94.1003 62.65 97.8054 62.6936C101.51 62.7807 105.216 62.9331 108.921 63.1509Z" fill="#1E1E1E"/>
<path d="M22.9306 4.44365C21.642 4.42116 20.6779 4.27366 20.0382 4.00115C19.3985 3.72865 19.0813 3.43999 19.0867 3.13519C19.095 2.65622 19.666 2.2524 20.7995 1.92374C21.9338 1.55153 23.1482 1.2025 24.4428 0.876642C26.3703 1.21518 28.7008 1.53898 31.4344 1.84803C34.0068 2.15427 36.7408 2.44155 39.6361 2.70987C42.5323 2.93465 45.4292 3.11588 48.3268 3.25357C51.2245 3.39127 53.8813 3.4812 56.2973 3.52337L57.5053 3.54446L68.1367 3.66469C64.5948 3.51576 61.0521 3.41036 57.5087 3.34851C53.8049 3.2403 50.1825 3.08996 46.6413 2.89748C42.9391 2.70219 39.3995 2.42263 36.0224 2.05879C32.4843 1.69213 29.1901 1.19907 26.1397 0.579592L30.2549 0.194071C32.5098 0.233431 34.2796 0.373221 35.5643 0.613428C36.849 0.853636 38.6181 1.03696 40.8715 1.16341L43.5165 1.92826C48.1874 2.00979 52.7762 2.177 57.283 2.42989C61.7906 2.63924 66.3798 2.78468 71.0507 2.86621C74.9163 2.93368 78.623 2.86771 82.171 2.6683L82.1779 2.27642C89.1052 2.31022 95.9524 2.32084 102.719 2.30829C109.486 2.29574 116.334 2.28461 123.262 2.27487C125.03 2.52351 126.96 2.73141 129.051 2.89859C130.983 3.01941 132.915 3.09669 134.847 3.13043C134.846 3.21752 134.844 3.3046 134.843 3.39169C134.681 3.43242 134.599 3.49633 134.598 3.58341C134.592 3.93176 134.746 4.32646 135.06 4.76752L131.907 5.43115L130.217 5.33632L130.205 6.05478C131.972 6.30342 133.658 6.65952 135.261 7.12306C136.704 7.54025 137.42 8.05365 137.409 8.66326C137.401 9.14223 136.83 9.52428 135.697 9.8094C134.565 10.051 133.193 10.223 131.58 10.3255C129.806 10.4252 128.033 10.4814 126.26 10.494C124.489 10.4631 122.958 10.4364 121.67 10.4139C113.939 10.279 106.206 10.2529 98.4709 10.3356C90.5756 10.372 82.7624 10.3228 75.0313 10.1878C73.7428 10.1653 71.4882 10.1042 68.2677 10.0044C65.0479 9.86112 61.4255 9.71078 57.4004 9.55341C53.376 9.3525 49.2715 9.1284 45.0869 8.88113C40.7411 8.63105 36.7985 8.36623 33.2588 8.08666C29.7192 7.80709 26.8242 7.517 24.5739 7.21638C22.1624 6.91295 20.959 6.63061 20.9636 6.36935C20.9659 6.23872 21.1303 6.04559 21.457 5.78995C28.2119 6.47409 35.0499 7.00724 41.9712 7.38939C48.7321 7.72518 55.4923 8.10452 62.2517 8.5274C55.6556 7.9767 49.058 7.51309 42.4589 7.13656C35.5377 6.75441 28.7 6.1995 21.9459 5.47182L22.9306 4.44365ZM44.2527 1.28775C49.4038 1.55189 54.6361 1.77389 59.9497 1.95376C65.2641 2.09008 70.6594 2.20603 76.1356 2.30161C74.5242 2.31704 72.9132 2.31071 71.3026 2.28259L66.4706 2.19825C62.7661 2.13359 59.062 2.04715 55.3582 1.93894C51.6553 1.78719 47.9534 1.57013 44.2527 1.28775Z" fill="#1E1E1E"/>
<path d="M23.0096 63.6678C20.8321 63.6678 18.8506 63.2541 17.065 62.4266C15.2359 61.6427 13.6246 60.554 12.231 59.1604C10.7939 57.7668 9.57448 56.1555 8.57283 54.3264C7.52764 52.5408 6.67842 50.6464 6.02517 48.6431C5.32837 46.6834 4.82755 44.6801 4.5227 42.6332C4.1743 40.5864 4.0001 38.6484 4.0001 36.8194C4.0001 35.0774 4.13075 33.1394 4.39205 31.0055C4.6098 28.9151 4.9582 26.8029 5.43725 24.669C5.9163 22.535 6.52599 20.4664 7.26634 18.4631C7.96313 16.5034 8.79058 14.7832 9.74867 13.3025C10.1406 12.6928 10.8374 11.8 11.8391 10.6242C12.7972 9.44831 13.8641 8.27247 15.04 7.09663C16.1723 5.87723 17.3046 4.81026 18.4369 3.89572C19.5691 2.93762 20.4619 2.4368 21.1152 2.39325L21.7031 2.91584C19.4385 4.61428 17.4788 6.33451 15.8239 8.0765C14.1254 9.77494 12.6665 11.604 11.4471 13.5638C10.1842 15.5235 9.13898 17.6357 8.31153 19.9003C7.48409 22.2084 6.78729 24.7343 6.22114 27.4779C6.87439 24.6907 7.61474 22.1649 8.44218 19.9003C9.22608 17.6792 10.2277 15.6106 11.4471 13.6944C12.623 11.7782 14.0601 9.97091 15.7585 8.27247C17.457 6.57403 19.482 4.89736 21.8337 3.24247L22.4217 4.15702C22.683 3.76507 23.1185 3.41667 23.7281 3.11182C24.2943 2.80697 24.8169 2.65455 25.2959 2.65455C26.1234 2.65455 26.5371 3.02472 26.5371 3.76507C26.5371 4.15701 26.4718 4.54897 26.3411 4.94091C26.1669 5.33286 25.971 5.70303 25.7532 6.05143C23.7935 7.35792 22.0515 8.66442 20.5272 9.97091C18.9595 11.2339 17.6094 12.6057 16.4771 14.0864C15.3013 15.6106 14.3214 17.2655 13.5375 19.051C12.7536 20.8801 12.1221 22.9923 11.6431 25.3875C12.1221 23.1665 12.7318 21.1632 13.4722 19.3777C14.2125 17.6357 15.1488 16.0243 16.2811 14.5436C17.3699 13.1065 18.6546 11.7565 20.1353 10.4935C21.616 9.27411 23.3362 8.12004 25.2959 7.0313C24.7298 7.94585 24.0548 8.7733 23.2709 9.51364L20.9192 11.604C20.1353 12.3444 19.3732 13.0847 18.6328 13.8251C17.8489 14.5654 17.1739 15.3929 16.6078 16.3074L16.0198 15.9155C14.4085 18.9204 13.2327 22.1431 12.4923 25.5835C11.7084 29.0675 11.3165 32.5079 11.3165 35.9048C11.3165 36.8629 11.36 37.821 11.4471 38.7791C11.5342 39.7372 11.6866 40.6735 11.9044 41.5881C11.9044 41.4574 11.9479 41.3921 12.035 41.3921C12.1657 41.3921 12.231 41.4139 12.231 41.4574C12.1439 40.4993 12.0786 39.5412 12.035 38.5831C11.9479 37.625 11.9044 36.6234 11.9044 35.5782C11.9044 32.4426 12.2092 29.307 12.8189 26.1714C13.3851 23.0794 14.365 20.314 15.7585 17.8752C15.1053 19.1381 14.5391 20.4882 14.0601 21.9253C13.5811 23.4496 13.2109 25.0174 12.9496 26.6287C12.6447 28.24 12.4488 29.8296 12.3617 31.3974C12.231 32.9652 12.1657 34.4677 12.1657 35.9048C12.1657 38.0823 12.3617 40.3251 12.7536 42.6332C13.1456 44.9849 13.8424 47.1406 14.844 49.1004C15.8456 51.1037 17.1957 52.8021 18.8941 54.1957C20.549 55.5893 22.6612 56.4603 25.2306 56.8087C25.1871 56.9393 25.1653 57.1353 25.1653 57.3966V58.0499C25.1653 58.3112 25.1 58.5289 24.9693 58.7031C24.8387 58.8773 24.5338 58.9644 24.0548 58.9644C23.7064 58.9644 23.358 58.9209 23.0096 58.8338C22.6176 58.7467 22.2475 58.6596 21.8991 58.5725L21.7684 59.2257C22.0297 59.3128 22.4217 59.4652 22.9443 59.683C23.4669 59.9007 24.0112 60.162 24.5774 60.4669C25.1 60.7717 25.5572 61.0766 25.9492 61.3814C26.3411 61.7298 26.5371 62.0782 26.5371 62.4266C26.5371 62.7315 26.4065 62.971 26.1452 63.1452C25.8403 63.3194 25.4919 63.4283 25.1 63.4718C24.708 63.5589 24.3161 63.6025 23.9241 63.6025C23.5322 63.646 23.2273 63.6678 23.0096 63.6678ZM15.7585 17.8752L15.8239 17.7445L15.7585 17.8752Z" fill="#1E1E1E"/>
<path d="M128.732 2.39363C130.91 2.39363 132.891 2.80735 134.677 3.6348C136.506 4.41869 138.117 5.50744 139.511 6.90103C140.948 8.29463 142.167 9.90597 143.169 11.7351C144.214 13.5206 145.063 15.415 145.717 17.4183C146.413 19.378 146.914 21.3813 147.219 23.4282C147.567 25.475 147.742 27.413 147.742 29.2421C147.742 30.9841 147.611 32.922 147.35 35.056C147.132 37.1464 146.783 39.2585 146.304 41.3925C145.825 43.5264 145.216 45.595 144.475 47.5983C143.779 49.558 142.951 51.2783 141.993 52.7589C141.601 53.3686 140.904 54.2614 139.903 55.4373C138.945 56.6131 137.878 57.7889 136.702 58.9648C135.569 60.1842 134.437 61.2512 133.305 62.1657C132.173 63.1238 131.28 63.6246 130.627 63.6682L130.039 63.1456C132.303 61.4471 134.263 59.7269 135.918 57.9849C137.616 56.2865 139.075 54.4574 140.295 52.4977C141.558 50.5379 142.603 48.4257 143.43 46.1612C144.258 43.853 144.954 41.3271 145.521 38.5835C144.867 41.3707 144.127 43.8966 143.3 46.1612C142.516 48.3822 141.514 50.4508 140.295 52.367C139.119 54.2832 137.682 56.0905 135.983 57.789C134.285 59.4874 132.26 61.1641 129.908 62.8189L129.32 61.9044C129.059 62.2964 128.623 62.6448 128.014 62.9496C127.447 63.2544 126.925 63.4069 126.446 63.4069C125.618 63.4069 125.205 63.0367 125.205 62.2964C125.205 61.9044 125.27 61.5125 125.401 61.1205C125.575 60.7286 125.771 60.3584 125.988 60.01C127.948 58.7035 129.69 57.397 131.214 56.0905C132.782 54.8276 134.132 53.4557 135.265 51.9751C136.44 50.4508 137.42 48.7959 138.204 47.0104C138.988 45.1813 139.62 43.0691 140.099 40.6739C139.62 42.8949 139.01 44.8982 138.27 46.6838C137.529 48.4257 136.593 50.0371 135.461 51.5178C134.372 52.9549 133.087 54.305 131.606 55.5679C130.126 56.7873 128.405 57.9414 126.446 59.0301C127.012 58.1156 127.687 57.2881 128.471 56.5478L130.823 54.4574C131.606 53.717 132.369 52.9767 133.109 52.2363C133.893 51.496 134.568 50.6686 135.134 49.754L135.722 50.146C137.333 47.141 138.509 43.9183 139.249 40.4779C140.033 36.9939 140.425 33.5535 140.425 30.1566C140.425 29.1985 140.382 28.2404 140.295 27.2823C140.207 26.3242 140.055 25.3879 139.837 24.4734C139.837 24.604 139.794 24.6693 139.707 24.6693C139.576 24.6693 139.511 24.6476 139.511 24.604C139.598 25.5621 139.663 26.5202 139.707 27.4783C139.794 28.4364 139.837 29.438 139.837 30.4832C139.837 33.6188 139.532 36.7544 138.923 39.89C138.357 42.982 137.377 45.7474 135.983 48.1862C136.636 46.9233 137.203 45.5732 137.682 44.1361C138.161 42.6118 138.531 41.0441 138.792 39.4327C139.097 37.8214 139.293 36.2318 139.38 34.664C139.511 33.0962 139.576 31.5938 139.576 30.1566C139.576 27.9791 139.38 25.7363 138.988 23.4282C138.596 21.0765 137.899 18.9208 136.898 16.961C135.896 14.9577 134.546 13.2593 132.848 11.8657C131.193 10.4721 129.081 9.60112 126.511 9.25272C126.555 9.12207 126.576 8.9261 126.576 8.6648V8.01155C126.576 7.75025 126.642 7.5325 126.772 7.3583C126.903 7.1841 127.208 7.097 127.687 7.097C128.035 7.097 128.384 7.14055 128.732 7.22766C129.124 7.31475 129.494 7.40185 129.843 7.48895L129.973 6.83571C129.712 6.74861 129.32 6.59618 128.797 6.37843C128.275 6.16069 127.73 5.89939 127.164 5.59454C126.642 5.28969 126.184 4.98484 125.793 4.67999C125.401 4.33159 125.205 3.9832 125.205 3.6348C125.205 3.32995 125.335 3.09043 125.597 2.91623C125.901 2.74203 126.25 2.63315 126.642 2.5896C127.034 2.5025 127.426 2.45895 127.818 2.45895C128.21 2.4154 128.514 2.39363 128.732 2.39363ZM135.983 48.1862L135.918 48.3169L135.983 48.1862Z" fill="#1E1E1E"/>
<path d="M53.746 35.8182V36.3222C53.746 36.5942 53.746 36.8662 53.746 37.1382C53.762 37.3942 53.802 37.6342 53.866 37.8582C53.786 38.6422 53.722 39.4262 53.674 40.2102C53.642 40.9942 53.626 41.7782 53.626 42.5622L53.098 42.5862C53.018 42.5862 52.954 42.5302 52.906 42.4182C52.874 42.3222 52.842 42.1942 52.81 42.0342C52.794 41.8902 52.778 41.7302 52.762 41.5542C52.762 41.3782 52.762 41.2182 52.762 41.0742V40.5942H52.522C52.522 40.6902 52.498 40.8982 52.45 41.2182C52.402 41.5382 52.338 41.8742 52.258 42.2262C52.194 42.5782 52.106 42.8902 51.994 43.1622C51.882 43.4502 51.754 43.5942 51.61 43.5942C51.498 43.5942 51.402 43.4822 51.322 43.2582C51.242 43.0502 51.178 42.8102 51.13 42.5382C51.082 42.2662 51.042 42.0022 51.01 41.7462C50.978 41.5062 50.962 41.3462 50.962 41.2662C50.818 39.8582 50.746 38.4502 50.746 37.0422C50.746 35.6182 50.682 34.2022 50.554 32.7942C50.506 32.3142 50.434 31.8502 50.338 31.4022C50.242 30.9382 50.138 30.4742 50.026 30.0102C49.93 29.5462 49.842 29.0822 49.762 28.6182C49.698 28.1542 49.666 27.6662 49.666 27.1542C49.666 26.4342 49.85 25.8742 50.218 25.4742C50.586 25.0582 51.042 24.7462 51.586 24.5382C52.146 24.3302 52.746 24.2022 53.386 24.1542C54.026 24.1062 54.618 24.0822 55.162 24.0822C56.266 24.0822 57.346 24.1622 58.402 24.3222C59.474 24.4822 60.426 24.7942 61.258 25.2582C62.09 25.7222 62.754 26.3782 63.25 27.2262C63.762 28.0582 64.018 29.1462 64.018 30.4902C64.018 31.6262 63.842 32.6182 63.49 33.4662C63.154 34.3142 62.674 35.0182 62.05 35.5782C61.426 36.1382 60.666 36.5622 59.77 36.8502C58.89 37.1222 57.906 37.2582 56.818 37.2582C56.77 37.2582 56.666 37.2582 56.506 37.2582C56.346 37.2422 56.178 37.2262 56.002 37.2102C55.826 37.1782 55.666 37.1382 55.522 37.0902C55.394 37.0262 55.33 36.9462 55.33 36.8502L55.402 36.6822C55.674 36.6982 55.946 36.7142 56.218 36.7302C56.49 36.7302 56.762 36.7302 57.034 36.7302C57.514 36.7302 57.986 36.7062 58.45 36.6582C58.93 36.6102 59.394 36.5142 59.842 36.3702C60.29 36.2262 60.706 36.0262 61.09 35.7702C61.442 35.5302 61.77 35.2262 62.074 34.8582C61.754 35.2262 61.41 35.5302 61.042 35.7702C60.642 36.0262 60.21 36.2182 59.746 36.3462C59.298 36.4742 58.826 36.5622 58.33 36.6102C57.85 36.6422 57.362 36.6582 56.866 36.6582C56.642 36.6582 56.41 36.6582 56.17 36.6582C55.93 36.6422 55.698 36.6262 55.474 36.6102L55.45 36.1542C55.322 36.1702 55.21 36.1862 55.114 36.2022C55.018 36.2022 54.93 36.2022 54.85 36.2022C54.658 36.2022 54.482 36.1782 54.322 36.1302C54.162 36.0662 53.97 35.9622 53.746 35.8182ZM55.93 26.8182C55.386 26.8182 54.81 26.8422 54.202 26.8902C53.594 26.9222 53.034 27.0262 52.522 27.2022L52.402 27.3942C53.01 27.2182 53.57 27.1142 54.082 27.0822C54.594 27.0502 55.082 27.0342 55.546 27.0342H55.642C56.33 27.0342 57.01 27.0582 57.682 27.1062C58.354 27.1382 58.954 27.2742 59.482 27.5142C60.01 27.7382 60.434 28.0982 60.754 28.5942C61.09 29.0742 61.258 29.7622 61.258 30.6582C61.258 30.9302 61.234 31.1862 61.186 31.4262C61.138 31.6662 61.074 31.9062 60.994 32.1462C61.058 31.9222 61.106 31.6982 61.138 31.4742C61.186 31.2342 61.21 30.9942 61.21 30.7542C61.21 30.1462 61.106 29.5942 60.898 29.0982C60.69 28.6022 60.354 28.1542 59.89 27.7542L59.722 27.6582C59.482 27.5462 59.178 27.4582 58.81 27.3942C58.458 27.3302 58.082 27.2822 57.682 27.2502C57.282 27.2022 56.874 27.1782 56.458 27.1782C56.058 27.1622 55.682 27.1542 55.33 27.1542H54.658C54.37 27.1542 54.034 27.1782 53.65 27.2262C53.282 27.2742 52.962 27.3382 52.69 27.4182C52.69 27.8182 52.722 28.2182 52.786 28.6182C52.866 29.0022 52.946 29.3862 53.026 29.7702L53.29 30.9222C53.386 31.3062 53.45 31.6902 53.482 32.0742L53.698 35.0742C53.81 34.9942 53.93 34.9302 54.058 34.8822C54.202 34.8182 54.386 34.7862 54.61 34.7862H54.73C55.082 34.8982 55.442 34.9622 55.81 34.9782C56.194 34.9942 56.57 35.0022 56.938 35.0022C57.706 35.0022 58.386 34.9302 58.978 34.7862C59.586 34.6422 60.098 34.4022 60.514 34.0662C60.93 33.7142 61.242 33.2582 61.45 32.6982C61.674 32.1222 61.786 31.4182 61.786 30.5862C61.786 30.2182 61.722 29.8182 61.594 29.3862C61.482 28.9382 61.306 28.5222 61.066 28.1382C60.826 27.7542 60.522 27.4342 60.154 27.1782C59.802 26.9222 59.394 26.7862 58.93 26.7702C59.378 26.8182 59.778 26.9622 60.13 27.2022C60.482 27.4422 60.778 27.7462 61.018 28.1142C61.258 28.4822 61.434 28.8902 61.546 29.3382C61.674 29.7702 61.738 30.1942 61.738 30.6102C61.738 32.0662 61.386 33.1382 60.682 33.8262C59.978 34.5142 58.898 34.8582 57.442 34.8582C57.09 34.8582 56.738 34.8422 56.386 34.8102L55.33 34.7142C55.858 34.5862 56.394 34.5142 56.938 34.4982C57.498 34.4662 58.026 34.4022 58.522 34.3062C59.034 34.2102 59.49 34.0342 59.89 33.7782C60.306 33.5062 60.642 33.0582 60.898 32.4342L61.114 32.5062C61.306 31.9782 61.402 31.4262 61.402 30.8502C61.402 29.9702 61.25 29.2662 60.946 28.7382C60.658 28.2102 60.266 27.8022 59.77 27.5142C59.274 27.2262 58.69 27.0422 58.018 26.9622C57.362 26.8662 56.666 26.8182 55.93 26.8182ZM63.538 30.4422C63.538 29.7862 63.45 29.1862 63.274 28.6422C63.098 28.0822 62.826 27.5382 62.458 27.0102C62.794 27.5382 63.042 28.1062 63.202 28.7142C63.378 29.3062 63.466 29.9142 63.466 30.5382C63.466 31.5462 63.266 32.5142 62.866 33.4422C63.074 32.9942 63.234 32.5222 63.346 32.0262C63.474 31.4982 63.538 30.9702 63.538 30.4422ZM59.506 25.0182C59.73 25.0982 59.946 25.1702 60.154 25.2342C60.378 25.2822 60.602 25.3542 60.826 25.4502C60.426 25.2422 59.986 25.0982 59.506 25.0182ZM61.786 26.1702C61.722 26.0422 61.578 25.9062 61.354 25.7622C61.146 25.6342 60.978 25.5382 60.85 25.4742C61.01 25.6022 61.162 25.7062 61.306 25.7862C61.466 25.8822 61.626 26.0102 61.786 26.1702ZM72.3095 38.6022C72.2135 38.6022 72.1175 38.6502 72.0215 38.7462C71.6855 38.8742 71.3335 38.9862 70.9655 39.0822C70.6135 39.1622 70.2455 39.2022 69.8615 39.2022C68.7735 39.2022 67.9575 38.8902 67.4135 38.2662C66.8695 37.6262 66.5975 36.7062 66.5975 35.5062C66.5975 34.9302 66.6215 34.3542 66.6695 33.7782C66.7175 33.2182 66.7495 32.6982 66.7655 32.2182C66.7175 32.7142 66.6615 33.2102 66.5975 33.7062C66.5175 34.2342 66.4775 34.7862 66.4775 35.3622C66.4775 35.6502 66.5015 36.0182 66.5495 36.4662C66.6135 36.9142 66.7575 37.3542 66.9815 37.7862C67.2055 38.2022 67.5495 38.5702 68.0135 38.8902C68.4775 39.1942 69.1175 39.3462 69.9335 39.3462C70.3175 39.3462 70.6855 39.3062 71.0375 39.2262C71.4055 39.1302 71.7575 39.0182 72.0935 38.8902C71.8695 39.1622 71.5655 39.3782 71.1815 39.5382C70.8135 39.6982 70.3735 39.7782 69.8615 39.7782C69.2055 39.7782 68.5655 39.6422 67.9415 39.3702C67.3335 39.0982 66.8695 38.6422 66.5495 38.0022L66.6935 37.7382C66.4055 37.2262 66.2455 36.7702 66.2135 36.3702C66.1815 35.9542 66.1495 35.5462 66.1175 35.1462L66.5255 30.9462C66.6055 30.2262 66.6615 29.5062 66.6935 28.7862L66.6215 28.7382C66.4935 29.4902 66.3895 30.2102 66.3095 30.8982C66.2295 31.5702 66.1655 32.2342 66.1175 32.8902V32.2662C66.2135 31.5302 66.3015 30.8102 66.3815 30.1062C66.4615 29.3862 66.5655 28.6582 66.6935 27.9222C66.8215 27.1862 66.9815 26.4182 67.1735 25.6182C67.3815 24.8182 67.6535 23.9622 67.9895 23.0502C68.4375 22.4422 68.7015 21.8422 68.7815 21.2502C68.8295 21.2502 68.8775 21.2582 68.9255 21.2742C68.9735 21.2902 69.0695 21.2982 69.2135 21.2982C69.3095 21.2982 69.3895 21.3222 69.4535 21.3702C69.5335 21.4022 69.5735 21.4822 69.5735 21.6102C69.5735 21.7542 69.5255 21.9702 69.4295 22.2582C69.4615 22.2582 69.5095 22.2742 69.5735 22.3062C69.6375 22.3222 69.6855 22.3302 69.7175 22.3302C69.9415 21.9462 70.1415 21.6182 70.3175 21.3462C70.5095 21.0742 70.6935 20.9382 70.8695 20.9382C70.9815 20.9382 71.0775 21.0102 71.1575 21.1542C71.2535 21.2822 71.3015 21.4982 71.3015 21.8022C71.2695 22.3782 71.1735 22.9222 71.0135 23.4342C70.8695 23.9462 70.7095 24.4422 70.5335 24.9222C70.3575 25.4022 70.1815 25.8902 70.0055 26.3862C69.8455 26.8822 69.7255 27.4022 69.6455 27.9462C69.5495 28.5702 69.4535 29.2102 69.3575 29.8662C69.2615 30.5062 69.1735 31.1462 69.0935 31.7862C69.0135 32.4262 68.9335 33.0422 68.8535 33.6342C68.7895 34.2262 68.7415 34.7782 68.7095 35.2902C68.7095 35.7542 68.7815 36.2342 68.9255 36.7302C69.0055 36.8582 69.0775 36.9542 69.1415 37.0182C69.2055 37.0662 69.3175 37.0902 69.4775 37.0902C69.6695 37.0902 69.8775 37.0662 70.1015 37.0182C70.3415 36.9702 70.5495 36.9462 70.7255 36.9462C70.8375 36.9462 70.9175 36.9622 70.9655 36.9942C71.0135 37.0262 71.0535 37.0822 71.0855 37.1622C70.8615 37.2902 70.6215 37.3862 70.3655 37.4502C70.1095 37.5142 69.8695 37.5462 69.6455 37.5462H69.3095C69.2455 37.5462 69.1895 37.5462 69.1415 37.5462C69.3175 37.5782 69.5415 37.5942 69.8135 37.5942C70.2295 37.5942 70.6535 37.4982 71.0855 37.3062C71.0855 37.4502 71.1335 37.5702 71.2295 37.6662C71.2775 37.6502 71.3895 37.5942 71.5655 37.4982C71.7415 37.4022 71.8935 37.3542 72.0215 37.3542C72.4055 37.3542 72.5975 37.5142 72.5975 37.8342C72.5975 37.8822 72.5815 37.9542 72.5495 38.0502C72.5175 38.1462 72.4375 38.3302 72.3095 38.6022ZM65.9495 35.3862C65.9495 35.2742 65.9495 35.1302 65.9495 34.9542C65.9655 34.7782 65.9815 34.6022 65.9975 34.4262L66.0455 33.8742C66.0615 33.6822 66.0775 33.5142 66.0935 33.3702C66.0775 33.6102 66.0615 33.9142 66.0455 34.2822C66.0455 34.6342 66.0455 34.8982 66.0455 35.0742V36.0342C66.0455 36.1622 66.0455 36.2982 66.0455 36.4422C66.0615 36.5862 66.0775 36.7222 66.0935 36.8502C66.0295 36.5942 65.9895 36.3462 65.9735 36.1062C65.9575 35.8502 65.9495 35.6102 65.9495 35.3862ZM68.3015 35.2902C68.3015 34.9222 68.3255 34.5622 68.3735 34.2102C68.4215 33.8582 68.4615 33.4982 68.4935 33.1302C68.4135 33.4982 68.3495 33.8582 68.3015 34.2102C68.2695 34.5622 68.2375 34.9222 68.2055 35.2902V35.6262C68.2055 35.7382 68.2135 35.8582 68.2295 35.9862V35.8182C68.2295 35.7382 68.2375 35.6502 68.2535 35.5542C68.2695 35.4582 68.2855 35.3702 68.3015 35.2902ZM66.0935 33.3462C66.0935 33.3142 66.0935 33.2902 66.0935 33.2742C66.1095 33.2582 66.1175 33.2422 66.1175 33.2262C66.1175 33.2902 66.1095 33.3302 66.0935 33.3462ZM82.6938 34.3542C82.2618 34.3542 81.9338 34.3462 81.7098 34.3302C81.5018 34.3142 81.3098 34.3062 81.1338 34.3062C80.6538 34.3062 80.2298 34.3302 79.8618 34.3782C79.4938 34.4262 79.1818 34.5222 78.9258 34.6662C78.6698 34.8102 78.4778 35.0182 78.3498 35.2902C78.2218 35.5622 78.1578 35.9222 78.1578 36.3702C78.1578 37.0262 78.2298 37.5142 78.3738 37.8342C78.5338 38.1382 78.7498 38.3622 79.0218 38.5062C79.3098 38.6342 79.6538 38.7142 80.0538 38.7462C80.4538 38.7782 80.9018 38.8502 81.3978 38.9622C81.6858 38.9942 81.9738 39.0182 82.2618 39.0342C82.5498 39.0342 82.8378 39.0342 83.1258 39.0342H84.8538C84.0538 38.9862 83.2538 38.9622 82.4538 38.9622C81.6698 38.9462 80.9578 38.8742 80.3178 38.7462C79.6938 38.6182 79.1818 38.3942 78.7818 38.0742C78.3978 37.7542 78.2058 37.2662 78.2058 36.6102C78.2058 36.0822 78.2698 35.6822 78.3978 35.4102C78.5418 35.1222 78.7258 34.9142 78.9498 34.7862C79.1898 34.6422 79.4698 34.5622 79.7898 34.5462C80.1098 34.5142 80.4538 34.4982 80.8218 34.4982C81.2698 34.4982 81.7258 34.5222 82.1898 34.5702C81.8218 34.6822 81.4458 34.7702 81.0618 34.8342C80.6938 34.8822 80.3498 34.9382 80.0298 35.0022C79.7098 35.0502 79.4298 35.1222 79.1898 35.2182C78.9658 35.2982 78.8138 35.4182 78.7338 35.5782V36.6582L78.5418 36.7542C78.6058 37.1542 78.6618 37.4582 78.7098 37.6662C78.7738 37.8582 78.9338 38.0102 79.1898 38.1222C79.4458 38.2182 79.8538 38.2982 80.4138 38.3622C80.9898 38.4262 81.8218 38.5302 82.9098 38.6742H84.6378C84.9418 38.6742 85.1178 38.6662 85.1658 38.6502C85.2298 38.6182 85.2698 38.6022 85.2858 38.6022L85.0698 37.3062C85.0378 36.9862 84.9978 36.6982 84.9498 36.4422C84.9018 36.1862 84.8378 35.9142 84.7578 35.6262C84.7418 35.6742 84.6938 35.6982 84.6138 35.6982C84.6938 35.9702 84.7578 36.2582 84.8058 36.5622C84.8698 36.8662 84.9178 37.1542 84.9498 37.4262C84.9978 37.6982 85.0298 37.9302 85.0458 38.1222C85.0778 38.3142 85.1098 38.4262 85.1418 38.4582L84.9978 38.5062C84.9658 38.5222 84.9178 38.5302 84.8538 38.5302H84.7098C84.5978 38.5302 84.4698 38.5222 84.3258 38.5062C84.1818 38.4742 83.9978 38.4582 83.7738 38.4582H82.9818C82.3578 38.4582 81.7818 38.4262 81.2538 38.3622C80.7578 38.2982 80.3258 38.2182 79.9578 38.1222C80.3258 38.2022 80.7738 38.2662 81.3018 38.3142C81.8618 38.3782 82.3818 38.4102 82.8618 38.4102C83.0698 38.4102 83.2858 38.4102 83.5098 38.4102C83.7498 38.3942 84.0058 38.3862 84.2778 38.3862H85.0698C85.0218 38.3382 84.9658 38.3142 84.9018 38.3142H84.8538C84.7898 37.2102 84.6458 36.1542 84.4218 35.1462C84.1978 34.1382 83.8378 33.2582 83.3418 32.5062C82.8458 31.7382 82.1978 31.1302 81.3978 30.6822C80.5978 30.2182 79.5978 29.9862 78.3978 29.9862C78.0618 29.9862 77.7258 30.0102 77.3898 30.0582C77.0538 30.1062 76.7098 30.1702 76.3578 30.2502C76.3898 30.2182 76.4058 30.1862 76.4058 30.1542C76.4058 30.0742 76.3738 30.0022 76.3098 29.9382C76.2458 29.8582 76.2138 29.7782 76.2138 29.6982C76.2138 29.6022 76.3098 29.5142 76.5018 29.4342C76.7098 29.3382 77.1418 29.2502 77.7978 29.1702C77.7658 29.1382 77.7418 29.0902 77.7258 29.0262C77.7258 28.9622 77.7258 28.9142 77.7258 28.8822C76.8618 28.8822 76.1898 28.8662 75.7098 28.8342C75.2298 28.7862 74.9898 28.6662 74.9898 28.4742C74.9898 28.3942 75.0858 28.2822 75.2778 28.1382C75.4858 27.9942 75.7738 27.8582 76.1418 27.7302C76.5098 27.5862 76.9498 27.4662 77.4618 27.3702C77.9898 27.2582 78.5738 27.2022 79.2138 27.2022C80.4458 27.2022 81.5018 27.3942 82.3818 27.7782C83.2618 28.1462 83.9978 28.6422 84.5898 29.2662C85.1978 29.8742 85.6858 30.5702 86.0538 31.3542C86.4378 32.1382 86.7418 32.9302 86.9658 33.7302C87.2058 34.5142 87.3818 35.2822 87.4938 36.0342C87.6058 36.7702 87.7098 37.4102 87.8058 37.9542C87.8058 38.0502 87.8058 38.1462 87.8058 38.2422C87.8218 38.3382 87.8298 38.4502 87.8298 38.5782C87.8298 39.0422 87.7418 39.4502 87.5658 39.8022C87.4058 40.1382 87.1738 40.4182 86.8698 40.6422C86.5818 40.8822 86.2378 41.0582 85.8378 41.1702C85.4538 41.2982 85.0378 41.3622 84.5898 41.3622C84.2378 41.3622 83.7818 41.3542 83.2218 41.3382C82.6618 41.3222 82.1258 41.2742 81.6138 41.1942C81.2778 41.1142 80.9098 41.0502 80.5098 41.0022C80.1098 40.9702 79.7018 40.9062 79.2858 40.8102C78.8698 40.7142 78.4618 40.5782 78.0618 40.4022C77.6778 40.2262 77.3258 39.9622 77.0058 39.6102C76.7018 39.2422 76.4538 38.7702 76.2618 38.1942C76.0858 37.6182 75.9978 36.8902 75.9978 36.0102C75.9978 35.1782 76.1898 34.5142 76.5738 34.0182C76.9578 33.5062 77.4138 33.1142 77.9418 32.8422C78.4858 32.5542 79.0378 32.3702 79.5978 32.2902C80.1578 32.1942 80.6138 32.1462 80.9658 32.1462C81.4138 32.1462 81.7098 32.1782 81.8538 32.2422C81.9978 32.3062 82.0698 32.3702 82.0698 32.4342C82.0698 32.4822 82.0618 32.5222 82.0458 32.5542C81.6458 32.5542 81.1338 32.5702 80.5098 32.6022C79.8858 32.6342 79.2778 32.7382 78.6858 32.9142C78.1098 33.0902 77.6138 33.3622 77.1978 33.7302C76.7818 34.0822 76.5738 34.5862 76.5738 35.2422C76.7178 34.6502 76.9578 34.1862 77.2938 33.8502C77.6458 33.4982 78.0458 33.2422 78.4938 33.0822C78.9418 32.9062 79.3978 32.8022 79.8618 32.7702C80.3418 32.7222 80.7738 32.6982 81.1578 32.6982H81.9738C81.9098 32.7622 81.8778 32.8262 81.8778 32.8902C81.8778 32.9542 81.9098 33.0102 81.9738 33.0582H82.9098C83.1658 33.1062 83.3498 33.1942 83.4618 33.3222C83.5738 33.4342 83.6298 33.5382 83.6298 33.6342C83.6298 33.7782 83.5578 33.9062 83.4138 34.0182C83.2698 34.1302 83.0298 34.2422 82.6938 34.3542ZM78.6618 40.1622C79.1098 40.3382 79.5658 40.4742 80.0298 40.5702C80.5098 40.6662 80.9818 40.7302 81.4458 40.7622C81.9098 40.8102 82.3418 40.8342 82.7418 40.8342C82.4218 40.8022 82.1018 40.7462 81.7818 40.6662C81.4458 40.5862 81.1498 40.5142 80.8938 40.4502C80.6218 40.3862 80.3498 40.3462 80.0778 40.3302C79.8218 40.2982 79.5498 40.2582 79.2618 40.2102C78.9898 40.1622 78.7098 40.0902 78.4218 39.9942C78.1338 39.8822 77.8458 39.7222 77.5578 39.5142C77.8618 39.7862 78.2298 40.0022 78.6618 40.1622ZM78.9018 37.6422C78.8858 37.6262 78.9338 37.6742 79.0458 37.7862C79.1418 37.8822 79.2698 37.9542 79.4298 38.0022C79.3498 37.9702 79.2298 37.9302 79.0698 37.8822C78.8938 37.8182 78.8058 37.7222 78.8058 37.5942L78.9018 37.6422ZM79.5018 38.0022C79.4858 38.0022 79.4618 38.0022 79.4298 38.0022C79.4458 38.0022 79.4698 38.0022 79.5018 38.0022ZM90.2028 47.0982C90.3308 47.2262 90.5468 47.3222 90.8508 47.3862C91.1708 47.4662 91.4748 47.5062 91.7628 47.5062C92.2908 47.5062 92.7948 47.3302 93.2748 46.9782C93.7548 46.6422 94.2108 46.1782 94.6428 45.5862C95.0908 44.9942 95.5148 44.3142 95.9148 43.5462C96.3148 42.7782 96.6988 41.9702 97.0668 41.1222H97.0428C96.7228 41.8262 96.3788 42.5462 96.0108 43.2822C95.6428 44.0342 95.2428 44.7142 94.8108 45.3222C94.3788 45.9462 93.9068 46.4502 93.3948 46.8342C92.8988 47.2342 92.3628 47.4342 91.7868 47.4342C91.3228 47.4342 90.8668 47.2982 90.4188 47.0262C90.6588 46.9462 90.8828 46.9062 91.0908 46.9062C91.1548 46.9062 91.2668 46.9222 91.4268 46.9542C91.6828 46.9542 91.8988 46.9462 92.0748 46.9302C92.2508 46.9142 92.4188 46.8742 92.5788 46.8102C92.7388 46.7622 92.8908 46.6742 93.0348 46.5462C93.1788 46.4342 93.3388 46.2822 93.5148 46.0902L93.8028 46.1622C94.2668 45.5542 94.6988 44.8982 95.0988 44.1942C95.5148 43.4902 95.9228 42.7782 96.3228 42.0582L96.7548 41.0982L96.5388 41.0502L96.1788 41.9142C95.8108 42.6342 95.4268 43.3382 95.0268 44.0262C94.6268 44.7302 94.1708 45.3702 93.6588 45.9462C94.2188 45.2582 94.7308 44.4902 95.1948 43.6422C95.6588 42.7942 96.0828 41.9142 96.4668 41.0022L96.3228 40.7622C96.2428 40.3942 96.1228 40.0342 95.9628 39.6822C95.8508 39.4102 95.7228 39.1302 95.5788 38.8422C95.8668 39.5302 96.0668 40.1942 96.1788 40.8342C96.0188 40.7862 95.8828 40.6902 95.7708 40.5462C95.6748 40.3862 95.5788 40.2022 95.4828 39.9942C95.4028 39.7862 95.3228 39.5702 95.2428 39.3462C95.1788 39.1222 95.0908 38.8982 94.9788 38.6742L95.0988 38.4582C94.8428 38.0582 94.5628 37.5622 94.2588 36.9702C93.9708 36.3782 93.6588 35.7702 93.3228 35.1462C93.0028 34.5222 92.6748 33.9142 92.3388 33.3222C92.0028 32.7302 91.6748 32.2342 91.3548 31.8342L91.2828 31.9062L94.2828 37.3062C93.6748 36.2822 93.0268 35.2422 92.3388 34.1862C91.6508 33.1302 91.0348 31.9622 90.4908 30.6822C90.4908 30.5702 90.4748 30.4262 90.4428 30.2502C90.4108 30.0582 90.3708 29.8662 90.3228 29.6742C90.2908 29.4662 90.2508 29.2662 90.2028 29.0742C90.1548 28.8662 90.1068 28.6822 90.0588 28.5222L90.6828 28.3302C90.7628 28.3302 90.8348 28.3702 90.8988 28.4502C90.9628 28.5142 91.0188 28.6582 91.0668 28.8822C91.1468 28.8822 91.2188 28.8182 91.2828 28.6902C91.3468 28.5622 91.4108 28.4182 91.4748 28.2582C91.5548 28.0982 91.6348 27.9542 91.7148 27.8262C91.8108 27.6982 91.9308 27.6342 92.0748 27.6342C92.2828 27.6342 92.4668 27.7782 92.6268 28.0662C92.8028 28.3382 92.9628 28.6742 93.1068 29.0742C93.2668 29.4742 93.4348 29.8982 93.6108 30.3462C93.7868 30.7782 93.9948 31.1542 94.2348 31.4742C94.4908 31.9062 94.7468 32.3302 95.0028 32.7462C95.2748 33.1622 95.5228 33.6022 95.7468 34.0662C95.9868 34.7062 96.2988 35.3542 96.6828 36.0102C97.0668 36.6502 97.3708 37.3222 97.5948 38.0262C97.9788 36.7462 98.2828 35.6102 98.5068 34.6182C98.7468 33.6102 98.9308 32.6102 99.0588 31.6182C99.2348 31.1062 99.3868 30.5302 99.5148 29.8902C99.6428 29.2502 99.7068 28.6262 99.7068 28.0182L100.235 28.0422C100.315 28.0422 100.387 28.0822 100.451 28.1622C100.515 28.2262 100.547 28.3942 100.547 28.6662C100.547 28.7462 100.539 28.8342 100.523 28.9302C100.523 29.0102 100.515 29.1142 100.499 29.2422H100.715C100.859 28.7142 101.027 28.2902 101.219 27.9702C101.411 27.6502 101.595 27.4902 101.771 27.4902C101.899 27.4902 102.019 27.6262 102.131 27.8982C102.259 28.1702 102.323 28.6262 102.323 29.2662C102.323 30.3382 102.195 31.4982 101.939 32.7462C101.683 33.9942 101.419 35.2262 101.147 36.4422C100.699 38.0742 100.171 39.6422 99.5628 41.1462C98.9548 42.6502 98.1868 44.1782 97.2588 45.7302C96.9708 46.1622 96.6428 46.6102 96.2748 47.0742C95.9228 47.5542 95.5068 47.9862 95.0268 48.3702C94.5628 48.7542 94.0268 49.0662 93.4188 49.3062C92.8268 49.5622 92.1468 49.6902 91.3788 49.6902C90.8188 49.6902 90.4348 49.6182 90.2268 49.4742C90.0348 49.3302 89.9388 49.2182 89.9388 49.1382C89.9388 49.0902 89.9548 49.0342 89.9868 48.9702C90.4668 49.1302 90.9788 49.2102 91.5228 49.2102C91.9068 49.2102 92.3468 49.1382 92.8428 48.9942C93.3548 48.8662 93.8108 48.6662 94.2108 48.3942C93.8428 48.5862 93.4268 48.7542 92.9628 48.8982C92.5148 49.0422 92.1068 49.1142 91.7388 49.1142C91.1628 49.1142 90.6028 49.0422 90.0588 48.8982C90.0588 48.7862 90.0108 48.6822 89.9148 48.5862C89.8348 48.4902 89.7388 48.3942 89.6268 48.2982C89.5148 48.2182 89.4108 48.1302 89.3148 48.0342C89.2348 47.9382 89.1948 47.8262 89.1948 47.6982C89.1948 47.5702 89.2348 47.4742 89.3148 47.4102C89.3948 47.3462 89.4828 47.2982 89.5788 47.2662C89.6908 47.2342 89.8028 47.2022 89.9148 47.1702C90.0268 47.1542 90.1228 47.1302 90.2028 47.0982ZM98.2668 42.8502C97.8028 43.6822 97.3228 44.5142 96.8268 45.3462C96.3308 46.1942 95.7068 46.9942 94.9548 47.7462C95.7228 47.0262 96.3548 46.2422 96.8508 45.3942C97.3628 44.5622 97.8348 43.7142 98.2668 42.8502ZM96.4668 36.8262L97.2588 38.7942L97.4028 38.6502L96.4668 36.8262ZM97.7388 38.4582C97.8028 38.2662 97.8588 38.0742 97.9068 37.8822L98.0508 37.3062L97.9068 37.2342L97.6428 38.1702C97.6748 38.2982 97.7068 38.3942 97.7388 38.4582ZM95.0268 37.5942C94.8508 37.1782 94.6428 36.7702 94.4028 36.3702C94.1788 35.9542 93.9308 35.5462 93.6588 35.1462C93.8988 35.6102 94.1468 36.0742 94.4028 36.5382C94.6588 36.9702 94.8988 37.4102 95.1228 37.8582L95.0268 37.5942ZM95.6028 34.8582C95.6188 35.0982 95.6508 35.2982 95.6988 35.4582C95.7628 35.6182 95.8268 35.7622 95.8908 35.8902C95.9708 36.0022 96.0428 36.1142 96.1068 36.2262C96.1868 36.3222 96.2588 36.4422 96.3228 36.5862L96.2748 36.5142L95.6028 34.8582ZM97.4508 38.7462L97.2828 38.9382C97.3148 38.9862 97.3468 39.0342 97.3788 39.0822C97.4108 39.1142 97.4348 39.1622 97.4508 39.2262L97.5708 39.0342L97.4508 38.7462Z" fill="#1E1E1E"/>
</g>
<defs>
<filter id="filter0_d_5_1049" x="0" y="0.194071" width="151.742" height="71.806" filterUnits="userSpaceOnUse" color-interpolation-filters="sRGB">
<feFlood flood-opacity="0" result="BackgroundImageFix"/>
<feColorMatrix in="SourceAlpha" type="matrix" values="0 0 0 0 0 0 0 0 0 0 0 0 0 0 0 0 0 0 127 0" result="hardAlpha"/>
<feOffset dy="4"/>
<feGaussianBlur stdDeviation="2"/>
<feComposite in2="hardAlpha" operator="out"/>
<feColorMatrix type="matrix" values="0 0 0 0 0 0 0 0 0 0 0 0 0 0 0 0 0 0 0.25 0"/>
<feBlend mode="normal" in2="BackgroundImageFix" result="effect1_dropShadow_5_1049"/>
<feBlend mode="normal" in="SourceGraphic" in2="effect1_dropShadow_5_1049" result="shape"/>
</filter>
</defs>
</svg>
