<svg width="152" height="20" viewBox="0 0 152 20" fill="none" xmlns="http://www.w3.org/2000/svg">
<g filter="url(#filter0_d_5_1087)">
<path d="M9.57839 8.37166C8.02288 8.42598 6.85151 8.33108 6.06427 8.08696C5.27704 7.84283 4.8779 7.56252 4.86685 7.24602C4.84948 6.74867 5.515 6.29538 6.86345 5.88614C8.21032 5.43169 9.65521 4.99644 11.1981 4.58041C13.5424 4.81543 16.372 5.01087 19.687 5.16672C22.8075 5.32936 26.1216 5.46261 29.6294 5.56646C33.1357 5.6251 36.6403 5.63851 40.1434 5.60672C43.6464 5.57493 46.8563 5.50811 49.7729 5.40626L51.2312 5.35534L64.0618 4.83938C59.7809 4.89833 55.5017 5.00249 51.224 5.15187C46.7504 5.26283 42.3723 5.32518 38.0899 5.33892C33.6131 5.35944 29.3275 5.28276 25.2332 5.10885C20.9445 4.94173 16.9427 4.62879 13.2278 4.17002L18.1695 3.52212C20.8916 3.42706 23.0344 3.46541 24.5978 3.63716C26.1612 3.80891 28.3056 3.89247 31.0309 3.88784L34.2652 4.52183C39.9039 4.32492 45.4486 4.22184 50.8992 4.21257C56.3483 4.1581 61.8922 4.0324 67.5309 3.83549C72.1974 3.67253 76.6648 3.38072 80.933 2.96005L80.9188 2.55314C89.2765 2.17074 97.5362 1.76912 105.698 1.3483C113.86 0.927483 122.119 0.503277 130.475 0.0756649C132.621 0.227045 134.961 0.326413 137.494 0.373786C139.83 0.382733 142.165 0.346469 144.498 0.264989C144.501 0.355417 144.504 0.445846 144.508 0.536274C144.315 0.588278 144.22 0.65949 144.223 0.749917C144.236 1.11163 144.444 1.51177 144.849 1.95032L141.083 2.82876L139.039 2.83223L139.065 3.57826C141.212 3.72964 143.266 3.99745 145.226 4.38169C146.99 4.7275 147.883 5.21691 147.905 5.8499C147.923 6.34725 147.256 6.77794 145.906 7.14197C144.555 7.46078 142.909 7.72196 140.969 7.9255C138.835 8.13583 136.7 8.30095 134.562 8.42085C132.424 8.49554 130.576 8.56005 129.021 8.61437C119.688 8.94028 110.359 9.37924 101.033 9.93123C91.5122 10.4448 82.0851 10.8645 72.752 11.1904C71.1965 11.2448 68.4735 11.3172 64.5832 11.4078C60.6912 11.4532 56.3132 11.5155 51.449 11.5948C46.5833 11.629 41.6196 11.6438 36.5579 11.6395C31.3017 11.642 26.5308 11.6049 22.2452 11.5282C17.9597 11.4515 14.4511 11.3251 11.7195 11.1488C8.7934 10.9794 7.32565 10.759 7.31617 10.4878C7.31144 10.3521 7.49876 10.1419 7.87817 9.85701C16.0651 10.1596 24.3438 10.3006 32.7142 10.2799C40.8885 10.2208 49.0645 10.2069 57.242 10.2382C49.2542 10.0644 41.2695 9.98113 33.288 9.98823C24.9177 10.0089 16.6382 9.84535 8.44965 9.49754L9.57839 8.37166ZM35.1165 3.81306C41.3449 3.77664 47.6689 3.69161 54.0885 3.55797C60.5066 3.37911 67.0211 3.17425 73.632 2.94339C71.6892 3.05651 69.7456 3.14702 67.8012 3.21492L61.9681 3.41862C57.496 3.57479 53.0231 3.70834 48.5494 3.8193C44.0741 3.88504 39.5965 3.88296 35.1165 3.81306Z" fill="#1E1E1E"/>
</g>
<defs>
<filter id="filter0_d_5_1087" x="0.866455" y="0.0756683" width="151.039" height="19.5646" filterUnits="userSpaceOnUse" color-interpolation-filters="sRGB">
<feFlood flood-opacity="0" result="BackgroundImageFix"/>
<feColorMatrix in="SourceAlpha" type="matrix" values="0 0 0 0 0 0 0 0 0 0 0 0 0 0 0 0 0 0 127 0" result="hardAlpha"/>
<feOffset dy="4"/>
<feGaussianBlur stdDeviation="2"/>
<feComposite in2="hardAlpha" operator="out"/>
<feColorMatrix type="matrix" values="0 0 0 0 0 0 0 0 0 0 0 0 0 0 0 0 0 0 0.25 0"/>
<feBlend mode="normal" in2="BackgroundImageFix" result="effect1_dropShadow_5_1087"/>
<feBlend mode="normal" in="SourceGraphic" in2="effect1_dropShadow_5_1087" result="shape"/>
</filter>
</defs>
</svg>
