<svg width="231" height="102" viewBox="0 0 231 102" fill="none" xmlns="http://www.w3.org/2000/svg">
<g filter="url(#filter0_d_7_74)">
<path d="M199.334 87.5521C201.329 87.5521 202.825 87.7446 203.823 88.1295C204.82 88.5145 205.319 88.9315 205.319 89.3806C205.319 90.0863 204.446 90.6958 202.701 91.2091C200.955 91.7865 199.085 92.3319 197.09 92.8451C194.098 92.396 190.482 91.979 186.242 91.5941C182.253 91.2091 178.013 90.8562 173.525 90.5354C169.036 90.2788 164.547 90.0863 160.059 89.958C155.57 89.8297 151.456 89.7655 147.715 89.7655H145.845L129.387 89.8618C134.873 89.9901 140.359 90.0543 145.845 90.0543C151.58 90.1184 157.191 90.2467 162.677 90.4392C168.413 90.6317 173.899 90.9525 179.135 91.4016C184.622 91.8507 189.734 92.4923 194.472 93.3263L188.113 94C184.622 94 181.879 93.8396 179.884 93.5188C177.889 93.198 175.146 92.9735 171.654 92.8451L167.54 91.7865C160.308 91.7865 153.201 91.6582 146.219 91.4016C139.237 91.2091 132.13 91.1129 124.898 91.1129C118.913 91.1129 113.178 91.3053 107.692 91.6903V92.2677C96.9687 92.396 86.3706 92.5564 75.8971 92.7489C65.4236 92.9414 54.8255 93.1338 44.1027 93.3263C41.3596 93.0055 38.3672 92.7489 35.1254 92.5564C32.133 92.4281 29.1406 92.364 26.1482 92.364C26.1482 92.2356 26.1482 92.1073 26.1482 91.979C26.3975 91.9148 26.5222 91.8186 26.5222 91.6903C26.5222 91.177 26.2729 90.5996 25.7741 89.958L30.6368 88.8994L33.2552 88.9957V87.937C30.5121 87.6163 27.8937 87.1351 25.4001 86.4935C23.1558 85.9161 22.0336 85.1782 22.0336 84.28C22.0336 83.5743 22.9064 82.9969 24.652 82.5478C26.3975 82.1628 28.5172 81.8741 31.0109 81.6816C33.7539 81.4891 36.4969 81.3608 39.24 81.2967C41.983 81.2967 44.352 81.2967 46.347 81.2967C58.3167 81.2967 70.2863 81.1363 82.256 80.8155C94.475 80.5588 106.569 80.4305 118.539 80.4305C120.534 80.4305 124.025 80.4626 129.013 80.5268C134 80.6551 139.611 80.7834 145.845 80.9117C152.079 81.1042 158.438 81.3287 164.922 81.5854C171.654 81.842 177.764 82.1307 183.25 82.4515C188.736 82.7723 193.225 83.1252 196.716 83.5101C200.456 83.8951 202.327 84.28 202.327 84.665C202.327 84.8574 202.077 85.1462 201.579 85.5311C191.105 84.697 180.507 84.0875 169.784 83.7026C159.311 83.3818 148.837 82.9969 138.364 82.5478C148.588 83.1893 158.812 83.7026 169.036 84.0875C179.759 84.4725 190.357 85.1141 200.831 86.0123L199.334 87.5521ZM166.418 92.7489C158.438 92.4923 150.333 92.2998 142.104 92.1715C133.875 92.1073 125.521 92.0752 117.043 92.0752C119.537 92.0111 122.03 91.979 124.524 91.979H132.005C137.74 91.979 143.476 92.0111 149.211 92.0752C154.947 92.2036 160.682 92.4281 166.418 92.7489Z" fill="#1E1E1E"/>
<path d="M33.3045 6.26055C31.3098 6.22741 29.8174 6.01011 28.8271 5.60865C27.8369 5.2072 27.3459 4.78195 27.3541 4.33291C27.367 3.62727 28.2509 3.03237 30.0056 2.54817C31.7615 1.99983 33.6415 1.48563 35.6455 1.00558C38.6292 1.50432 42.2369 1.98134 46.4685 2.43664C50.4507 2.8878 54.6828 3.31103 59.1649 3.70632C63.6481 4.03747 68.1325 4.30446 72.6181 4.50731C77.1037 4.71016 81.2165 4.84265 84.9564 4.90478L86.8264 4.93584L103.284 5.11298C97.801 4.89356 92.317 4.73829 86.8317 4.64717C81.0983 4.48776 75.4907 4.26628 70.009 3.98271C64.2779 3.69501 58.7985 3.28315 53.5708 2.74713C48.0938 2.20697 42.9943 1.48058 38.2723 0.567955L44.6426 0C48.1332 0.0579852 50.8729 0.263928 52.8617 0.617804C54.8504 0.971682 57.5889 1.24176 61.0772 1.42804L65.1717 2.55483C72.4023 2.67494 79.5058 2.92128 86.4824 3.29385C93.4601 3.60226 100.564 3.81652 107.795 3.93663C113.779 4.03604 119.517 3.93885 125.009 3.64508L125.02 3.06775C135.743 3.11755 146.343 3.1332 156.818 3.11471C167.294 3.09622 177.894 3.07981 188.618 3.06546C191.355 3.43177 194.342 3.73805 197.58 3.98434C200.57 4.16234 203.561 4.27619 206.553 4.32589C206.55 4.45419 206.548 4.58249 206.545 4.71078C206.295 4.77079 206.169 4.86494 206.166 4.99323C206.157 5.50642 206.395 6.0879 206.882 6.73767L202.001 7.71536L199.385 7.57564L199.365 8.63409C202.102 9.0004 204.711 9.525 207.193 10.2079C209.426 10.8225 210.535 11.5789 210.518 12.4769C210.505 13.1826 209.622 13.7454 207.868 14.1655C206.116 14.5214 203.992 14.7748 201.495 14.9259C198.749 15.0727 196.004 15.1555 193.26 15.1741C190.517 15.1285 188.148 15.0891 186.154 15.056C174.186 14.8572 162.215 14.8188 150.241 14.9407C138.02 14.9944 125.925 14.9218 113.957 14.723C111.962 14.6898 108.472 14.5998 103.487 14.4528C98.5025 14.2417 92.8949 14.0202 86.664 13.7883C80.4343 13.4923 74.0805 13.1622 67.6026 12.7979C60.8754 12.4295 54.7721 12.0394 49.2927 11.6275C43.8134 11.2156 39.3319 10.7883 35.8483 10.3454C32.1154 9.89837 30.2525 9.48241 30.2596 9.09752C30.2631 8.90508 30.5177 8.62055 31.0234 8.24394C41.48 9.25183 52.0654 10.0373 62.7795 10.6003C73.2455 11.095 83.7103 11.6538 94.1739 12.2768C83.9632 11.4655 73.7501 10.7825 63.5346 10.2278C52.8204 9.6648 42.2357 8.84729 31.7803 7.77526L33.3045 6.26055ZM66.3114 1.61123C74.2852 2.00036 82.3849 2.32742 90.6105 2.5924C98.8372 2.79323 107.189 2.96404 115.666 3.10487C113.172 3.1276 110.678 3.11826 108.185 3.07684L100.705 2.95259C94.9702 2.85733 89.2362 2.72998 83.5028 2.57057C77.7706 2.34701 72.0401 2.02724 66.3114 1.61123Z" fill="#1E1E1E"/>
<path d="M33.4268 93.5104C30.056 93.5104 26.9886 92.9009 24.2246 91.6818C21.3932 90.527 18.8988 88.923 16.7415 86.87C14.5168 84.8169 12.6292 82.4431 11.0786 79.7484C9.46065 77.1179 8.14605 74.327 7.13482 71.3758C6.05617 68.4886 5.28089 65.5374 4.80899 62.5219C4.26966 59.5065 4 56.6514 4 53.9568C4 51.3905 4.20225 48.5354 4.60674 45.3917C4.94382 42.3121 5.48314 39.2004 6.22471 36.0567C6.96628 32.9129 7.91009 29.8654 9.05615 26.9141C10.1348 24.027 11.4157 21.4927 12.8988 19.3114C13.5056 18.4131 14.5842 17.0979 16.1348 15.3656C17.6179 13.6333 19.2696 11.9011 21.0898 10.1688C22.8426 8.37238 24.5954 6.8005 26.3482 5.45317C28.101 4.04169 29.483 3.30387 30.4942 3.23971L31.4044 4.00961C27.8988 6.51178 24.8651 9.04604 22.3033 11.6124C19.6741 14.1145 17.4157 16.8092 15.528 19.6963C13.573 22.5834 11.955 25.6951 10.6741 29.0313C9.39323 32.4317 8.31458 36.1529 7.43818 40.1949C8.44942 36.0887 9.59548 32.3676 10.8764 29.0313C12.0898 25.7593 13.6404 22.7117 15.528 19.8888C17.3482 17.0658 19.573 14.4032 22.2022 11.9011C24.8314 9.3989 27.9662 6.92881 31.6066 4.4908L32.5167 5.83813C32.9212 5.2607 33.5954 4.74743 34.5392 4.29832C35.4156 3.84922 36.2245 3.62467 36.9661 3.62467C38.247 3.62467 38.8875 4.17001 38.8875 5.2607C38.8875 5.83812 38.7863 6.41555 38.5841 6.99297C38.3144 7.5704 38.0111 8.11574 37.674 8.62901C34.6403 10.5538 31.9437 12.4785 29.5841 14.4032C27.1572 16.2638 25.0673 18.2848 23.3145 20.4662C21.4943 22.7117 19.9774 25.1498 18.764 27.7802C17.5505 30.4749 16.573 33.5866 15.8314 37.1153C16.573 33.8432 17.5168 30.8919 18.6628 28.2614C19.8089 25.6951 21.2583 23.3212 23.0111 21.1399C24.6965 19.0226 26.6853 17.0337 28.9774 15.1731C31.2695 13.3767 33.9324 11.6765 36.9661 10.0726C36.0897 11.4199 35.0448 12.6389 33.8313 13.7296L30.1909 16.8092C28.9774 17.8999 27.7976 18.9906 26.6516 20.0813C25.4381 21.1719 24.3932 22.3909 23.5168 23.7383L22.6066 23.1608C20.1123 27.5878 18.2921 32.3355 17.146 37.404C15.9325 42.5366 15.3258 47.6051 15.3258 52.6095C15.3258 54.021 15.3932 55.4324 15.528 56.8439C15.6629 58.2554 15.8988 59.6348 16.2359 60.9821C16.2359 60.7897 16.3033 60.6934 16.4381 60.6934C16.6404 60.6934 16.7415 60.7255 16.7415 60.7897C16.6067 59.3782 16.5056 57.9667 16.4381 56.5552C16.3033 55.1437 16.2359 53.6681 16.2359 52.1283C16.2359 47.5089 16.7078 42.8895 17.6516 38.2701C18.528 33.7149 20.0449 29.6408 22.2022 26.048C21.1909 27.9086 20.3145 29.8975 19.573 32.0147C18.8314 34.2602 18.2584 36.5699 17.8539 38.9438C17.382 41.3176 17.0786 43.6594 16.9438 45.9691C16.7415 48.2788 16.6404 50.4923 16.6404 52.6095C16.6404 55.8174 16.9438 59.1215 17.5505 62.5219C18.1572 65.9865 19.2359 69.1623 20.7864 72.0494C22.337 75.0007 24.4269 77.5029 27.0561 79.5559C29.6178 81.609 32.8875 82.8922 36.865 83.4054C36.7976 83.5979 36.7639 83.8866 36.7639 84.2716V85.2339C36.7639 85.6189 36.6628 85.9397 36.4605 86.1963C36.2583 86.453 35.7863 86.5813 35.0448 86.5813C34.5055 86.5813 33.9661 86.5171 33.4268 86.3888C32.8201 86.2605 32.247 86.1322 31.7077 86.0038L31.5055 86.9662C31.91 87.0945 32.5167 87.3191 33.3257 87.6399C34.1347 87.9607 34.9774 88.3456 35.8538 88.7947C36.6628 89.2438 37.3706 89.6929 37.9774 90.1421C38.5841 90.6553 38.8875 91.1686 38.8875 91.6818C38.8875 92.131 38.6852 92.4838 38.2807 92.7405C37.8088 92.9971 37.2695 93.1575 36.6628 93.2216C36.056 93.35 35.4493 93.4141 34.8425 93.4141C34.2358 93.4783 33.7639 93.5104 33.4268 93.5104Z" fill="#1E1E1E"/>
<path d="M197.086 3.24026C200.457 3.24026 203.524 3.84976 206.288 5.06877C209.12 6.22362 211.614 7.82757 213.771 9.88064C215.996 11.9337 217.884 14.3076 219.434 17.0022C221.052 19.6327 222.367 22.4236 223.378 25.3749C224.457 28.262 225.232 31.2133 225.704 34.2287C226.243 37.2441 226.513 40.0992 226.513 42.7938C226.513 45.3601 226.311 48.2152 225.906 51.3589C225.569 54.4385 225.03 57.5502 224.288 60.694C223.547 63.8377 222.603 66.8852 221.457 69.8365C220.378 72.7236 219.097 75.2579 217.614 77.4393C217.007 78.3375 215.929 79.6527 214.378 81.385C212.895 83.1173 211.243 84.8495 209.423 86.5818C207.67 88.3782 205.918 89.9501 204.165 91.2974C202.412 92.7089 201.03 93.4467 200.019 93.5109L199.109 92.741C202.614 90.2388 205.648 87.7046 208.21 85.1383C210.839 82.6361 213.097 79.9414 214.985 77.0543C216.94 74.1672 218.558 71.0555 219.839 67.7193C221.12 64.3189 222.198 60.5977 223.075 56.5558C222.064 60.6619 220.917 64.3831 219.637 67.7193C218.423 70.9914 216.873 74.0389 214.985 76.8618C213.165 79.6848 210.94 82.3474 208.311 84.8495C205.682 87.3517 202.547 89.8218 198.906 92.2598L197.996 90.9125C197.592 91.4899 196.918 92.0032 195.974 92.4523C195.097 92.9014 194.288 93.1259 193.547 93.1259C192.266 93.1259 191.625 92.5806 191.625 91.4899C191.625 90.9125 191.727 90.3351 191.929 89.7576C192.199 89.1802 192.502 88.6349 192.839 88.1216C195.873 86.1969 198.569 84.2721 200.929 82.3474C203.356 80.4868 205.446 78.4658 207.198 76.2844C209.019 74.0389 210.536 71.6009 211.749 68.9704C212.962 66.2757 213.94 63.1641 214.682 59.6354C213.94 62.9074 212.996 65.8587 211.85 68.4892C210.704 71.0555 209.255 73.4294 207.502 75.6108C205.816 77.728 203.828 79.7169 201.536 81.5775C199.243 83.3739 196.581 85.0741 193.547 86.678C194.423 85.3307 195.468 84.1117 196.682 83.021L200.322 79.9414C201.536 78.8507 202.715 77.7601 203.861 76.6694C205.075 75.5787 206.12 74.3597 206.996 73.0124L207.906 73.5898C210.401 69.1628 212.221 64.4151 213.367 59.3466C214.58 54.214 215.187 49.1455 215.187 44.1411C215.187 42.7297 215.12 41.3182 214.985 39.9067C214.85 38.4952 214.614 37.1158 214.277 35.7685C214.277 35.961 214.21 36.0572 214.075 36.0572C213.873 36.0572 213.771 36.0251 213.771 35.961C213.906 37.3724 214.007 38.7839 214.075 40.1954C214.21 41.6069 214.277 43.0825 214.277 44.6223C214.277 49.2417 213.805 53.8611 212.861 58.4805C211.985 63.0357 210.468 67.1098 208.311 70.7027C209.322 68.8421 210.198 66.8532 210.94 64.7359C211.682 62.4904 212.255 60.1807 212.659 57.8068C213.131 55.433 213.434 53.0912 213.569 50.7815C213.771 48.4718 213.873 46.2584 213.873 44.1411C213.873 40.9332 213.569 37.6291 212.962 34.2287C212.356 30.7641 211.277 27.5883 209.727 24.7012C208.176 21.7499 206.086 19.2477 203.457 17.1947C200.895 15.1416 197.625 13.8584 193.648 13.3452C193.715 13.1527 193.749 12.864 193.749 12.479V11.5167C193.749 11.1317 193.85 10.8109 194.052 10.5543C194.255 10.2977 194.727 10.1693 195.468 10.1693C196.007 10.1693 196.547 10.2335 197.086 10.3618C197.693 10.4901 198.266 10.6185 198.805 10.7468L199.007 9.7844C198.603 9.65608 197.996 9.43153 197.187 9.11074C196.378 8.78995 195.536 8.405 194.659 7.95589C193.85 7.50678 193.142 7.05767 192.536 6.60856C191.929 6.0953 191.625 5.58204 191.625 5.06877C191.625 4.61966 191.828 4.26679 192.232 4.01016C192.704 3.75353 193.243 3.59313 193.85 3.52897C194.457 3.40065 195.064 3.3365 195.67 3.3365C196.277 3.27234 196.749 3.24026 197.086 3.24026Z" fill="#1E1E1E"/>
<rect x="15.2859" y="8.69629" width="200.324" height="81.0269" rx="40.5134" fill="#1E1E1E"/>
<path d="M60.1404 56.1235C59.9698 55.8035 59.6711 55.4835 59.2444 55.1635C58.8178 54.8221 58.3058 54.4915 57.7084 54.1715C57.1111 53.8515 56.4711 53.5421 55.7884 53.2435C55.1058 52.9448 54.4338 52.6568 53.7724 52.3795C53.1111 52.0808 52.4924 51.8035 51.9164 51.5475C51.5111 51.3768 51.1591 51.2061 50.8604 51.0355C51.4791 51.3981 52.1298 51.7288 52.8124 52.0275C53.6018 52.3901 54.3911 52.7635 55.1804 53.1475C55.9911 53.5315 56.7698 53.9368 57.5164 54.3635C58.2631 54.7901 58.9458 55.2808 59.5644 55.8355C58.9458 55.6648 58.1671 55.3875 57.2284 55.0035C56.2898 54.5981 55.3298 54.1608 54.3484 53.6915C53.3884 53.2008 52.4498 52.7101 51.5324 52.2195C50.6364 51.7288 49.9111 51.3021 49.3564 50.9395L49.5804 50.6515C48.9831 50.2461 48.3751 49.7768 47.7564 49.2435C47.1378 48.7101 46.6578 48.1235 46.3164 47.4835C46.0818 48.4861 45.9431 49.4461 45.9004 50.3635C45.8578 51.2808 45.8364 52.1555 45.8364 52.9875C45.8364 53.2861 45.9111 53.5741 46.0604 53.8515C46.2098 54.1075 46.2844 54.3528 46.2844 54.5875C46.2844 54.9075 46.1351 55.0995 45.8364 55.1635C45.6658 54.7581 45.5378 54.3528 45.4524 53.9475C45.3671 53.5421 45.3031 53.1368 45.2604 52.7315C45.2604 53.1581 45.2818 53.5741 45.3244 53.9795C45.3884 54.4061 45.4951 54.8328 45.6444 55.2595L45.1644 55.4515L45.4524 55.8355C45.4098 56.0701 45.3138 56.2941 45.1644 56.5075C45.0364 56.6995 44.8338 56.7955 44.5564 56.7955C44.2151 56.7955 43.9378 56.6141 43.7244 56.2515C43.5324 55.8675 43.3724 55.4195 43.2444 54.9075C43.1378 54.3741 43.0631 53.8408 43.0204 53.3075C42.9991 52.7528 42.9884 52.2941 42.9884 51.9315C42.9884 51.2061 42.9884 50.4915 42.9884 49.7875C43.0098 49.0835 43.0418 48.3688 43.0844 47.6435C42.9778 48.3261 42.9138 49.0195 42.8924 49.7235C42.8924 50.4275 42.8924 51.1315 42.8924 51.8355C42.8924 52.5821 42.9351 53.3501 43.0204 54.1395C43.1058 54.9288 43.2338 55.6861 43.4044 56.4115C43.1271 56.1555 42.9138 55.8675 42.7644 55.5475C42.6364 55.2275 42.5298 54.8968 42.4444 54.5555C42.3804 54.1928 42.3271 53.8301 42.2844 53.4675C42.2631 53.1048 42.2418 52.7528 42.2204 52.4115L42.6044 52.3155C42.5191 51.9955 42.4658 51.6755 42.4444 51.3555C42.4231 51.0141 42.4124 50.6728 42.4124 50.3315C42.4124 49.5848 42.4658 48.8595 42.5724 48.1555C42.6791 47.4301 42.7324 46.6941 42.7324 45.9475V45.5635L42.7004 44.7635H42.5084C42.4658 45.7875 42.4018 46.8115 42.3164 47.8355C42.2524 48.8595 42.2098 49.8941 42.1884 50.9395C42.1671 50.7261 42.1564 50.5235 42.1564 50.3315V49.7235C42.1564 48.1661 42.2311 46.6408 42.3804 45.1475C42.5511 43.6328 42.7218 42.1075 42.8924 40.5715C42.9351 40.0808 43.0631 39.6328 43.2764 39.2275C43.4898 38.8008 43.6604 38.3635 43.7884 37.9155C43.8738 37.9795 43.9804 38.0221 44.1084 38.0435C44.2364 38.0435 44.3538 38.0541 44.4604 38.0755C44.5671 38.0755 44.6631 38.1075 44.7484 38.1715C44.8338 38.2355 44.8764 38.3421 44.8764 38.4915C44.8764 38.5768 44.8658 38.6621 44.8444 38.7475L44.7804 39.0035L45.0684 39.0995C45.2178 38.8648 45.4098 38.6408 45.6444 38.4275C45.8791 38.2141 46.1458 38.1075 46.4444 38.1075C46.6791 38.1075 46.8498 38.2035 46.9564 38.3955C47.0631 38.5875 47.1164 38.7901 47.1164 39.0035C47.1164 39.1315 47.0951 39.3981 47.0524 39.8035C47.0311 40.2088 46.9884 40.6781 46.9244 41.2115C46.8818 41.7448 46.8284 42.3208 46.7644 42.9395C46.7004 43.5368 46.6364 44.1021 46.5724 44.6355C46.5298 45.1688 46.4871 45.6275 46.4444 46.0115C46.4018 46.3741 46.3804 46.5981 46.3804 46.6835L47.1484 44.9555C47.0844 45.1475 47.0204 45.3075 46.9564 45.4355C46.9138 45.5635 46.8711 45.6915 46.8284 45.8195C46.7858 45.9475 46.7218 46.0861 46.6364 46.2355C46.5724 46.3848 46.4764 46.5768 46.3484 46.8115V47.2595L47.4044 44.8595C47.7458 44.8595 48.0764 44.8595 48.3964 44.8595C48.7378 44.8381 49.0791 44.7955 49.4204 44.7315L49.7404 44.6675C49.2711 44.6675 48.8978 44.6675 48.6204 44.6675C48.3644 44.6461 48.1191 44.6141 47.8844 44.5715C48.7378 44.5715 49.5804 44.5608 50.4124 44.5395C51.2658 44.4968 52.1298 44.4755 53.0044 44.4755C53.7724 44.4755 54.5298 44.4541 55.2764 44.4115C56.0444 44.3688 56.7271 44.2195 57.3244 43.9635C57.9431 43.7075 58.4444 43.3128 58.8284 42.7795C59.2124 42.2461 59.4044 41.4888 59.4044 40.5075C59.4044 39.5048 59.2764 38.6941 59.0204 38.0755C58.7644 37.4568 58.3911 36.9768 57.9004 36.6355C57.4311 36.2728 56.8338 36.0381 56.1084 35.9315C55.3831 35.8035 54.5618 35.7395 53.6444 35.7395C51.7671 35.7395 49.8791 35.8248 47.9804 35.9955C46.0818 36.1661 44.2258 36.4861 42.4124 36.9555C42.3698 36.7848 42.3378 36.6355 42.3164 36.5075C42.2951 36.3581 42.2418 36.2301 42.1564 36.1235C42.1564 35.9955 42.2738 35.8781 42.5084 35.7715C42.7431 35.6648 43.0098 35.5795 43.3084 35.5155C43.6071 35.4515 43.8844 35.3981 44.1404 35.3555C44.4178 35.3128 44.5991 35.2808 44.6844 35.2595V34.8755C44.5351 34.8968 44.2791 34.9181 43.9164 34.9395C43.5538 34.9608 43.1591 34.9715 42.7324 34.9715C42.1564 34.9715 41.6231 34.9395 41.1324 34.8755C40.6418 34.7901 40.3964 34.6301 40.3964 34.3955C40.3964 34.1395 40.6738 33.8941 41.2284 33.6595C41.8044 33.4248 42.5298 33.2115 43.4044 33.0195C44.2791 32.8061 45.2391 32.6248 46.2844 32.4755C47.3298 32.3261 48.3324 32.1981 49.2924 32.0915C50.2738 31.9635 51.1378 31.8781 51.8844 31.8355C52.6524 31.7715 53.1858 31.7395 53.4844 31.7395C55.0204 31.7395 56.4071 31.8995 57.6444 32.2195C58.8818 32.5181 59.9271 33.0195 60.7804 33.7235C61.6551 34.4275 62.3164 35.3555 62.7644 36.5075C63.2338 37.6381 63.4684 39.0355 63.4684 40.6995C63.4684 42.0861 63.2018 43.2701 62.6684 44.2515C62.1564 45.2115 61.4631 46.0008 60.5884 46.6195C59.7138 47.2168 58.7111 47.6648 57.5804 47.9635C56.4498 48.2408 55.2764 48.3795 54.0604 48.3795C53.7191 48.3795 53.3778 48.3688 53.0364 48.3475C52.7164 48.3261 52.3858 48.3048 52.0444 48.2835C52.2791 48.4328 52.6631 48.6355 53.1964 48.8915C53.7511 49.1475 54.3591 49.4355 55.0204 49.7555C55.7031 50.0755 56.4071 50.4168 57.1324 50.7795C57.8791 51.1208 58.5511 51.4621 59.1484 51.8035C59.7458 52.1235 60.2364 52.4328 60.6204 52.7315C61.0044 53.0088 61.1964 53.2328 61.1964 53.4035L61.0364 53.5955C60.3324 53.0835 59.6071 52.6355 58.8604 52.2515C58.1138 51.8675 57.3458 51.5048 56.5564 51.1635C55.7884 50.8221 55.0098 50.4915 54.2204 50.1715C53.4738 49.8515 52.7271 49.4781 51.9804 49.0515C52.7058 49.4781 53.4311 49.8515 54.1564 50.1715L56.4284 51.1955C57.1964 51.5368 57.9431 51.8995 58.6684 52.2835C59.4151 52.6461 60.1298 53.0835 60.8124 53.5955L60.3964 53.9795C60.5458 54.0861 60.7164 54.2355 60.9084 54.4275C61.1218 54.5981 61.3138 54.7901 61.4844 55.0035C61.6764 55.2168 61.8364 55.4408 61.9644 55.6755C62.0924 55.8888 62.1564 56.0915 62.1564 56.2835C62.1564 56.5608 62.0284 56.6995 61.7724 56.6995C61.5164 56.6995 61.2391 56.6248 60.9404 56.4755C60.6418 56.3261 60.3751 56.2088 60.1404 56.1235ZM53.1644 44.6675C52.7378 44.6675 52.2898 44.6781 51.8204 44.6995C51.3724 44.6995 50.9138 44.6995 50.4444 44.6995C50.9778 44.7208 51.5324 44.7528 52.1084 44.7955C52.6844 44.8168 53.2711 44.8275 53.8684 44.8275C54.6151 44.8275 55.3404 44.7848 56.0444 44.6995C56.7698 44.5928 57.4098 44.3901 57.9644 44.0915C58.5191 43.7715 58.9564 43.3448 59.2764 42.8115C59.6178 42.2568 59.7884 41.5315 59.7884 40.6355C59.7884 40.3368 59.7671 40.0488 59.7244 39.7715C59.6818 39.4941 59.6284 39.2061 59.5644 38.9075H59.3724C59.5004 39.4195 59.5644 39.9421 59.5644 40.4755C59.5644 41.4355 59.3938 42.1928 59.0524 42.7475C58.7111 43.3021 58.2524 43.7288 57.6764 44.0275C57.1004 44.3048 56.4178 44.4861 55.6284 44.5715C54.8604 44.6355 54.0391 44.6675 53.1644 44.6675ZM47.5004 45.3715C48.3538 45.4141 49.2178 45.4461 50.0924 45.4675C50.9884 45.4675 51.9058 45.4675 52.8444 45.4675C53.3991 45.4675 53.9538 45.4568 54.5084 45.4355C55.0631 45.3928 55.5964 45.3181 56.1084 45.2115C55.8738 45.2541 55.6391 45.2755 55.4044 45.2755H54.7324C54.4764 45.2755 54.1671 45.2755 53.8044 45.2755C53.4418 45.2541 53.0471 45.2328 52.6204 45.2115C52.1938 45.1901 51.7458 45.1795 51.2764 45.1795C50.8071 45.1581 50.3484 45.1475 49.9004 45.1475C49.4098 45.1475 48.9618 45.1581 48.5564 45.1795C48.1511 45.2008 47.7991 45.2648 47.5004 45.3715ZM46.2844 47.8355C46.7111 48.3901 47.1378 48.9128 47.5644 49.4035C48.0124 49.8728 48.5138 50.3208 49.0684 50.7475C48.5564 50.3848 48.0338 49.9475 47.5004 49.4355C46.9884 48.9235 46.5831 48.3901 46.2844 47.8355ZM51.0204 47.5795C51.4471 47.6221 51.8738 47.6541 52.3004 47.6755C52.7058 47.6968 53.0898 47.7181 53.4524 47.7395C53.1538 47.7181 52.8551 47.6861 52.5564 47.6435C52.2151 47.5795 51.8738 47.5475 51.5324 47.5475H51.2764C51.1911 47.5475 51.1058 47.5581 51.0204 47.5795ZM47.4044 45.3715C47.3831 45.4355 47.3191 45.5635 47.2124 45.7555C47.1271 45.9475 47.0311 46.1608 46.9244 46.3955C46.8391 46.6088 46.7538 46.8115 46.6684 47.0035C46.5831 47.1955 46.5404 47.3235 46.5404 47.3875L46.6044 47.3235L47.4044 45.4675V45.3715ZM50.7324 48.1875H50.6364C50.9351 48.4221 51.2764 48.6461 51.6604 48.8595L50.7324 48.1875ZM46.7964 47.6435C46.8391 47.7501 46.9031 47.8781 46.9884 48.0275C47.0951 48.1555 47.2231 48.2941 47.3724 48.4435C47.2444 48.2941 47.1378 48.1448 47.0524 47.9955C46.9671 47.8248 46.9031 47.6648 46.8604 47.5155L46.7964 47.6435ZM50.5724 50.8755C50.6364 50.9181 50.6898 50.9501 50.7324 50.9715L50.5724 50.8755ZM77.2157 57.6915C76.405 57.9688 75.7863 58.1181 75.3597 58.1395C74.933 58.1821 74.5597 58.2141 74.2397 58.2355C73.045 58.2355 71.9677 58.0115 71.0077 57.5635C70.0477 57.1155 69.2263 56.5075 68.5437 55.7395C67.861 54.9715 67.3277 54.0755 66.9437 53.0515C66.581 52.0061 66.3997 50.8968 66.3997 49.7235C66.3997 49.0408 66.4637 48.3368 66.5917 47.6115C66.7197 46.8648 66.9117 46.1395 67.1677 45.4355C67.4237 44.7101 67.7543 44.0381 68.1597 43.4195C68.5437 42.8008 69.0023 42.2461 69.5357 41.7555C68.981 42.2035 68.5117 42.7368 68.1277 43.3555C67.7223 43.9741 67.381 44.6461 67.1037 45.3715C66.8263 46.0755 66.6237 46.8115 66.4957 47.5795C66.3677 48.3261 66.3037 49.0515 66.3037 49.7555C66.3037 50.6515 66.4423 51.6115 66.7197 52.6355C67.0183 53.6381 67.4877 54.5768 68.1277 55.4515C68.7677 56.3048 69.589 57.0195 70.5917 57.5955C71.6157 58.1715 72.853 58.4595 74.3037 58.4595C74.9863 58.4595 75.701 58.3635 76.4477 58.1715C75.637 58.7048 74.7303 58.9715 73.7277 58.9715C72.917 58.9715 72.149 58.8435 71.4237 58.5875C70.7197 58.3528 70.0583 58.0115 69.4397 57.5635C68.8423 57.1368 68.2983 56.6248 67.8077 56.0275C67.317 55.4301 66.901 54.7901 66.5597 54.1075L66.8477 53.8515C66.485 53.1261 66.2183 52.4008 66.0477 51.6755C65.8983 50.9501 65.8237 50.2141 65.8237 49.4675C65.8237 48.3795 65.973 47.3341 66.2717 46.3315C66.5917 45.3288 67.0077 44.3795 67.5197 43.4835L68.2877 42.4275C68.4157 42.1928 68.597 41.9581 68.8317 41.7235C69.0877 41.4888 69.365 41.2648 69.6637 41.0515C69.9623 40.8168 70.2717 40.6141 70.5917 40.4435C70.933 40.2515 71.253 40.0808 71.5517 39.9315C72.3197 39.5475 73.0877 39.2061 73.8557 38.9075C74.6237 38.5875 75.5197 38.3528 76.5437 38.2035L76.4157 38.1075C74.453 38.2995 72.789 38.7795 71.4237 39.5475C70.0583 40.2941 68.949 41.2115 68.0957 42.2995C67.2423 43.3875 66.6237 44.5821 66.2397 45.8835C65.8557 47.1635 65.6637 48.4221 65.6637 49.6595C65.6637 50.3208 65.717 50.9928 65.8237 51.6755C65.9517 52.3368 66.133 52.9981 66.3677 53.6595C65.8343 52.3795 65.5677 51.0248 65.5677 49.5955C65.5677 48.1875 65.8023 46.7901 66.2717 45.4035C66.741 44.0168 67.477 42.7368 68.4797 41.5635C69.7597 40.3901 71.157 39.4941 72.6717 38.8755C74.1863 38.2355 75.6477 37.9155 77.0557 37.9155C77.5037 37.9155 77.9623 37.9901 78.4317 38.1395C78.901 38.2888 79.3277 38.5235 79.7117 38.8435C80.0957 39.1421 80.405 39.5368 80.6397 40.0275C80.8957 40.5181 81.0237 41.1155 81.0237 41.8195C81.0237 42.3955 80.885 43.0995 80.6077 43.9315C80.3303 44.7635 79.9143 45.5741 79.3597 46.3635C78.8263 47.1315 78.1543 47.7928 77.3437 48.3475C76.533 48.8808 75.5943 49.1475 74.5277 49.1475H73.4717C72.6823 48.9768 71.957 48.7848 71.2957 48.5715C70.6557 48.3368 70.0477 48.1555 69.4717 48.0275C69.3863 48.3688 69.333 48.6995 69.3117 49.0195C69.3117 49.3181 69.3117 49.6168 69.3117 49.9155C69.3117 50.5341 69.3757 51.1421 69.5037 51.7395C69.653 52.3155 69.877 52.8488 70.1757 53.3395C70.4743 53.8301 70.8477 54.2461 71.2957 54.5875C71.765 54.9075 72.3303 55.1101 72.9917 55.1955C73.397 55.2808 73.749 55.3341 74.0477 55.3555C74.3463 55.3555 74.5917 55.3661 74.7837 55.3875C74.997 55.3875 75.1463 55.4195 75.2317 55.4835C75.3383 55.5261 75.3917 55.6221 75.3917 55.7715C75.1783 55.8355 74.9543 55.8781 74.7197 55.8995C74.5063 55.9208 74.2823 55.9315 74.0477 55.9315C73.301 55.9315 72.629 55.8141 72.0317 55.5795C71.4343 55.3235 70.9223 55.0355 70.4957 54.7155C70.9863 55.2061 71.573 55.5581 72.2557 55.7715C72.9383 55.9635 73.6103 56.0595 74.2717 56.0595C74.6343 56.0595 75.0077 56.0275 75.3917 55.9635C75.349 56.0915 75.3277 56.1661 75.3277 56.1875C75.3277 56.3155 75.381 56.4008 75.4877 56.4435C75.573 56.4221 75.7223 56.3688 75.9357 56.2835C76.149 56.1768 76.3623 56.0808 76.5757 55.9955C76.8103 55.8888 77.0343 55.8035 77.2477 55.7395C77.461 55.6541 77.6103 55.6115 77.6957 55.6115C77.8023 55.6115 77.8983 55.6328 77.9837 55.6755C78.069 55.6968 78.1117 55.8141 78.1117 56.0275C78.1117 56.2408 78.037 56.4968 77.8877 56.7955C77.7383 57.0941 77.5143 57.3928 77.2157 57.6915ZM72.7997 45.0195L73.5037 45.1475C73.7383 45.1901 73.9517 45.2115 74.1437 45.2115C74.357 45.2115 74.6023 45.1475 74.8797 45.0195C75.1783 44.8701 75.4663 44.6675 75.7437 44.4115C76.0423 44.1555 76.2983 43.8355 76.5117 43.4515C76.7463 43.0675 76.917 42.6301 77.0237 42.1395L77.0877 41.9475C76.789 41.9475 76.341 42.0221 75.7437 42.1715C75.1463 42.3208 74.5277 42.5235 73.8877 42.7795C73.2477 43.0141 72.6503 43.3021 72.0957 43.6435C71.541 43.9635 71.157 44.3155 70.9437 44.6995C71.2637 44.7635 71.573 44.8275 71.8717 44.8915C72.1917 44.9341 72.501 44.9768 72.7997 45.0195ZM71.3277 47.3875C71.3703 47.3448 71.3917 47.2808 71.3917 47.1955C71.413 47.1101 71.4237 47.0461 71.4237 47.0035L69.9197 46.4595L69.7597 46.9075L71.3277 47.3875ZM70.4317 54.6515C70.2823 54.4808 70.133 54.3101 69.9837 54.1395C69.8557 53.9901 69.749 53.8408 69.6637 53.6915C69.8557 54.0541 70.1117 54.3741 70.4317 54.6515ZM97.8954 55.5795C97.8954 54.8755 97.8421 54.1608 97.7354 53.4355C97.6501 52.7101 97.6074 52.0061 97.6074 51.3235V50.4595C97.5008 49.6275 97.3728 48.6568 97.2234 47.5475C97.0741 46.4168 96.8821 45.3501 96.6474 44.3475C96.4128 43.3448 96.1248 42.4915 95.7834 41.7875C95.4421 41.0835 95.0154 40.7315 94.5034 40.7315C93.7568 40.7315 92.9888 41.0835 92.1994 41.7875C91.4101 42.4701 90.7488 43.4728 90.2154 44.7955C89.9594 45.5421 89.7781 46.3315 89.6714 47.1635C89.5861 47.9955 89.5114 48.8701 89.4474 49.7875C89.3834 50.7048 89.3194 51.6541 89.2554 52.6355C89.2128 53.5955 89.1168 54.5981 88.9674 55.6435C88.9248 55.7501 88.8821 55.8781 88.8394 56.0275C88.8181 56.1768 88.7968 56.3048 88.7754 56.4115H84.8394V53.8195C84.8181 53.6061 84.7968 53.3501 84.7754 53.0515C84.7541 52.7528 84.7221 52.4541 84.6794 52.1555C84.6581 51.8355 84.6368 51.5261 84.6154 51.2275C84.5941 50.9288 84.5728 50.6728 84.5514 50.4595C84.5514 48.7315 84.4768 47.0035 84.3274 45.2755C84.1994 43.5475 84.1141 41.7875 84.0714 39.9955L84.8074 39.8355C84.8714 39.8355 84.9354 39.8995 84.9994 40.0275C85.0848 40.1341 85.1488 40.3475 85.1914 40.6675C85.2554 40.9875 85.3088 41.4461 85.3514 42.0435C85.4154 42.6195 85.4688 43.3768 85.5114 44.3155C85.5328 44.3155 85.5648 44.3048 85.6074 44.2835C85.6928 44.2408 85.7568 44.2195 85.7994 44.2195C85.7994 44.0701 85.7888 43.9208 85.7674 43.7715C85.7674 43.6221 85.7674 43.4728 85.7674 43.3235C85.7674 41.4888 85.8848 40.0808 86.1194 39.0995C86.3754 38.0968 86.5888 37.5955 86.7594 37.5955C86.8874 37.5955 87.0154 37.8728 87.1434 38.4275C87.2714 38.9821 87.4101 39.8568 87.5594 41.0515C87.9221 40.4755 88.3381 39.9208 88.8074 39.3875C89.2768 38.8541 89.7994 38.3955 90.3754 38.0115C90.9728 37.6061 91.6128 37.2861 92.2954 37.0515C92.9781 36.8168 93.7248 36.6995 94.5354 36.6995C95.2394 36.6995 95.8581 36.8488 96.3914 37.1475C96.9248 37.4461 97.3941 37.8408 97.7994 38.3315C98.2261 38.8008 98.5781 39.3448 98.8554 39.9635C99.1541 40.5608 99.4101 41.1688 99.6234 41.7875C99.8368 42.3848 100.007 42.9715 100.135 43.5475C100.285 44.1021 100.413 44.5715 100.519 44.9555C100.519 44.9981 100.53 45.0515 100.551 45.1155C100.573 45.1581 100.594 45.2008 100.615 45.2435C100.871 44.5608 101.191 43.7821 101.575 42.9075C101.959 42.0115 102.439 41.1688 103.015 40.3795C103.591 39.5901 104.263 38.9288 105.031 38.3955C105.821 37.8408 106.727 37.5635 107.751 37.5635C108.754 37.5635 109.607 37.8301 110.311 38.3635C111.015 38.8968 111.602 39.5795 112.071 40.4115C112.562 41.2435 112.946 42.1715 113.223 43.1955C113.522 44.1981 113.746 45.1901 113.895 46.1715C114.045 47.1315 114.141 48.0168 114.183 48.8275C114.226 49.6381 114.247 50.2568 114.247 50.6835C114.247 51.3661 114.215 51.8675 114.151 52.1875C114.109 52.5075 113.97 52.6675 113.735 52.6675C113.693 51.8141 113.65 50.9501 113.607 50.0755C113.586 49.2008 113.522 48.3261 113.415 47.4515C113.33 46.5555 113.202 45.6808 113.031 44.8275C112.861 43.9955 112.637 43.1741 112.359 42.3635C112.893 44.0488 113.202 45.7341 113.287 47.4195C113.394 49.1261 113.479 50.8115 113.543 52.4755C113.394 52.3261 113.277 52.2515 113.191 52.2515C113.127 52.2515 113.085 52.2941 113.063 52.3795V53.3395C113.063 53.6168 113.063 53.9048 113.063 54.2035C113.085 54.5021 113.117 54.7581 113.159 54.9715C113.117 55.8461 113.074 56.4755 113.031 56.8595C113.01 57.2221 112.935 57.4568 112.807 57.5635C112.637 57.5635 112.487 57.4675 112.359 57.2755C112.231 57.0835 112.103 56.8381 111.975 56.5395C111.869 56.2408 111.762 55.9101 111.655 55.5475C111.549 55.1848 111.442 54.8328 111.335 54.4915V53.6275C111.335 52.6888 111.325 51.7075 111.303 50.6835C111.303 49.6595 111.261 48.6675 111.175 47.7075C111.111 46.7261 110.994 45.7981 110.823 44.9235C110.674 44.0488 110.461 43.2808 110.183 42.6195C109.927 41.9368 109.586 41.4035 109.159 41.0195C108.754 40.6355 108.253 40.4435 107.655 40.4435C107.165 40.4435 106.717 40.5715 106.311 40.8275C106.077 40.9768 105.842 41.1688 105.607 41.4035C105.842 41.1901 106.087 41.0088 106.343 40.8595C106.749 40.6035 107.186 40.4755 107.655 40.4755H107.783C108.317 40.4755 108.765 40.6888 109.127 41.1155C109.511 41.5208 109.821 42.0648 110.055 42.7475C110.311 43.4301 110.503 44.2088 110.631 45.0835C110.759 45.9581 110.855 46.8648 110.919 47.8035C111.005 48.7421 111.058 49.6808 111.079 50.6195C111.101 51.5368 111.122 52.3795 111.143 53.1475C111.015 52.5501 110.898 51.8461 110.791 51.0355C110.706 50.2035 110.61 49.3395 110.503 48.4435C110.418 47.5475 110.301 46.6621 110.151 45.7875C110.023 44.9128 109.853 44.1341 109.639 43.4515C109.426 42.7475 109.159 42.1821 108.839 41.7555C108.519 41.3288 108.125 41.1155 107.655 41.1155C107.463 41.1155 107.293 41.1368 107.143 41.1795C106.994 41.2008 106.802 41.3075 106.567 41.4995L106.247 41.3395C105.522 41.9795 104.914 42.8328 104.423 43.8995C103.933 44.9661 103.517 46.1181 103.175 47.3555C102.834 48.5715 102.546 49.8195 102.311 51.0995C102.077 52.3795 101.853 53.5635 101.639 54.6515V55.8675C101.981 54.1821 102.29 52.5288 102.567 50.9075C102.866 49.2648 103.293 47.6755 103.847 46.1395C103.421 47.4621 103.09 48.8275 102.855 50.2355C102.621 51.6435 102.354 53.0835 102.055 54.5555C102.055 54.7048 102.023 54.9075 101.959 55.1635C101.895 55.4195 101.789 55.8035 101.639 56.3155L98.1194 55.9635L97.8954 55.5795ZM98.2474 53.9795C98.1834 53.4035 98.1194 52.6675 98.0554 51.7715C98.0128 50.8755 97.9488 49.9261 97.8634 48.9235C97.7781 47.9208 97.6608 46.9075 97.5114 45.8835C97.3621 44.8595 97.1488 43.9421 96.8714 43.1315C96.6154 42.2995 96.2848 41.6275 95.8794 41.1155C95.4954 40.6035 95.0048 40.3475 94.4074 40.3475C94.2154 40.3475 94.0128 40.3901 93.7994 40.4755C93.5861 40.5608 93.3834 40.6568 93.1914 40.7635C93.2554 40.7421 93.3088 40.7315 93.3514 40.7315H93.3834C93.3834 40.7528 93.3514 40.7955 93.2874 40.8595C93.8634 40.6675 94.3114 40.5715 94.6314 40.5715C95.0368 40.7208 95.3994 41.0515 95.7194 41.5635C96.0394 42.0755 96.3061 42.6941 96.5194 43.4195C96.7541 44.1235 96.9461 44.8915 97.0954 45.7235C97.2661 46.5555 97.3941 47.3555 97.4794 48.1235C97.5648 48.8701 97.6288 49.5421 97.6714 50.1395C97.7141 50.7368 97.7354 51.1635 97.7354 51.4195C97.7994 52.0595 97.8528 52.6888 97.8954 53.3075C97.9594 53.9261 97.9914 54.5448 97.9914 55.1635L98.2474 53.9795ZM100.935 45.3715C100.935 45.3928 100.957 45.4888 100.999 45.6595C101.042 45.8088 101.074 45.9048 101.095 45.9475C101.159 45.7341 101.298 45.3928 101.511 44.9235C101.725 44.4328 101.959 43.9208 102.215 43.3875C102.471 42.8328 102.717 42.3208 102.951 41.8515C103.037 41.6595 103.111 41.4888 103.175 41.3395C103.111 41.4675 103.026 41.6061 102.919 41.7555C102.685 42.1821 102.429 42.6301 102.151 43.0995C101.874 43.5475 101.618 43.9848 101.383 44.4115C101.149 44.8381 100.999 45.1581 100.935 45.3715ZM103.463 44.9875C103.037 46.0755 102.663 47.2275 102.343 48.4435C102.023 49.6381 101.735 50.8755 101.479 52.1555L101.543 52.6675C101.821 51.1315 102.141 49.5848 102.503 48.0275C102.845 46.6621 103.282 45.3715 103.815 44.1555C103.794 44.2195 103.773 44.2728 103.751 44.3155C103.645 44.5288 103.549 44.7528 103.463 44.9875ZM98.2474 49.3395C98.2901 49.6808 98.3114 50.0115 98.3114 50.3315C98.3328 50.6515 98.3541 50.9501 98.3754 51.2275L98.4714 52.7635L98.5034 52.6035C98.4821 52.3048 98.4714 52.0168 98.4714 51.7395V50.9395L98.2474 49.3395ZM108.743 38.3635C108.359 38.2568 107.997 38.2035 107.655 38.2035H107.303C107.154 38.2035 107.079 38.2141 107.079 38.2355H107.111C107.453 38.3208 107.773 38.3635 108.071 38.3635H108.743ZM104.007 45.6915C104.114 45.3928 104.21 45.1048 104.295 44.8275C104.402 44.5501 104.487 44.3581 104.551 44.2515C104.551 44.2941 104.53 44.3795 104.487 44.5075C104.445 44.6568 104.359 44.8808 104.231 45.1795L104.007 45.6915ZM110.951 39.7075C110.845 39.5795 110.706 39.4515 110.535 39.3235C110.407 39.2381 110.29 39.1635 110.183 39.0995C110.439 39.2701 110.695 39.4728 110.951 39.7075ZM103.335 41.0515C103.293 41.0941 103.261 41.1581 103.239 41.2435C103.282 41.1795 103.314 41.1155 103.335 41.0515ZM128.675 48.7315C128.099 48.7315 127.661 48.7208 127.363 48.6995C127.085 48.6781 126.829 48.6675 126.595 48.6675C125.955 48.6675 125.389 48.6995 124.899 48.7635C124.408 48.8275 123.992 48.9555 123.651 49.1475C123.309 49.3395 123.053 49.6168 122.883 49.9795C122.712 50.3421 122.627 50.8221 122.627 51.4195C122.627 52.2941 122.723 52.9448 122.915 53.3715C123.128 53.7768 123.416 54.0755 123.779 54.2675C124.163 54.4381 124.621 54.5448 125.155 54.5875C125.688 54.6301 126.285 54.7261 126.947 54.8755C127.331 54.9181 127.715 54.9501 128.099 54.9715C128.483 54.9715 128.867 54.9715 129.251 54.9715H131.555C130.488 54.9075 129.421 54.8755 128.355 54.8755C127.309 54.8541 126.36 54.7581 125.507 54.5875C124.675 54.4168 123.992 54.1181 123.459 53.6915C122.947 53.2648 122.691 52.6141 122.691 51.7395C122.691 51.0355 122.776 50.5021 122.947 50.1395C123.139 49.7555 123.384 49.4781 123.683 49.3075C124.003 49.1155 124.376 49.0088 124.803 48.9875C125.229 48.9448 125.688 48.9235 126.179 48.9235C126.776 48.9235 127.384 48.9555 128.003 49.0195C127.512 49.1688 127.011 49.2861 126.499 49.3715C126.008 49.4355 125.549 49.5101 125.123 49.5955C124.696 49.6595 124.323 49.7555 124.003 49.8835C123.704 49.9901 123.501 50.1501 123.395 50.3635V51.8035L123.139 51.9315C123.224 52.4648 123.299 52.8701 123.363 53.1475C123.448 53.4035 123.661 53.6061 124.003 53.7555C124.344 53.8835 124.888 53.9901 125.635 54.0755C126.403 54.1608 127.512 54.2995 128.963 54.4915H131.267C131.672 54.4915 131.907 54.4808 131.971 54.4595C132.056 54.4168 132.109 54.3955 132.131 54.3955L131.843 52.6675C131.8 52.2408 131.747 51.8568 131.683 51.5155C131.619 51.1741 131.533 50.8115 131.427 50.4275C131.405 50.4915 131.341 50.5235 131.235 50.5235C131.341 50.8861 131.427 51.2701 131.491 51.6755C131.576 52.0808 131.64 52.4648 131.683 52.8275C131.747 53.1901 131.789 53.4995 131.811 53.7555C131.853 54.0115 131.896 54.1608 131.939 54.2035L131.747 54.2675C131.704 54.2888 131.64 54.2995 131.555 54.2995H131.363C131.213 54.2995 131.043 54.2888 130.851 54.2675C130.659 54.2248 130.413 54.2035 130.115 54.2035H129.059C128.227 54.2035 127.459 54.1608 126.755 54.0755C126.093 53.9901 125.517 53.8835 125.027 53.7555C125.517 53.8621 126.115 53.9475 126.819 54.0115C127.565 54.0968 128.259 54.1395 128.899 54.1395C129.176 54.1395 129.464 54.1395 129.763 54.1395C130.083 54.1181 130.424 54.1075 130.787 54.1075H131.843C131.779 54.0435 131.704 54.0115 131.619 54.0115H131.555C131.469 52.5395 131.277 51.1315 130.979 49.7875C130.68 48.4435 130.2 47.2701 129.539 46.2675C128.877 45.2435 128.013 44.4328 126.947 43.8355C125.88 43.2168 124.547 42.9075 122.947 42.9075C122.499 42.9075 122.051 42.9395 121.603 43.0035C121.155 43.0675 120.696 43.1528 120.227 43.2595C120.269 43.2168 120.291 43.1741 120.291 43.1315C120.291 43.0248 120.248 42.9288 120.163 42.8435C120.077 42.7368 120.035 42.6301 120.035 42.5235C120.035 42.3955 120.163 42.2781 120.419 42.1715C120.696 42.0435 121.272 41.9261 122.147 41.8195C122.104 41.7768 122.072 41.7128 122.051 41.6275C122.051 41.5421 122.051 41.4781 122.051 41.4355C120.899 41.4355 120.003 41.4141 119.363 41.3715C118.723 41.3075 118.403 41.1475 118.403 40.8915C118.403 40.7848 118.531 40.6355 118.787 40.4435C119.064 40.2515 119.448 40.0701 119.939 39.8995C120.429 39.7075 121.016 39.5475 121.699 39.4195C122.403 39.2701 123.181 39.1955 124.035 39.1955C125.677 39.1955 127.085 39.4515 128.259 39.9635C129.432 40.4541 130.413 41.1155 131.203 41.9475C132.013 42.7581 132.664 43.6861 133.155 44.7315C133.667 45.7768 134.072 46.8328 134.371 47.8995C134.691 48.9448 134.925 49.9688 135.075 50.9715C135.224 51.9528 135.363 52.8061 135.491 53.5315C135.491 53.6595 135.491 53.7875 135.491 53.9155C135.512 54.0435 135.523 54.1928 135.523 54.3635C135.523 54.9821 135.405 55.5261 135.171 55.9955C134.957 56.4435 134.648 56.8168 134.243 57.1155C133.859 57.4355 133.4 57.6701 132.867 57.8195C132.355 57.9901 131.8 58.0755 131.203 58.0755C130.733 58.0755 130.125 58.0648 129.379 58.0435C128.632 58.0221 127.917 57.9581 127.235 57.8515C126.787 57.7448 126.296 57.6595 125.763 57.5955C125.229 57.5528 124.685 57.4675 124.131 57.3395C123.576 57.2115 123.032 57.0301 122.499 56.7955C121.987 56.5608 121.517 56.2088 121.091 55.7395C120.685 55.2488 120.355 54.6195 120.099 53.8515C119.864 53.0835 119.747 52.1128 119.747 50.9395C119.747 49.8301 120.003 48.9448 120.515 48.2835C121.027 47.6008 121.635 47.0781 122.339 46.7155C123.064 46.3315 123.8 46.0861 124.547 45.9795C125.293 45.8515 125.901 45.7875 126.371 45.7875C126.968 45.7875 127.363 45.8301 127.555 45.9155C127.747 46.0008 127.843 46.0861 127.843 46.1715C127.843 46.2355 127.832 46.2888 127.811 46.3315C127.277 46.3315 126.595 46.3528 125.763 46.3955C124.931 46.4381 124.12 46.5768 123.331 46.8115C122.563 47.0461 121.901 47.4088 121.347 47.8995C120.792 48.3688 120.515 49.0408 120.515 49.9155C120.707 49.1261 121.027 48.5075 121.475 48.0595C121.944 47.5901 122.477 47.2488 123.075 47.0355C123.672 46.8008 124.28 46.6621 124.899 46.6195C125.539 46.5555 126.115 46.5235 126.627 46.5235H127.715C127.629 46.6088 127.587 46.6941 127.587 46.7795C127.587 46.8648 127.629 46.9395 127.715 47.0035H128.963C129.304 47.0675 129.549 47.1848 129.699 47.3555C129.848 47.5048 129.923 47.6435 129.923 47.7715C129.923 47.9635 129.827 48.1341 129.635 48.2835C129.443 48.4328 129.123 48.5821 128.675 48.7315ZM123.299 56.4755C123.896 56.7101 124.504 56.8915 125.123 57.0195C125.763 57.1475 126.392 57.2328 127.011 57.2755C127.629 57.3395 128.205 57.3715 128.739 57.3715C128.312 57.3288 127.885 57.2541 127.459 57.1475C127.011 57.0408 126.616 56.9448 126.275 56.8595C125.912 56.7741 125.549 56.7208 125.187 56.6995C124.845 56.6568 124.483 56.6035 124.099 56.5395C123.736 56.4755 123.363 56.3795 122.979 56.2515C122.595 56.1021 122.211 55.8888 121.827 55.6115C122.232 55.9741 122.723 56.2621 123.299 56.4755ZM123.619 53.1155C123.597 53.0941 123.661 53.1581 123.811 53.3075C123.939 53.4355 124.109 53.5315 124.323 53.5955C124.216 53.5528 124.056 53.4995 123.843 53.4355C123.608 53.3501 123.491 53.2221 123.491 53.0515L123.619 53.1155ZM124.419 53.5955C124.397 53.5955 124.365 53.5955 124.323 53.5955C124.344 53.5955 124.376 53.5955 124.419 53.5955ZM151.097 41.1155C150.905 41.1155 150.638 41.1475 150.297 41.2115C149.977 41.2755 149.646 41.3501 149.305 41.4355C148.985 41.5208 148.686 41.6061 148.409 41.6915C148.153 41.7768 147.993 41.8408 147.929 41.8835C148.483 41.7981 148.995 41.7021 149.465 41.5955C149.934 41.4675 150.446 41.4035 151.001 41.4035C150.894 41.5955 150.755 41.7448 150.585 41.8515C150.414 41.9581 150.222 42.0435 150.009 42.1075C149.817 42.1501 149.603 42.1928 149.369 42.2355C149.134 42.2568 148.889 42.2995 148.633 42.3635L148.409 42.0755C148.003 42.2248 147.694 42.3208 147.481 42.3635C147.267 42.3848 147.043 42.3955 146.809 42.3955C146.553 42.3955 146.286 42.3955 146.009 42.3955C145.753 42.3741 145.465 42.3635 145.145 42.3635C145.145 42.4701 145.134 42.5555 145.113 42.6195C145.603 42.6195 146.019 42.6195 146.361 42.6195C146.702 42.5981 147.118 42.5555 147.609 42.4915C147.139 42.5768 146.723 42.6408 146.361 42.6835C146.019 42.7261 145.603 42.7475 145.113 42.7475C145.027 43.2381 144.953 43.7181 144.889 44.1875C144.825 44.6568 144.793 45.1155 144.793 45.5635C144.793 45.8195 144.803 46.1181 144.825 46.4595C144.846 46.8008 144.867 47.1528 144.889 47.5155C144.931 47.8568 144.963 48.1875 144.985 48.5075C145.006 48.8061 145.017 49.0301 145.017 49.1795V51.0995C145.123 51.5261 145.433 51.8461 145.945 52.0595C146.457 52.2728 147.193 52.3795 148.153 52.3795H149.177C149.539 52.3795 149.785 52.4221 149.913 52.5075C150.062 52.5715 150.137 52.6675 150.137 52.7955C150.137 52.9021 150.051 52.9661 149.881 52.9875C149.71 52.9875 149.539 52.9875 149.369 52.9875C148.75 52.9875 148.099 52.9448 147.417 52.8595C146.777 52.7741 146.147 52.6781 145.529 52.5715C146.147 52.7208 146.798 52.8595 147.481 52.9875C148.185 53.0941 148.867 53.1475 149.529 53.1475H149.817C149.902 53.1475 149.998 53.1368 150.105 53.1155C150.105 53.2221 150.105 53.3181 150.105 53.4035C150.126 53.4888 150.158 53.5848 150.201 53.6915L150.457 53.6275C150.521 53.6061 150.595 53.5955 150.681 53.5955C150.766 53.5741 150.83 53.5421 150.873 53.4995C151.555 53.5635 151.897 53.7981 151.897 54.2035C151.897 54.4381 151.833 54.6301 151.705 54.7795C151.577 54.9288 151.417 55.0461 151.225 55.1315C151.033 55.2168 150.819 55.2808 150.585 55.3235C150.35 55.3448 150.126 55.3555 149.913 55.3555C149.166 55.3555 148.43 55.3128 147.705 55.2275C147.001 55.1208 146.307 55.0141 145.625 54.9075C146.222 55.1208 146.979 55.2915 147.897 55.4195C148.814 55.5475 149.742 55.6115 150.681 55.6115C150.446 55.7608 150.169 55.8781 149.849 55.9635C149.529 56.0488 149.198 56.0915 148.857 56.0915L146.553 55.8035C146.254 55.7608 146.019 55.7181 145.849 55.6755C145.699 55.6328 145.55 55.5901 145.401 55.5475C145.251 55.4835 145.081 55.4195 144.889 55.3555C144.718 55.2915 144.473 55.2168 144.153 55.1315V54.7795C143.598 54.6301 143.15 54.3741 142.809 54.0115C142.467 53.6488 142.201 53.2541 142.009 52.8275C141.817 52.4008 141.689 51.9741 141.625 51.5475C141.561 51.0995 141.529 50.7048 141.529 50.3635C141.529 50.0008 141.529 49.6701 141.529 49.3715C141.55 49.0515 141.561 48.7315 141.561 48.4115C141.561 48.1768 141.55 47.8781 141.529 47.5155C141.529 47.1528 141.518 46.7688 141.497 46.3635C141.475 45.9581 141.454 45.5421 141.433 45.1155C141.433 44.6888 141.433 44.2835 141.433 43.8995C141.433 43.6648 141.433 43.4408 141.433 43.2275C141.454 43.0141 141.475 42.8221 141.497 42.6515H141.177C141.155 42.8008 141.145 42.9715 141.145 43.1635V43.7395C141.145 44.3581 141.155 44.9768 141.177 45.5955C141.198 46.1928 141.209 46.7475 141.209 47.2595C141.23 47.7715 141.251 48.2195 141.273 48.6035C141.294 48.9661 141.305 49.2328 141.305 49.4035V50.6835V50.9395C141.241 50.3635 141.177 49.5421 141.113 48.4755C141.049 47.2381 141.017 45.8728 141.017 44.3795V43.8035C141.017 43.5688 141.017 43.3448 141.017 43.1315C141.038 42.9181 141.07 42.7581 141.113 42.6515L140.025 42.5875C139.79 42.4381 139.555 42.3208 139.321 42.2355C139.086 42.1501 138.873 42.1075 138.681 42.1075V41.4675C138.681 41.3395 138.691 41.2328 138.713 41.1475C138.755 41.0408 138.862 40.9875 139.033 40.9875C139.075 40.9875 139.182 41.0088 139.353 41.0515V40.6675C139.118 40.5395 138.926 40.3688 138.777 40.1555C138.627 39.9208 138.553 39.6861 138.553 39.4515C138.553 38.8968 138.947 38.6195 139.737 38.6195C140.035 38.6195 140.345 38.6408 140.665 38.6835C140.985 38.7261 141.315 38.7581 141.657 38.7795C141.742 38.3101 141.817 37.8941 141.881 37.5315C141.945 37.1475 142.009 36.7848 142.073 36.4435C142.137 36.0808 142.211 35.7288 142.297 35.3875C142.382 35.0248 142.489 34.6515 142.617 34.2675C142.809 33.8408 142.958 33.3821 143.065 32.8915C143.171 32.3795 143.246 31.8781 143.289 31.3875L143.961 31.4195C144.067 31.4195 144.153 31.4515 144.217 31.5155C144.302 31.5795 144.345 31.7288 144.345 31.9635C144.345 32.1555 144.313 32.4115 144.249 32.7315L144.633 32.8275C144.803 32.2515 145.006 31.7821 145.241 31.4195C145.497 31.0568 145.742 30.8755 145.977 30.8755C146.339 30.8755 146.563 31.3341 146.649 32.2515V32.8275C146.649 33.3821 146.606 33.9048 146.521 34.3955C146.457 34.8648 146.371 35.3341 146.265 35.8035C146.158 36.2728 146.051 36.7528 145.945 37.2435C145.838 37.7341 145.742 38.2675 145.657 38.8435C146.126 38.9075 146.585 38.9395 147.033 38.9395C147.246 38.9395 147.459 38.9395 147.673 38.9395C147.886 38.9181 148.099 38.9075 148.313 38.9075C148.526 38.9075 148.75 38.8221 148.985 38.6515C149.219 38.4808 149.433 38.3955 149.625 38.3955C149.795 38.3955 149.923 38.4488 150.009 38.5555C150.094 38.6621 150.137 38.7795 150.137 38.9075C149.753 39.0141 149.369 39.1315 148.985 39.2595C148.622 39.3661 148.27 39.4728 147.929 39.5795C148.27 39.5368 148.633 39.4621 149.017 39.3555C149.401 39.2275 149.806 39.1101 150.233 39.0035C150.233 39.1101 150.233 39.2061 150.233 39.2915C150.254 39.3768 150.286 39.4728 150.329 39.5795C150.371 39.5795 150.425 39.5688 150.489 39.5475C150.617 39.5048 150.691 39.4835 150.713 39.4835C150.926 39.5901 151.065 39.7288 151.129 39.8995C151.193 40.0488 151.225 40.2195 151.225 40.4115C151.225 40.5608 151.203 40.6995 151.161 40.8275C151.118 40.9341 151.097 41.0301 151.097 41.1155ZM142.617 52.9235C142.318 52.3475 142.158 51.7821 142.137 51.2275C142.115 50.6728 142.083 50.1501 142.041 49.6595L141.753 44.7955L141.657 45.3715C141.657 46.8008 141.699 48.1021 141.785 49.2755C141.891 50.4275 142.041 51.3235 142.233 51.9635C142.233 52.1555 142.222 52.2835 142.201 52.3475C142.201 52.4115 142.201 52.4648 142.201 52.5075C142.201 52.5501 142.222 52.6035 142.265 52.6675C142.329 52.7315 142.446 52.8168 142.617 52.9235ZM144.441 51.1955C144.398 51.0248 144.377 50.8435 144.377 50.6515V49.0835C144.355 49.2968 144.334 49.5101 144.313 49.7235C144.291 49.9155 144.281 50.1181 144.281 50.3315C144.281 50.8861 144.313 51.3128 144.377 51.6115C144.441 51.8675 144.569 52.0808 144.761 52.2515C144.654 52.1235 144.579 51.9848 144.537 51.8355C144.515 51.6648 144.483 51.4515 144.441 51.1955ZM141.337 51.1635L141.305 50.9395L141.337 51.1635ZM144.825 52.2835C144.803 52.2621 144.782 52.2515 144.761 52.2515C144.782 52.2515 144.803 52.2621 144.825 52.2835ZM169.486 55.4195C168.548 55.8035 167.577 56.1021 166.574 56.3155C165.593 56.5288 164.59 56.6355 163.566 56.6355C162.628 56.6355 161.71 56.5288 160.814 56.3155C159.918 56.1021 159.097 55.7608 158.35 55.2915C157.604 54.8221 156.942 54.2141 156.366 53.4675C155.812 52.6995 155.385 51.7821 155.086 50.7155C155.15 51.6541 155.406 52.4648 155.854 53.1475C156.302 53.8088 156.857 54.3848 157.518 54.8755C158.201 55.3448 158.948 55.7288 159.758 56.0275C160.569 56.3261 161.348 56.5715 162.094 56.7635C162.201 56.7848 162.35 56.7955 162.542 56.7955C163.801 56.7955 164.942 56.6888 165.966 56.4755C166.99 56.2621 168.036 56.0381 169.102 55.8035C168.761 56.0808 168.345 56.3261 167.854 56.5395C167.385 56.7315 166.862 56.9021 166.286 57.0515C165.732 57.1795 165.145 57.2755 164.526 57.3395C163.908 57.4248 163.289 57.4675 162.67 57.4675H162.318C162.212 57.4675 162.105 57.4568 161.998 57.4355L161.774 57.0195C161.006 56.9341 160.206 56.7421 159.374 56.4435C158.542 56.1448 157.774 55.7288 157.07 55.1955C156.388 54.6408 155.812 53.9688 155.342 53.1795C154.894 52.3901 154.67 51.4728 154.67 50.4275C154.67 49.5528 154.788 48.6995 155.022 47.8675C155.257 47.0355 155.566 46.2248 155.95 45.4355C155.929 45.4568 155.897 45.4675 155.854 45.4675C155.79 45.4675 155.758 45.4248 155.758 45.3395C155.374 46.1075 155.044 46.9075 154.766 47.7395C154.51 48.5501 154.382 49.4355 154.382 50.3955C154.382 51.4195 154.617 52.3261 155.086 53.1155C155.556 53.9048 156.11 54.5768 156.75 55.1315C157.412 55.6648 158.084 56.1021 158.766 56.4435C159.385 56.7421 159.897 56.9555 160.302 57.0835C159.641 56.8915 158.969 56.6141 158.286 56.2515C157.561 55.8675 156.9 55.3875 156.302 54.8115C155.726 54.2141 155.246 53.5315 154.862 52.7635C154.478 51.9741 154.286 51.1101 154.286 50.1715C154.286 48.8275 154.532 47.5688 155.022 46.3955C155.513 45.2221 156.164 44.2088 156.974 43.3555C157.785 42.4808 158.713 41.7981 159.758 41.3075C160.825 40.7955 161.924 40.5395 163.054 40.5395C163.246 40.4968 163.481 40.4755 163.758 40.4755C164.057 40.4541 164.302 40.4435 164.494 40.4435C165.177 40.5928 165.86 40.7741 166.542 40.9875C167.246 41.2008 167.94 41.4995 168.622 41.8835C168.537 41.9261 168.473 41.9901 168.43 42.0755C168.409 42.1395 168.388 42.2248 168.366 42.3315C168.345 42.4168 168.302 42.4915 168.238 42.5555C168.196 42.6195 168.11 42.6515 167.982 42.6515C167.876 42.6515 167.716 42.6195 167.502 42.5555C167.289 42.4915 166.99 42.3955 166.606 42.2675C166.542 42.3315 166.51 42.4275 166.51 42.5555C167.022 42.8115 167.374 43.1101 167.566 43.4515C167.758 43.7715 167.854 44.0808 167.854 44.3795C167.854 44.5288 167.694 44.6568 167.374 44.7635C167.097 44.7635 166.66 44.7101 166.062 44.6035C165.486 44.4968 164.836 44.4435 164.11 44.4435C163.79 44.4435 163.438 44.4648 163.054 44.5075C162.67 44.5288 162.286 44.5928 161.902 44.6995C161.518 44.7848 161.156 44.9235 160.814 45.1155C160.473 45.2861 160.196 45.5208 159.982 45.8195C159.726 46.1608 159.492 46.5448 159.278 46.9715C159.065 47.3981 158.873 47.8355 158.702 48.2835C158.532 48.7101 158.393 49.1261 158.286 49.5315C158.201 49.9368 158.158 50.2995 158.158 50.6195C158.158 50.9181 158.297 51.2595 158.574 51.6435C158.852 52.0061 159.204 52.3581 159.63 52.6995C160.078 53.0195 160.58 53.2968 161.134 53.5315C161.71 53.7661 162.286 53.8835 162.862 53.8835C163.14 53.8835 163.47 53.8408 163.854 53.7555C164.26 53.6701 164.665 53.5741 165.07 53.4675C165.497 53.3395 165.913 53.2328 166.318 53.1475C166.724 53.0621 167.065 53.0195 167.342 53.0195C167.598 53.0195 167.758 53.0515 167.822 53.1155C167.908 53.1581 167.95 53.2541 167.95 53.4035C167.46 53.5741 166.948 53.7448 166.414 53.9155C166.073 54.0221 165.742 54.1288 165.422 54.2355L166.414 53.9795C166.926 53.8301 167.438 53.6701 167.95 53.4995C167.95 53.6061 167.95 53.7021 167.95 53.7875C167.972 53.8728 168.036 53.9688 168.142 54.0755L168.462 53.9475C168.633 53.8835 168.814 53.7981 169.006 53.6915C169.433 53.6915 169.721 53.7341 169.87 53.8195C170.041 53.9048 170.126 54.0328 170.126 54.2035C170.126 54.3101 170.105 54.4061 170.062 54.4915C170.041 54.5555 169.998 54.6301 169.934 54.7155C169.892 54.7795 169.828 54.8648 169.742 54.9715C169.657 55.0781 169.572 55.2275 169.486 55.4195ZM157.87 51.5795C158.041 51.9635 158.297 52.3368 158.638 52.6995C158.98 53.0408 159.364 53.3501 159.79 53.6275C160.238 53.8835 160.708 54.0968 161.198 54.2675C161.668 54.4381 162.137 54.5341 162.606 54.5555C162.18 54.5128 161.732 54.4061 161.262 54.2355C160.772 54.0648 160.302 53.8515 159.854 53.5955C159.428 53.3181 159.033 53.0088 158.67 52.6675C158.329 52.3261 158.062 51.9635 157.87 51.5795ZM165.23 54.2675C165.294 54.2461 165.358 54.2355 165.422 54.2355C165.358 54.2355 165.294 54.2461 165.23 54.2675ZM160.43 57.1155C160.388 57.1155 160.345 57.1048 160.302 57.0835C160.345 57.1048 160.388 57.1155 160.43 57.1155ZM177.141 56.6995C177.077 56.8701 177.045 56.9981 177.045 57.0835C177.045 57.1475 177.066 57.2435 177.109 57.3715L173.301 56.7635V56.6355C173.151 56.6355 173.077 56.5075 173.077 56.2515C173.077 56.0808 173.098 55.9101 173.141 55.7395C173.183 55.5688 173.215 55.4301 173.237 55.3235C173.407 54.2995 173.535 53.3288 173.621 52.4115C173.727 51.4941 173.813 50.5235 173.877 49.4995C173.877 47.4941 173.823 45.6808 173.717 44.0595C173.631 42.4168 173.589 40.8061 173.589 39.2275C173.589 37.8835 173.653 36.6781 173.781 35.6115C173.909 34.5448 173.973 33.4355 173.973 32.2835C173.973 31.4728 173.941 30.6515 173.877 29.8195L174.613 29.6915C174.677 29.6915 174.741 29.7341 174.805 29.8195C174.869 29.8835 174.922 30.0328 174.965 30.2675C175.007 30.4808 175.039 30.7901 175.061 31.1955C175.103 31.5795 175.125 32.0808 175.125 32.6995H175.509C175.551 31.2488 175.647 30.0968 175.797 29.2435C175.967 28.3901 176.17 27.9635 176.405 27.9635C176.618 27.9635 176.799 28.1981 176.949 28.6675C177.098 29.1155 177.215 29.7235 177.301 30.4915C177.407 31.2595 177.482 32.1341 177.525 33.1155C177.589 34.0968 177.621 35.1101 177.621 36.1555V40.1875C178.047 39.7181 178.581 39.2915 179.221 38.9075C179.882 38.5235 180.607 38.3315 181.397 38.3315C182.549 38.3315 183.519 38.6195 184.309 39.1955C185.119 39.7501 185.791 40.4435 186.325 41.2755C186.858 42.0861 187.263 42.9608 187.541 43.8995C187.839 44.8168 188.053 45.6275 188.181 46.3315C188.287 46.7581 188.383 47.2381 188.469 47.7715C188.575 48.3048 188.661 48.8488 188.725 49.4035C188.789 49.9581 188.831 50.5128 188.853 51.0675C188.895 51.6221 188.917 52.1341 188.917 52.6035C188.917 52.6675 188.906 52.8488 188.885 53.1475C188.885 53.4248 188.863 53.7235 188.821 54.0435C188.778 54.3635 188.714 54.6515 188.629 54.9075C188.543 55.1635 188.426 55.2915 188.277 55.2915C188.234 55.2915 188.202 55.2808 188.181 55.2595C188.223 54.7688 188.255 54.2888 188.277 53.8195C188.298 53.3501 188.309 52.8701 188.309 52.3795C188.309 51.2488 188.234 50.1288 188.085 49.0195C187.957 47.9955 187.765 46.9608 187.509 45.9155C187.722 46.8541 187.882 47.7821 187.989 48.6995C188.117 49.6808 188.181 50.6621 188.181 51.6435C188.181 52.8168 188.117 53.9581 187.989 55.0675C187.775 55.1528 187.615 55.3555 187.509 55.6755C187.423 55.9955 187.338 56.3368 187.253 56.6995C187.167 57.0621 187.05 57.3821 186.901 57.6595C186.773 57.9581 186.559 58.1075 186.261 58.1075C186.154 58.1075 186.058 58.0328 185.973 57.8835C185.909 57.7555 185.845 57.5848 185.781 57.3715C185.717 57.1795 185.663 56.9661 185.621 56.7315C185.599 56.4755 185.589 56.2408 185.589 56.0275C185.589 55.8781 185.61 55.7501 185.653 55.6435C185.695 55.5368 185.738 55.4088 185.781 55.2595C185.866 54.7475 185.919 54.2355 185.941 53.7235C185.983 53.1901 186.005 52.6461 186.005 52.0915C186.005 51.4515 185.973 50.7368 185.909 49.9475C185.845 49.1581 185.738 48.3581 185.589 47.5475C185.439 46.7368 185.247 45.9581 185.013 45.2115C184.778 44.4435 184.479 43.7715 184.117 43.1955C183.775 42.5981 183.37 42.1288 182.901 41.7875C182.431 41.4248 181.898 41.2435 181.301 41.2435C180.831 41.2435 180.405 41.4461 180.021 41.8515C179.658 42.2355 179.327 42.7368 179.029 43.3555C178.751 43.9528 178.506 44.6248 178.293 45.3715C178.101 46.0968 177.93 46.7901 177.781 47.4515V47.6115C177.909 46.9501 178.069 46.2781 178.261 45.5955C178.474 44.9128 178.73 44.2835 179.029 43.7075C179.349 43.1101 179.722 42.5981 180.149 42.1715C180.575 41.7448 181.077 41.4675 181.653 41.3395C182.165 41.3395 182.623 41.5208 183.029 41.8835C183.434 42.2461 183.786 42.7261 184.085 43.3235C184.405 43.8995 184.671 44.5608 184.885 45.3075C185.119 46.0328 185.301 46.7581 185.429 47.4835C185.578 48.2088 185.685 48.9021 185.749 49.5635C185.813 50.2035 185.845 50.7368 185.845 51.1635C185.845 51.8461 185.813 52.5288 185.749 53.2115C185.685 53.8728 185.599 54.5235 185.493 55.1635C185.386 54.2461 185.311 53.2861 185.269 52.2835C185.226 51.2808 185.151 50.2888 185.045 49.3075C184.938 48.3261 184.778 47.3661 184.565 46.4275C184.351 45.4675 184.021 44.5715 183.573 43.7395L183.861 43.6435C183.669 43.2808 183.487 43.0141 183.317 42.8435C183.167 42.6728 183.018 42.5448 182.869 42.4595C182.741 42.3741 182.591 42.2995 182.421 42.2355C182.25 42.1501 182.058 42.0115 181.845 41.8195H181.365C180.639 41.8195 179.989 42.5021 179.413 43.8675C178.837 45.2328 178.303 47.1528 177.813 49.6275L177.717 51.6435C177.845 50.7688 178.005 49.7768 178.197 48.6675C178.41 47.5368 178.655 46.4808 178.933 45.4995C179.231 44.4968 179.573 43.6648 179.957 43.0035C180.362 42.3208 180.831 41.9795 181.365 41.9795C181.599 41.9795 181.877 42.0541 182.197 42.2035C182.517 42.3528 182.847 42.6515 183.189 43.0995C182.89 42.7581 182.591 42.5021 182.293 42.3315C181.994 42.1608 181.727 42.0755 181.493 42.0755L181.269 42.1075C180.842 42.1075 180.469 42.3741 180.149 42.9075C179.829 43.4408 179.53 44.1341 179.253 44.9875C178.997 45.8195 178.773 46.7795 178.581 47.8675C178.389 48.9341 178.207 50.0115 178.037 51.0995C177.866 52.1661 177.706 53.2008 177.557 54.2035C177.429 55.1848 177.29 56.0168 177.141 56.6995ZM176.501 57.2115C176.629 57.1688 176.703 57.1048 176.725 57.0195C176.767 56.9341 176.81 56.8915 176.853 56.8915L177.077 55.1955L176.565 56.7955L176.469 56.9875C176.106 56.9661 175.754 56.9235 175.413 56.8595C175.114 56.8168 174.794 56.7741 174.453 56.7315C174.133 56.6675 173.845 56.6141 173.589 56.5715C173.525 56.3795 173.493 56.2408 173.493 56.1555C173.493 56.1341 173.493 56.1128 173.493 56.0915C173.514 56.0701 173.525 56.0488 173.525 56.0275L173.301 55.9955C173.343 56.3368 173.375 56.5395 173.397 56.6035C173.439 56.6461 173.493 56.6888 173.557 56.7315L176.501 57.2115ZM184.245 39.9955C183.818 39.6968 183.359 39.4621 182.869 39.2915C182.378 39.0995 181.866 39.0035 181.333 39.0035C180.479 39.0035 179.743 39.2381 179.125 39.7075C178.506 40.1555 178.005 40.6568 177.621 41.2115V41.3075C177.813 41.0301 178.026 40.7635 178.261 40.5075C178.517 40.2301 178.794 39.9955 179.093 39.8035C179.391 39.5901 179.733 39.4195 180.117 39.2915C180.501 39.1635 180.938 39.0995 181.429 39.0995C182.389 39.0995 183.242 39.3768 183.989 39.9315C184.757 40.4861 185.418 41.1688 185.973 41.9795C185.738 41.6168 185.482 41.2648 185.205 40.9235C184.949 40.5821 184.629 40.2728 184.245 39.9955ZM187.445 45.6915L187.509 45.9155L187.445 45.6915Z" fill="#F4F3F2"/>
</g>
<defs>
<filter id="filter0_d_7_74" x="0" y="0" width="230.513" height="102" filterUnits="userSpaceOnUse" color-interpolation-filters="sRGB">
<feFlood flood-opacity="0" result="BackgroundImageFix"/>
<feColorMatrix in="SourceAlpha" type="matrix" values="0 0 0 0 0 0 0 0 0 0 0 0 0 0 0 0 0 0 127 0" result="hardAlpha"/>
<feOffset dy="4"/>
<feGaussianBlur stdDeviation="2"/>
<feComposite in2="hardAlpha" operator="out"/>
<feColorMatrix type="matrix" values="0 0 0 0 0 0 0 0 0 0 0 0 0 0 0 0 0 0 0.25 0"/>
<feBlend mode="normal" in2="BackgroundImageFix" result="effect1_dropShadow_7_74"/>
<feBlend mode="normal" in="SourceGraphic" in2="effect1_dropShadow_7_74" result="shape"/>
</filter>
</defs>
</svg>
