<svg width="152" height="73" viewBox="0 0 152 73" fill="none" xmlns="http://www.w3.org/2000/svg">
<g filter="url(#filter0_d_5_1119)">
<path d="M130.184 59.73C131.473 59.73 132.44 59.8607 133.084 60.122C133.728 60.3833 134.051 60.6663 134.051 60.9712C134.051 61.4502 133.487 61.864 132.359 62.2124C131.232 62.6043 130.023 62.9745 128.735 63.3229C126.802 63.018 124.466 62.735 121.727 62.4737C119.15 62.2124 116.411 61.9728 113.512 61.7551C110.612 61.5809 107.712 61.4502 104.813 61.3631C101.913 61.276 99.2552 61.2325 96.8389 61.2325H95.6307L84.9988 61.2978C88.5427 61.3849 92.0867 61.4285 95.6307 61.4285C99.3357 61.472 102.96 61.5591 106.504 61.6898C110.209 61.8204 113.753 62.0382 117.136 62.343C120.68 62.6479 123.982 63.0833 127.043 63.6495L122.935 64.1068C120.68 64.1068 118.908 63.9979 117.619 63.7801C116.331 63.5624 114.559 63.41 112.303 63.3229L109.645 62.6043C104.974 62.6043 100.383 62.5172 95.8723 62.343C91.3618 62.2124 86.7708 62.147 82.0992 62.147C78.233 62.147 74.5279 62.2777 70.984 62.539V62.9309C64.0571 63.018 57.2108 63.1269 50.445 63.2576C43.6793 63.3882 36.833 63.5188 29.9061 63.6495C28.1341 63.4317 26.201 63.2576 24.1069 63.1269C22.1738 63.0398 20.2407 62.9963 18.3076 62.9963C18.3076 62.9092 18.3076 62.8221 18.3076 62.735C18.4687 62.6914 18.5493 62.6261 18.5493 62.539C18.5493 62.1906 18.3882 61.7986 18.066 61.3631L21.2073 60.6446L22.8987 60.7099V59.9913C21.1267 59.7736 19.4353 59.4469 17.8244 59.0114C16.3746 58.6195 15.6497 58.1187 15.6497 57.509C15.6497 57.0299 16.2135 56.638 17.3411 56.3331C18.4687 56.0718 19.838 55.8759 21.4489 55.7452C23.2209 55.6146 24.9929 55.5275 26.7648 55.4839C28.5368 55.4839 30.0672 55.4839 31.3559 55.4839C39.0882 55.4839 46.8205 55.375 54.5528 55.1573C62.4462 54.9831 70.2591 54.896 77.9914 54.896C79.2801 54.896 81.5353 54.9178 84.7571 54.9613C87.9789 55.0484 91.6034 55.1355 95.6307 55.2226C99.6579 55.3533 103.766 55.5057 107.954 55.6799C112.303 55.8541 116.25 56.0501 119.794 56.2678C123.338 56.4856 126.238 56.7251 128.493 56.9864C130.909 57.2477 132.117 57.509 132.117 57.7703C132.117 57.9009 131.956 58.0969 131.634 58.3582C124.868 57.7921 118.022 57.3783 111.095 57.117C104.33 56.8993 97.5638 56.638 90.798 56.3331C97.4027 56.7686 104.007 57.117 110.612 57.3783C117.539 57.6396 124.385 58.0751 131.151 58.6848L130.184 59.73ZM108.921 63.2576C103.766 63.0834 98.5303 62.9527 93.2143 62.8656C87.8984 62.8221 82.5019 62.8003 77.0248 62.8003C78.6357 62.7567 80.2466 62.735 81.8575 62.735H86.6902C90.3953 62.735 94.1003 62.7567 97.8054 62.8003C101.51 62.8874 105.216 63.0398 108.921 63.2576Z" fill="#1E1E1E"/>
<path d="M22.9306 4.55034C21.642 4.52785 20.6779 4.38035 20.0382 4.10785C19.3985 3.83534 19.0813 3.54669 19.0867 3.24189C19.095 2.76291 19.666 2.3591 20.7995 2.03043C21.9338 1.65823 23.1482 1.30919 24.4428 0.983338C26.3703 1.32188 28.7008 1.64567 31.4344 1.95473C34.0068 2.26097 36.7408 2.54825 39.6361 2.81657C42.5323 3.04135 45.4292 3.22258 48.3268 3.36027C51.2245 3.49796 53.8813 3.5879 56.2973 3.63007L57.5053 3.65115L68.1367 3.77139C64.5948 3.62245 61.0521 3.51706 57.5087 3.45521C53.8049 3.347 50.1825 3.19666 46.6413 3.00418C42.9391 2.80889 39.3995 2.52932 36.0224 2.16548C32.4843 1.79883 29.1901 1.30577 26.1397 0.686288L30.2549 0.300767C32.5098 0.340127 34.2796 0.479918 35.5643 0.720124C36.849 0.960332 38.6181 1.14366 40.8715 1.2701L43.5165 2.03495C48.1874 2.11648 52.7762 2.28369 57.283 2.53659C61.7906 2.74594 66.3798 2.89137 71.0507 2.9729C74.9163 3.04038 78.623 2.97441 82.171 2.775L82.1779 2.38312C89.1052 2.41692 95.9524 2.42754 102.719 2.41499C109.486 2.40244 116.334 2.3913 123.262 2.38156C125.03 2.6302 126.96 2.83811 129.051 3.00529C130.983 3.12611 132.915 3.20339 134.847 3.23713C134.846 3.32421 134.844 3.4113 134.843 3.49839C134.681 3.53912 134.599 3.60302 134.598 3.69011C134.592 4.03845 134.746 4.43316 135.06 4.87421L131.907 5.53785L130.217 5.44302L130.205 6.16148C131.972 6.41012 133.658 6.76621 135.261 7.22976C136.704 7.64695 137.42 8.16035 137.409 8.76995C137.401 9.24893 136.83 9.63097 135.697 9.91609C134.565 10.1577 133.193 10.3297 131.58 10.4322C129.806 10.5319 128.033 10.5881 126.26 10.6007C124.489 10.5698 122.958 10.5431 121.67 10.5206C113.939 10.3856 106.206 10.3596 98.4709 10.4423C90.5756 10.4787 82.7624 10.4295 75.0313 10.2945C73.7428 10.272 71.4882 10.2109 68.2677 10.1111C65.0479 9.96782 61.4255 9.81748 57.4004 9.66011C53.376 9.45919 49.2715 9.2351 45.0869 8.98783C40.7411 8.73775 36.7985 8.47292 33.2588 8.19336C29.7192 7.91379 26.8242 7.6237 24.5739 7.32308C22.1624 7.01965 20.959 6.73731 20.9636 6.47605C20.9659 6.34542 21.1303 6.15229 21.457 5.89665C28.2119 6.58079 35.0499 7.11393 41.9712 7.49608C48.7321 7.83188 55.4923 8.21121 62.2517 8.6341C55.6556 8.0834 49.058 7.61979 42.4589 7.24326C35.5377 6.86111 28.7 6.3062 21.9459 5.57851L22.9306 4.55034ZM44.2527 1.39445C49.4038 1.65859 54.6361 1.88059 59.9497 2.06045C65.2641 2.19677 70.6594 2.31272 76.1356 2.40831C74.5242 2.42374 72.9132 2.4174 71.3026 2.38929L66.4706 2.30495C62.7661 2.24028 59.062 2.15384 55.3582 2.04564C51.6553 1.89389 47.9534 1.67683 44.2527 1.39445Z" fill="#1E1E1E"/>
<path d="M23.0096 63.7745C20.8321 63.7745 18.8506 63.3608 17.065 62.5333C15.2359 61.7494 13.6246 60.6607 12.231 59.2671C10.7939 57.8735 9.57448 56.2621 8.57283 54.433C7.52764 52.6475 6.67842 50.7531 6.02517 48.7498C5.32837 46.7901 4.82755 44.7868 4.5227 42.7399C4.1743 40.6931 4.0001 38.7551 4.0001 36.926C4.0001 35.184 4.13075 33.2461 4.39205 31.1121C4.6098 29.0218 4.9582 26.9096 5.43725 24.7756C5.9163 22.6417 6.52599 20.5731 7.26634 18.5698C7.96313 16.6101 8.79058 14.8899 9.74867 13.4092C10.1406 12.7995 10.8374 11.9067 11.8391 10.7308C12.7972 9.555 13.8641 8.37916 15.04 7.20331C16.1723 5.98392 17.3046 4.91695 18.4369 4.0024C19.5691 3.04431 20.4619 2.54348 21.1152 2.49994L21.7031 3.02253C19.4385 4.72097 17.4788 6.44119 15.8239 8.18319C14.1254 9.88163 12.6665 11.7107 11.4471 13.6705C10.1842 15.6302 9.13898 17.7424 8.31153 20.0069C7.48409 22.3151 6.78729 24.841 6.22114 27.5846C6.87439 24.7974 7.61474 22.2715 8.44218 20.0069C9.22608 17.7859 10.2277 15.7173 11.4471 13.8011C12.623 11.8849 14.0601 10.0776 15.7585 8.37915C17.457 6.68071 19.482 5.00405 21.8337 3.34916L22.4217 4.2637C22.683 3.87175 23.1185 3.52335 23.7281 3.21851C24.2943 2.91366 24.8169 2.76123 25.2959 2.76123C26.1234 2.76123 26.5371 3.1314 26.5371 3.87175C26.5371 4.2637 26.4718 4.65565 26.3411 5.0476C26.1669 5.43955 25.971 5.80972 25.7532 6.15812C23.7935 7.46461 22.0515 8.7711 20.5272 10.0776C18.9595 11.3405 17.6094 12.7124 16.4771 14.1931C15.3013 15.7173 14.3214 17.3722 13.5375 19.1577C12.7536 20.9868 12.1221 23.099 11.6431 25.4942C12.1221 23.2732 12.7318 21.2699 13.4722 19.4843C14.2125 17.7424 15.1488 16.131 16.2811 14.6503C17.3699 13.2132 18.6546 11.8631 20.1353 10.6002C21.616 9.3808 23.3362 8.22673 25.2959 7.13799C24.7298 8.05253 24.0548 8.87998 23.2709 9.62033L20.9192 11.7107C20.1353 12.4511 19.3732 13.1914 18.6328 13.9318C17.8489 14.6721 17.1739 15.4995 16.6078 16.4141L16.0198 16.0221C14.4085 19.0271 13.2327 22.2498 12.4923 25.6902C11.7084 29.1742 11.3165 32.6146 11.3165 36.0115C11.3165 36.9696 11.36 37.9277 11.4471 38.8858C11.5342 39.8439 11.6866 40.7802 11.9044 41.6947C11.9044 41.5641 11.9479 41.4988 12.035 41.4988C12.1657 41.4988 12.231 41.5205 12.231 41.5641C12.1439 40.606 12.0786 39.6479 12.035 38.6898C11.9479 37.7317 11.9044 36.7301 11.9044 35.6849C11.9044 32.5493 12.2092 29.4137 12.8189 26.2781C13.3851 23.1861 14.365 20.4207 15.7585 17.9819C15.1053 19.2448 14.5391 20.5949 14.0601 22.032C13.5811 23.5563 13.2109 25.124 12.9496 26.7354C12.6447 28.3467 12.4488 29.9363 12.3617 31.5041C12.231 33.0719 12.1657 34.5743 12.1657 36.0115C12.1657 38.189 12.3617 40.4318 12.7536 42.7399C13.1456 45.0916 13.8424 47.2473 14.844 49.2071C15.8456 51.2104 17.1957 52.9088 18.8941 54.3024C20.549 55.696 22.6612 56.567 25.2306 56.9154C25.1871 57.046 25.1653 57.242 25.1653 57.5033V58.1566C25.1653 58.4179 25.1 58.6356 24.9693 58.8098C24.8387 58.984 24.5338 59.0711 24.0548 59.0711C23.7064 59.0711 23.358 59.0276 23.0096 58.9404C22.6176 58.8534 22.2475 58.7663 21.8991 58.6792L21.7684 59.3324C22.0297 59.4195 22.4217 59.5719 22.9443 59.7897C23.4669 60.0074 24.0112 60.2687 24.5774 60.5736C25.1 60.8784 25.5572 61.1833 25.9492 61.4881C26.3411 61.8365 26.5371 62.1849 26.5371 62.5333C26.5371 62.8382 26.4065 63.0777 26.1452 63.2519C25.8403 63.4261 25.4919 63.535 25.1 63.5785C24.708 63.6656 24.3161 63.7092 23.9241 63.7092C23.5322 63.7527 23.2273 63.7745 23.0096 63.7745ZM15.7585 17.9819L15.8239 17.8512L15.7585 17.9819Z" fill="#1E1E1E"/>
<path d="M128.732 2.50031C130.91 2.50031 132.891 2.91403 134.677 3.74147C136.506 4.52537 138.117 5.61411 139.511 7.00771C140.948 8.4013 142.167 10.0126 143.169 11.8417C144.214 13.6273 145.063 15.5217 145.717 17.525C146.413 19.4847 146.914 21.488 147.219 23.5348C147.567 25.5817 147.742 27.5197 147.742 29.3487C147.742 31.0907 147.611 33.0287 147.35 35.1626C147.132 37.253 146.783 39.3652 146.304 41.4991C145.825 43.6331 145.216 45.7017 144.475 47.705C143.779 49.6647 142.951 51.3849 141.993 52.8656C141.601 53.4753 140.904 54.3681 139.903 55.5439C138.945 56.7198 137.878 57.8956 136.702 59.0715C135.569 60.2909 134.437 61.3578 133.305 62.2724C132.173 63.2305 131.28 63.7313 130.627 63.7748L130.039 63.2523C132.303 61.5538 134.263 59.8336 135.918 58.0916C137.616 56.3932 139.075 54.5641 140.295 52.6043C141.558 50.6446 142.603 48.5324 143.43 46.2678C144.258 43.9597 144.954 41.4338 145.521 38.6902C144.867 41.4774 144.127 44.0032 143.3 46.2678C142.516 48.4889 141.514 50.5575 140.295 52.4737C139.119 54.3899 137.682 56.1972 135.983 57.8956C134.285 59.5941 132.26 61.2707 129.908 62.9256L129.32 62.0111C129.059 62.403 128.623 62.7514 128.014 63.0563C127.447 63.3611 126.925 63.5135 126.446 63.5135C125.618 63.5135 125.205 63.1434 125.205 62.403C125.205 62.0111 125.27 61.6191 125.401 61.2272C125.575 60.8352 125.771 60.4651 125.988 60.1167C127.948 58.8102 129.69 57.5037 131.214 56.1972C132.782 54.9342 134.132 53.5624 135.265 52.0817C136.44 50.5575 137.42 48.9026 138.204 47.1171C138.988 45.288 139.62 43.1758 140.099 40.7806C139.62 43.0016 139.01 45.0049 138.27 46.7904C137.529 48.5324 136.593 50.1438 135.461 51.6245C134.372 53.0616 133.087 54.4116 131.606 55.6746C130.126 56.894 128.405 58.048 126.446 59.1368C127.012 58.2222 127.687 57.3948 128.471 56.6545L130.823 54.5641C131.606 53.8237 132.369 53.0834 133.109 52.343C133.893 51.6027 134.568 50.7752 135.134 49.8607L135.722 50.2526C137.333 47.2477 138.509 44.025 139.249 40.5846C140.033 37.1006 140.425 33.6602 140.425 30.2633C140.425 29.3052 140.382 28.3471 140.295 27.389C140.207 26.4309 140.055 25.4946 139.837 24.58C139.837 24.7107 139.794 24.776 139.707 24.776C139.576 24.776 139.511 24.7542 139.511 24.7107C139.598 25.6688 139.663 26.6269 139.707 27.585C139.794 28.5431 139.837 29.5447 139.837 30.5899C139.837 33.7255 139.532 36.8611 138.923 39.9967C138.357 43.0887 137.377 45.8541 135.983 48.2929C136.636 47.03 137.203 45.6799 137.682 44.2428C138.161 42.7185 138.531 41.1507 138.792 39.5394C139.097 37.928 139.293 36.3385 139.38 34.7707C139.511 33.2029 139.576 31.7004 139.576 30.2633C139.576 28.0858 139.38 25.843 138.988 23.5348C138.596 21.1832 137.899 19.0274 136.898 17.0677C135.896 15.0644 134.546 13.366 132.848 11.9724C131.193 10.5788 129.081 9.70779 126.511 9.3594C126.555 9.22875 126.576 9.03277 126.576 8.77148V8.11822C126.576 7.85693 126.642 7.63918 126.772 7.46498C126.903 7.29078 127.208 7.20368 127.687 7.20368C128.035 7.20368 128.384 7.24723 128.732 7.33433C129.124 7.42143 129.494 7.50853 129.843 7.59563L129.973 6.94238C129.712 6.85528 129.32 6.70286 128.797 6.48511C128.275 6.26736 127.73 6.00606 127.164 5.70121C126.642 5.39636 126.184 5.09152 125.793 4.78667C125.401 4.43827 125.205 4.08987 125.205 3.74147C125.205 3.43662 125.335 3.1971 125.597 3.0229C125.901 2.8487 126.25 2.73983 126.642 2.69628C127.034 2.60918 127.426 2.56563 127.818 2.56563C128.21 2.52208 128.514 2.50031 128.732 2.50031ZM135.983 48.2929L135.918 48.4235L135.983 48.2929Z" fill="#1E1E1E"/>
<path d="M42.6067 39.1409C42.6067 39.0449 42.6627 38.9569 42.7747 38.8769C42.8867 38.7969 43.0147 38.7249 43.1587 38.6609C43.3187 38.5969 43.4707 38.5409 43.6147 38.4929C43.7747 38.4449 43.8947 38.4049 43.9747 38.3729C44.7427 38.4689 45.5107 38.5489 46.2787 38.6129C47.0467 38.6769 47.8147 38.7089 48.5827 38.7089C48.8707 38.7089 49.2707 38.7089 49.7827 38.7089C50.2947 38.6929 50.8547 38.6609 51.4627 38.6129C52.0707 38.5649 52.6867 38.4929 53.3107 38.3969C53.9347 38.2849 54.5027 38.1329 55.0147 37.9409C55.5267 37.7489 55.9427 37.5089 56.2627 37.2209C56.5827 36.9329 56.7427 36.5729 56.7427 36.1409C56.7427 35.7889 56.6627 35.4769 56.5027 35.2049C56.3587 34.9169 56.1587 34.6689 55.9027 34.4609C55.6627 34.2369 55.3907 34.0529 55.0867 33.9089C54.9747 33.8449 54.8547 33.7889 54.7267 33.7409C54.8547 33.8049 54.9747 33.8689 55.0867 33.9329C55.3747 34.0929 55.6307 34.2929 55.8547 34.5329C56.0947 34.7569 56.2867 35.0129 56.4307 35.3009C56.5747 35.5729 56.6467 35.8849 56.6467 36.2369C56.6467 36.6209 56.5027 36.9489 56.2147 37.2209C55.9427 37.4769 55.5827 37.6929 55.1347 37.8689C54.7027 38.0449 54.2147 38.1809 53.6707 38.2769C53.1427 38.3729 52.6147 38.4449 52.0867 38.4929C51.5587 38.5409 51.0707 38.5729 50.6227 38.5889C50.1747 38.5889 49.8227 38.5889 49.5667 38.5889C48.7507 38.5889 47.9267 38.5649 47.0947 38.5169C46.2787 38.4529 45.4627 38.3809 44.6467 38.3009C44.9347 38.2209 45.2227 38.1649 45.5107 38.1329C45.8147 38.0849 46.1187 38.0609 46.4227 38.0609C46.9347 38.0609 47.4387 38.0689 47.9347 38.0849C48.4307 38.0849 48.9267 38.0849 49.4227 38.0849C50.0147 38.0849 50.5987 38.0769 51.1747 38.0609C51.7507 38.0289 52.3427 37.9649 52.9507 37.8689L53.0227 38.1569C53.2627 38.1089 53.5667 38.0369 53.9347 37.9409C54.3027 37.8289 54.6547 37.6929 54.9907 37.5329C55.3427 37.3729 55.6387 37.1729 55.8787 36.9329C56.1347 36.6929 56.2627 36.4129 56.2627 36.0929C56.2627 35.6289 56.0947 35.2209 55.7587 34.8689C55.4227 34.5169 54.9907 34.2049 54.4627 33.9329C53.9507 33.6449 53.3667 33.3969 52.7107 33.1889C52.0547 32.9809 51.4067 32.7969 50.7667 32.6369C50.1427 32.4769 49.5507 32.3329 48.9907 32.2049C48.4307 32.0769 47.9827 31.9569 47.6467 31.8449V31.9889C47.9827 32.1169 48.4227 32.2529 48.9667 32.3969C49.5107 32.5249 50.0947 32.6689 50.7187 32.8289C51.3587 32.9889 51.9987 33.1729 52.6387 33.3809C53.2787 33.5729 53.8547 33.8049 54.3667 34.0769C54.8947 34.3489 55.3187 34.6609 55.6387 35.0129C55.9747 35.3649 56.1427 35.7649 56.1427 36.2129C56.1427 36.4689 56.0227 36.6929 55.7827 36.8849C55.5427 37.0769 55.2547 37.2449 54.9187 37.3889C54.5987 37.5169 54.2707 37.6209 53.9347 37.7009C53.5987 37.7809 53.3427 37.8369 53.1667 37.8689C53.3747 37.8209 53.6387 37.7569 53.9587 37.6769C54.2947 37.5809 54.6147 37.4609 54.9187 37.3169C55.2387 37.1729 55.5107 37.0049 55.7347 36.8129C55.9587 36.6049 56.0707 36.3649 56.0707 36.0929C56.0707 35.6449 55.8947 35.2689 55.5427 34.9649C55.1907 34.6609 54.7267 34.3889 54.1507 34.1489C53.5747 33.9089 52.9187 33.6929 52.1827 33.5009C51.4467 33.3089 50.6867 33.1009 49.9027 32.8769C49.1347 32.6529 48.3827 32.3969 47.6467 32.1089C46.9107 31.8209 46.2547 31.4609 45.6787 31.0289C45.1027 30.5969 44.6387 30.0849 44.2867 29.4929C43.9347 28.9009 43.7587 28.1889 43.7587 27.3569C43.7587 26.5409 43.9507 25.8529 44.3347 25.2929C44.7347 24.7169 45.2387 24.2529 45.8467 23.9009C46.4707 23.5329 47.1507 23.2689 47.8867 23.1089C48.6227 22.9489 49.3347 22.8689 50.0227 22.8689C51.0307 22.8689 52.0147 23.0129 52.9747 23.3009C53.9507 23.5889 54.8707 23.9889 55.7347 24.5009C55.6387 24.5329 55.5827 24.5809 55.5667 24.6449C55.5507 24.6929 55.5347 24.7489 55.5187 24.8129C55.5187 24.8769 55.5027 24.9329 55.4707 24.9809C55.4547 25.0289 55.4067 25.0529 55.3267 25.0529C55.2627 25.0529 55.1347 25.0289 54.9427 24.9809C54.7667 24.9169 54.5747 24.8529 54.3667 24.7889C54.1587 24.7089 53.9587 24.6369 53.7667 24.5729C53.5747 24.5089 53.4467 24.4609 53.3827 24.4289L53.3107 24.6449C53.4547 24.7089 53.6387 24.8049 53.8627 24.9329C54.1027 25.0449 54.3267 25.1889 54.5347 25.3649C54.7587 25.5249 54.9427 25.7009 55.0867 25.8929C55.2467 26.0849 55.3267 26.2769 55.3267 26.4689C55.3267 26.6769 55.2307 26.7809 55.0387 26.7809C54.7987 26.7809 54.5107 26.7169 54.1747 26.5889C53.8547 26.4609 53.4947 26.3249 53.0947 26.1809C52.6947 26.0209 52.2627 25.8769 51.7987 25.7489C51.3507 25.6209 50.8947 25.5569 50.4307 25.5569C50.1267 25.5569 49.7667 25.5889 49.3507 25.6529C48.9507 25.7009 48.5587 25.8049 48.1747 25.9649C47.8067 26.1089 47.4947 26.3169 47.2387 26.5889C46.9827 26.8449 46.8547 27.1729 46.8547 27.5729C46.8547 27.9409 47.0227 28.2529 47.3587 28.5089C47.7107 28.7649 48.1667 28.9969 48.7267 29.2049C49.3027 29.4129 49.9507 29.6129 50.6707 29.8049C51.3907 29.9969 52.1267 30.2129 52.8787 30.4529C53.6467 30.6769 54.3907 30.9409 55.1107 31.2449C55.8307 31.5489 56.4707 31.9169 57.0307 32.3489C57.6067 32.7809 58.0627 33.2929 58.3987 33.8849C58.7507 34.4769 58.9267 35.1729 58.9267 35.9729C58.9267 36.7569 58.7667 37.4209 58.4467 37.9649C58.1267 38.5089 57.7027 38.9649 57.1747 39.3329C56.6467 39.6849 56.0467 39.9649 55.3747 40.1729C54.7027 40.3649 54.0067 40.5169 53.2867 40.6289C52.5827 40.7249 51.8787 40.7809 51.1747 40.7969C50.4867 40.8289 49.8627 40.8449 49.3027 40.8449H46.9027C46.7587 40.8449 46.5587 40.8369 46.3027 40.8209C46.0627 40.8209 45.8227 40.8049 45.5827 40.7729C45.3427 40.7569 45.1347 40.7169 44.9587 40.6529C44.7827 40.5889 44.6947 40.5089 44.6947 40.4129L44.7187 40.2929C45.3747 40.3249 46.0227 40.3569 46.6627 40.3889C47.3027 40.4049 47.9507 40.4129 48.6067 40.4129C49.2147 40.4129 49.8227 40.4129 50.4307 40.4129C50.9747 40.3969 51.5187 40.3649 52.0627 40.3169C51.7907 40.3329 51.5187 40.3489 51.2467 40.3649C50.9107 40.3649 50.5827 40.3649 50.2627 40.3649H49.3027C47.7987 40.3649 46.3187 40.3169 44.8627 40.2209C44.8947 40.0929 44.9107 40.0049 44.9107 39.9569C44.9107 39.8929 44.8947 39.8289 44.8627 39.7649C44.8307 39.7649 44.7827 39.7729 44.7187 39.7889C44.6707 39.7889 44.6067 39.7889 44.5267 39.7889C44.3507 39.7889 44.1507 39.7809 43.9267 39.7649C43.7187 39.7489 43.5107 39.7169 43.3027 39.6689C43.1107 39.6209 42.9427 39.5569 42.7987 39.4769C42.6707 39.3809 42.6067 39.2689 42.6067 39.1409ZM57.3427 38.5169C57.0707 38.7569 56.7827 38.9569 56.4787 39.1169C56.2067 39.2609 55.9267 39.3969 55.6387 39.5249C55.9267 39.4289 56.2067 39.3169 56.4787 39.1889C56.7827 39.0609 57.0707 38.8369 57.3427 38.5169ZM69.5337 28.7489C69.3897 28.7489 69.1897 28.7729 68.9337 28.8209C68.6937 28.8689 68.4457 28.9249 68.1897 28.9889C67.9497 29.0529 67.7257 29.1169 67.5177 29.1809C67.3257 29.2449 67.2057 29.2929 67.1577 29.3249C67.5737 29.2609 67.9577 29.1889 68.3097 29.1089C68.6617 29.0129 69.0457 28.9649 69.4617 28.9649C69.3817 29.1089 69.2777 29.2209 69.1497 29.3009C69.0217 29.3809 68.8777 29.4449 68.7177 29.4929C68.5737 29.5249 68.4137 29.5569 68.2377 29.5889C68.0617 29.6049 67.8777 29.6369 67.6857 29.6849L67.5177 29.4689C67.2137 29.5809 66.9817 29.6529 66.8217 29.6849C66.6617 29.7009 66.4937 29.7089 66.3177 29.7089C66.1257 29.7089 65.9257 29.7089 65.7177 29.7089C65.5257 29.6929 65.3097 29.6849 65.0697 29.6849C65.0697 29.7649 65.0617 29.8289 65.0457 29.8769C65.4137 29.8769 65.7257 29.8769 65.9817 29.8769C66.2377 29.8609 66.5497 29.8289 66.9177 29.7809C66.5657 29.8449 66.2537 29.8929 65.9817 29.9249C65.7257 29.9569 65.4137 29.9729 65.0457 29.9729C64.9817 30.3409 64.9257 30.7009 64.8777 31.0529C64.8297 31.4049 64.8057 31.7489 64.8057 32.0849C64.8057 32.2769 64.8137 32.5009 64.8297 32.7569C64.8457 33.0129 64.8617 33.2769 64.8777 33.5489C64.9097 33.8049 64.9337 34.0529 64.9497 34.2929C64.9657 34.5169 64.9737 34.6849 64.9737 34.7969V36.2369C65.0537 36.5569 65.2857 36.7969 65.6697 36.9569C66.0537 37.1169 66.6057 37.1969 67.3257 37.1969H68.0937C68.3657 37.1969 68.5497 37.2289 68.6457 37.2929C68.7577 37.3409 68.8137 37.4129 68.8137 37.5089C68.8137 37.5889 68.7497 37.6369 68.6217 37.6529C68.4937 37.6529 68.3657 37.6529 68.2377 37.6529C67.7737 37.6529 67.2857 37.6209 66.7737 37.5569C66.2937 37.4929 65.8217 37.4209 65.3577 37.3409C65.8217 37.4529 66.3097 37.5569 66.8217 37.6529C67.3497 37.7329 67.8617 37.7729 68.3577 37.7729H68.5737C68.6377 37.7729 68.7097 37.7649 68.7897 37.7489C68.7897 37.8289 68.7897 37.9009 68.7897 37.9649C68.8057 38.0289 68.8297 38.1009 68.8617 38.1809L69.0537 38.1329C69.1017 38.1169 69.1577 38.1089 69.2217 38.1089C69.2857 38.0929 69.3337 38.0689 69.3657 38.0369C69.8777 38.0849 70.1337 38.2609 70.1337 38.5649C70.1337 38.7409 70.0857 38.8849 69.9897 38.9969C69.8937 39.1089 69.7737 39.1969 69.6297 39.2609C69.4857 39.3249 69.3257 39.3729 69.1497 39.4049C68.9737 39.4209 68.8057 39.4289 68.6457 39.4289C68.0857 39.4289 67.5337 39.3969 66.9897 39.3329C66.4617 39.2529 65.9417 39.1729 65.4297 39.0929C65.8777 39.2529 66.4457 39.3809 67.1337 39.4769C67.8217 39.5729 68.5177 39.6209 69.2217 39.6209C69.0457 39.7329 68.8377 39.8209 68.5977 39.8849C68.3577 39.9489 68.1097 39.9809 67.8537 39.9809L66.1257 39.7649C65.9017 39.7329 65.7257 39.7009 65.5977 39.6689C65.4857 39.6369 65.3737 39.6049 65.2617 39.5729C65.1497 39.5249 65.0217 39.4769 64.8777 39.4289C64.7497 39.3809 64.5657 39.3249 64.3257 39.2609V38.9969C63.9097 38.8849 63.5737 38.6929 63.3177 38.4209C63.0617 38.1489 62.8617 37.8529 62.7177 37.5329C62.5737 37.2129 62.4777 36.8929 62.4297 36.5729C62.3817 36.2369 62.3577 35.9409 62.3577 35.6849C62.3577 35.4129 62.3577 35.1649 62.3577 34.9409C62.3737 34.7009 62.3817 34.4609 62.3817 34.2209C62.3817 34.0449 62.3737 33.8209 62.3577 33.5489C62.3577 33.2769 62.3497 32.9889 62.3337 32.6849C62.3177 32.3809 62.3017 32.0689 62.2857 31.7489C62.2857 31.4289 62.2857 31.1249 62.2857 30.8369C62.2857 30.6609 62.2857 30.4929 62.2857 30.3329C62.3017 30.1729 62.3177 30.0289 62.3337 29.9009H62.0937C62.0777 30.0129 62.0697 30.1409 62.0697 30.2849V30.7169C62.0697 31.1809 62.0777 31.6449 62.0937 32.1089C62.1097 32.5569 62.1177 32.9729 62.1177 33.3569C62.1337 33.7409 62.1497 34.0769 62.1657 34.3649C62.1817 34.6369 62.1897 34.8369 62.1897 34.9649V35.9249V36.1169C62.1417 35.6849 62.0937 35.0689 62.0457 34.2689C61.9977 33.3409 61.9737 32.3169 61.9737 31.1969V30.7649C61.9737 30.5889 61.9737 30.4209 61.9737 30.2609C61.9897 30.1009 62.0137 29.9809 62.0457 29.9009L61.2297 29.8529C61.0537 29.7409 60.8777 29.6529 60.7017 29.5889C60.5257 29.5249 60.3657 29.4929 60.2217 29.4929V29.0129C60.2217 28.9169 60.2297 28.8369 60.2457 28.7729C60.2777 28.6929 60.3577 28.6529 60.4857 28.6529C60.5177 28.6529 60.5977 28.6689 60.7257 28.7009V28.4129C60.5497 28.3169 60.4057 28.1889 60.2937 28.0289C60.1817 27.8529 60.1257 27.6769 60.1257 27.5009C60.1257 27.0849 60.4217 26.8769 61.0137 26.8769C61.2377 26.8769 61.4697 26.8929 61.7097 26.9249C61.9497 26.9569 62.1977 26.9809 62.4537 26.9969C62.5177 26.6449 62.5737 26.3329 62.6217 26.0609C62.6697 25.7729 62.7177 25.5009 62.7657 25.2449C62.8137 24.9729 62.8697 24.7089 62.9337 24.4529C62.9977 24.1809 63.0777 23.9009 63.1737 23.6129C63.3177 23.2929 63.4297 22.9489 63.5097 22.5809C63.5897 22.1969 63.6457 21.8209 63.6777 21.4529L64.1817 21.4769C64.2617 21.4769 64.3257 21.5009 64.3737 21.5489C64.4377 21.5969 64.4697 21.7089 64.4697 21.8849C64.4697 22.0289 64.4457 22.2209 64.3977 22.4609L64.6857 22.5329C64.8137 22.1009 64.9657 21.7489 65.1417 21.4769C65.3337 21.2049 65.5177 21.0689 65.6937 21.0689C65.9657 21.0689 66.1337 21.4129 66.1977 22.1009V22.5329C66.1977 22.9489 66.1657 23.3409 66.1017 23.7089C66.0537 24.0609 65.9897 24.4129 65.9097 24.7649C65.8297 25.1169 65.7497 25.4769 65.6697 25.8449C65.5897 26.2129 65.5177 26.6129 65.4537 27.0449C65.8057 27.0929 66.1497 27.1169 66.4857 27.1169C66.6457 27.1169 66.8057 27.1169 66.9657 27.1169C67.1257 27.1009 67.2857 27.0929 67.4457 27.0929C67.6057 27.0929 67.7737 27.0289 67.9497 26.9009C68.1257 26.7729 68.2857 26.7089 68.4297 26.7089C68.5577 26.7089 68.6537 26.7489 68.7177 26.8289C68.7817 26.9089 68.8137 26.9969 68.8137 27.0929C68.5257 27.1729 68.2377 27.2609 67.9497 27.3569C67.6777 27.4369 67.4137 27.5169 67.1577 27.5969C67.4137 27.5649 67.6857 27.5089 67.9737 27.4289C68.2617 27.3329 68.5657 27.2449 68.8857 27.1649C68.8857 27.2449 68.8857 27.3169 68.8857 27.3809C68.9017 27.4449 68.9257 27.5169 68.9577 27.5969C68.9897 27.5969 69.0297 27.5889 69.0777 27.5729C69.1737 27.5409 69.2297 27.5249 69.2457 27.5249C69.4057 27.6049 69.5097 27.7089 69.5577 27.8369C69.6057 27.9489 69.6297 28.0769 69.6297 28.2209C69.6297 28.3329 69.6137 28.4369 69.5817 28.5329C69.5497 28.6129 69.5337 28.6849 69.5337 28.7489ZM63.1737 37.6049C62.9497 37.1729 62.8297 36.7489 62.8137 36.3329C62.7977 35.9169 62.7737 35.5249 62.7417 35.1569L62.5257 31.5089L62.4537 31.9409C62.4537 33.0129 62.4857 33.9889 62.5497 34.8689C62.6297 35.7329 62.7417 36.4049 62.8857 36.8849C62.8857 37.0289 62.8777 37.1249 62.8617 37.1729C62.8617 37.2209 62.8617 37.2609 62.8617 37.2929C62.8617 37.3249 62.8777 37.3649 62.9097 37.4129C62.9577 37.4609 63.0457 37.5249 63.1737 37.6049ZM64.5417 36.3089C64.5097 36.1809 64.4937 36.0449 64.4937 35.9009V34.7249C64.4777 34.8849 64.4617 35.0449 64.4457 35.2049C64.4297 35.3489 64.4217 35.5009 64.4217 35.6609C64.4217 36.0769 64.4457 36.3969 64.4937 36.6209C64.5417 36.8129 64.6377 36.9729 64.7817 37.1009C64.7017 37.0049 64.6457 36.9009 64.6137 36.7889C64.5977 36.6609 64.5737 36.5009 64.5417 36.3089ZM62.2137 36.2849L62.1897 36.1169L62.2137 36.2849ZM64.8297 37.1249C64.8137 37.1089 64.7977 37.1009 64.7817 37.1009C64.7977 37.1009 64.8137 37.1089 64.8297 37.1249ZM80.4672 34.4609C80.0352 34.4609 79.7072 34.4529 79.4832 34.4369C79.2752 34.4209 79.0832 34.4129 78.9072 34.4129C78.4272 34.4129 78.0032 34.4369 77.6352 34.4849C77.2672 34.5329 76.9552 34.6289 76.6992 34.7729C76.4432 34.9169 76.2512 35.1249 76.1232 35.3969C75.9952 35.6689 75.9312 36.0289 75.9312 36.4769C75.9312 37.1329 76.0032 37.6209 76.1472 37.9409C76.3072 38.2449 76.5232 38.4689 76.7952 38.6129C77.0832 38.7409 77.4272 38.8209 77.8272 38.8529C78.2272 38.8849 78.6752 38.9569 79.1712 39.0689C79.4592 39.1009 79.7472 39.1249 80.0352 39.1409C80.3232 39.1409 80.6112 39.1409 80.8992 39.1409H82.6272C81.8272 39.0929 81.0272 39.0689 80.2272 39.0689C79.4432 39.0529 78.7312 38.9809 78.0912 38.8529C77.4672 38.7249 76.9552 38.5009 76.5552 38.1809C76.1712 37.8609 75.9792 37.3729 75.9792 36.7169C75.9792 36.1889 76.0432 35.7889 76.1712 35.5169C76.3152 35.2289 76.4992 35.0209 76.7232 34.8929C76.9632 34.7489 77.2432 34.6689 77.5632 34.6529C77.8832 34.6209 78.2272 34.6049 78.5952 34.6049C79.0432 34.6049 79.4992 34.6289 79.9632 34.6769C79.5952 34.7889 79.2192 34.8769 78.8352 34.9409C78.4672 34.9889 78.1232 35.0449 77.8032 35.1089C77.4832 35.1569 77.2032 35.2289 76.9632 35.3249C76.7392 35.4049 76.5872 35.5249 76.5072 35.6849V36.7649L76.3152 36.8609C76.3792 37.2609 76.4352 37.5649 76.4832 37.7729C76.5472 37.9649 76.7072 38.1169 76.9632 38.2289C77.2192 38.3249 77.6272 38.4049 78.1872 38.4689C78.7632 38.5329 79.5952 38.6369 80.6832 38.7809H82.4112C82.7152 38.7809 82.8912 38.7729 82.9392 38.7569C83.0032 38.7249 83.0432 38.7089 83.0592 38.7089L82.8432 37.4129C82.8112 37.0929 82.7712 36.8049 82.7232 36.5489C82.6752 36.2929 82.6112 36.0209 82.5312 35.7329C82.5152 35.7809 82.4672 35.8049 82.3872 35.8049C82.4672 36.0769 82.5312 36.3649 82.5792 36.6689C82.6432 36.9729 82.6912 37.2609 82.7232 37.5329C82.7712 37.8049 82.8032 38.0369 82.8192 38.2289C82.8512 38.4209 82.8832 38.5329 82.9152 38.5649L82.7712 38.6129C82.7392 38.6289 82.6912 38.6369 82.6272 38.6369H82.4832C82.3712 38.6369 82.2432 38.6289 82.0992 38.6129C81.9552 38.5809 81.7712 38.5649 81.5472 38.5649H80.7552C80.1312 38.5649 79.5552 38.5329 79.0272 38.4689C78.5312 38.4049 78.0992 38.3249 77.7312 38.2289C78.0992 38.3089 78.5472 38.3729 79.0752 38.4209C79.6352 38.4849 80.1552 38.5169 80.6352 38.5169C80.8432 38.5169 81.0592 38.5169 81.2832 38.5169C81.5232 38.5009 81.7792 38.4929 82.0512 38.4929H82.8432C82.7952 38.4449 82.7392 38.4209 82.6752 38.4209H82.6272C82.5632 37.3169 82.4192 36.2609 82.1952 35.2529C81.9712 34.2449 81.6112 33.3649 81.1152 32.6129C80.6192 31.8449 79.9712 31.2369 79.1712 30.7889C78.3712 30.3249 77.3712 30.0929 76.1712 30.0929C75.8352 30.0929 75.4992 30.1169 75.1632 30.1649C74.8272 30.2129 74.4832 30.2769 74.1312 30.3569C74.1632 30.3249 74.1792 30.2929 74.1792 30.2609C74.1792 30.1809 74.1472 30.1089 74.0832 30.0449C74.0192 29.9649 73.9872 29.8849 73.9872 29.8049C73.9872 29.7089 74.0832 29.6209 74.2752 29.5409C74.4832 29.4449 74.9152 29.3569 75.5712 29.2769C75.5392 29.2449 75.5152 29.1969 75.4992 29.1329C75.4992 29.0689 75.4992 29.0209 75.4992 28.9889C74.6352 28.9889 73.9632 28.9729 73.4832 28.9409C73.0032 28.8929 72.7632 28.7729 72.7632 28.5809C72.7632 28.5009 72.8592 28.3889 73.0512 28.2449C73.2592 28.1009 73.5472 27.9649 73.9152 27.8369C74.2832 27.6929 74.7232 27.5729 75.2352 27.4769C75.7632 27.3649 76.3472 27.3089 76.9872 27.3089C78.2192 27.3089 79.2752 27.5009 80.1552 27.8849C81.0352 28.2529 81.7712 28.7489 82.3632 29.3729C82.9712 29.9809 83.4592 30.6769 83.8272 31.4609C84.2112 32.2449 84.5152 33.0369 84.7392 33.8369C84.9792 34.6209 85.1552 35.3889 85.2672 36.1409C85.3792 36.8769 85.4832 37.5169 85.5792 38.0609C85.5792 38.1569 85.5792 38.2529 85.5792 38.3489C85.5952 38.4449 85.6032 38.5569 85.6032 38.6849C85.6032 39.1489 85.5152 39.5569 85.3392 39.9089C85.1792 40.2449 84.9472 40.5249 84.6432 40.7489C84.3552 40.9889 84.0112 41.1649 83.6112 41.2769C83.2272 41.4049 82.8112 41.4689 82.3632 41.4689C82.0112 41.4689 81.5552 41.4609 80.9952 41.4449C80.4352 41.4289 79.8992 41.3809 79.3872 41.3009C79.0512 41.2209 78.6832 41.1569 78.2832 41.1089C77.8832 41.0769 77.4752 41.0129 77.0592 40.9169C76.6432 40.8209 76.2352 40.6849 75.8352 40.5089C75.4512 40.3329 75.0992 40.0689 74.7792 39.7169C74.4752 39.3489 74.2272 38.8769 74.0352 38.3009C73.8592 37.7249 73.7712 36.9969 73.7712 36.1169C73.7712 35.2849 73.9632 34.6209 74.3472 34.1249C74.7312 33.6129 75.1872 33.2209 75.7152 32.9489C76.2592 32.6609 76.8112 32.4769 77.3712 32.3969C77.9312 32.3009 78.3872 32.2529 78.7392 32.2529C79.1872 32.2529 79.4832 32.2849 79.6272 32.3489C79.7712 32.4129 79.8432 32.4769 79.8432 32.5409C79.8432 32.5889 79.8352 32.6289 79.8192 32.6609C79.4192 32.6609 78.9072 32.6769 78.2832 32.7089C77.6592 32.7409 77.0512 32.8449 76.4592 33.0209C75.8832 33.1969 75.3872 33.4689 74.9712 33.8369C74.5552 34.1889 74.3472 34.6929 74.3472 35.3489C74.4912 34.7569 74.7312 34.2929 75.0672 33.9569C75.4192 33.6049 75.8192 33.3489 76.2672 33.1889C76.7152 33.0129 77.1712 32.9089 77.6352 32.8769C78.1152 32.8289 78.5472 32.8049 78.9312 32.8049H79.7472C79.6832 32.8689 79.6512 32.9329 79.6512 32.9969C79.6512 33.0609 79.6832 33.1169 79.7472 33.1649H80.6832C80.9392 33.2129 81.1232 33.3009 81.2352 33.4289C81.3472 33.5409 81.4032 33.6449 81.4032 33.7409C81.4032 33.8849 81.3312 34.0129 81.1872 34.1249C81.0432 34.2369 80.8032 34.3489 80.4672 34.4609ZM76.4352 40.2689C76.8832 40.4449 77.3392 40.5809 77.8032 40.6769C78.2832 40.7729 78.7552 40.8369 79.2192 40.8689C79.6832 40.9169 80.1152 40.9409 80.5152 40.9409C80.1952 40.9089 79.8752 40.8529 79.5552 40.7729C79.2192 40.6929 78.9232 40.6209 78.6672 40.5569C78.3952 40.4929 78.1232 40.4529 77.8512 40.4369C77.5952 40.4049 77.3232 40.3649 77.0352 40.3169C76.7632 40.2689 76.4832 40.1969 76.1952 40.1009C75.9072 39.9889 75.6192 39.8289 75.3312 39.6209C75.6352 39.8929 76.0032 40.1089 76.4352 40.2689ZM76.6752 37.7489C76.6592 37.7329 76.7072 37.7809 76.8192 37.8929C76.9152 37.9889 77.0432 38.0609 77.2032 38.1089C77.1232 38.0769 77.0032 38.0369 76.8432 37.9889C76.6672 37.9249 76.5792 37.8289 76.5792 37.7009L76.6752 37.7489ZM77.2752 38.1089C77.2592 38.1089 77.2352 38.1089 77.2032 38.1089C77.2192 38.1089 77.2432 38.1089 77.2752 38.1089ZM92.5077 41.0129C92.3477 41.0449 92.1717 41.0609 91.9797 41.0609H91.2837C90.8677 41.0609 90.5717 41.1089 90.3957 41.2049C90.2357 41.3009 90.1397 41.3489 90.1077 41.3489L90.0117 40.9169V40.4849L89.8917 38.2289C89.8597 37.7969 89.7717 37.3329 89.6277 36.8369C89.4837 36.3409 89.3717 35.8369 89.2917 35.3249C89.2437 34.9889 89.2037 34.6689 89.1717 34.3649L89.0757 33.4289C89.0437 33.1089 89.0037 32.7809 88.9557 32.4449C88.9237 32.1089 88.8677 31.7489 88.7877 31.3649C88.7877 31.2689 88.7877 31.1729 88.7877 31.0769C88.8037 30.9809 88.8117 30.8849 88.8117 30.7889C88.8117 30.2929 88.7717 29.8049 88.6917 29.3249C88.6117 28.8449 88.4997 28.3729 88.3557 27.9089C88.4677 27.8609 88.5717 27.8209 88.6677 27.7889C88.7637 27.7409 88.8517 27.7169 88.9317 27.7169C89.0117 27.7169 89.0997 27.8129 89.1957 28.0049C89.2917 28.1809 89.3957 28.5569 89.5077 29.1329C89.5397 29.1329 89.5877 29.1249 89.6517 29.1089C89.7157 29.0769 89.7637 29.0609 89.7957 29.0609C89.7797 28.7889 89.7397 28.5009 89.6757 28.1969C89.6117 27.8769 89.5477 27.5729 89.4837 27.2849C89.4197 26.9969 89.3557 26.7409 89.2917 26.5169C89.2437 26.2769 89.2197 26.0849 89.2197 25.9409C89.2197 25.9089 89.2197 25.8689 89.2197 25.8209C89.2357 25.7729 89.2757 25.7489 89.3397 25.7489C89.4197 25.7489 89.5237 25.8369 89.6517 26.0129C89.7797 26.1889 89.9157 26.4129 90.0597 26.6849C90.2037 26.9569 90.3397 27.2529 90.4677 27.5729C90.6117 27.8769 90.7397 28.1649 90.8517 28.4369C91.2837 27.6209 91.7717 27.0049 92.3157 26.5889C92.8757 26.1569 93.6037 25.9409 94.4997 25.9409C95.1557 25.9409 95.6917 26.0209 96.1077 26.1809C96.5237 26.3249 96.8437 26.4929 97.0677 26.6849C97.3077 26.8609 97.4677 27.0289 97.5477 27.1889L97.6917 27.4289C97.6917 27.5249 97.6437 27.5889 97.5477 27.6209C97.1317 27.2209 96.6597 26.9169 96.1317 26.7089C95.6037 26.5009 95.0597 26.3969 94.4997 26.3969C93.9557 26.3969 93.5477 26.4689 93.2757 26.6129C93.0197 26.7409 92.7477 26.9009 92.4597 27.0929C92.7637 26.9009 93.0437 26.7489 93.2997 26.6369C93.5717 26.5249 93.9637 26.4689 94.4757 26.4689C95.0357 26.4689 95.5717 26.5809 96.0837 26.8049C96.5957 27.0129 97.0357 27.2849 97.4037 27.6209C97.3237 27.6529 97.2517 27.6929 97.1877 27.7409C97.1397 27.7729 97.1157 27.8289 97.1157 27.9089C97.1957 27.9089 97.2837 27.9649 97.3797 28.0769C97.4757 28.1729 97.5637 28.2929 97.6437 28.4369C97.7237 28.5809 97.7877 28.7329 97.8357 28.8929C97.8997 29.0369 97.9317 29.1569 97.9317 29.2529C97.9317 29.5249 97.8277 29.6609 97.6197 29.6609C97.4597 29.6609 97.2677 29.6049 97.0437 29.4929C96.9957 29.4769 96.8917 29.3889 96.7317 29.2289C96.5877 29.0689 96.4037 28.9089 96.1797 28.7489C95.9557 28.5729 95.6997 28.4129 95.4117 28.2689C95.1237 28.1249 94.8037 28.0529 94.4517 28.0529C94.1637 28.0529 93.9077 28.1169 93.6837 28.2449C93.4757 28.3569 93.2837 28.5169 93.1077 28.7249C92.9317 28.9169 92.7717 29.1409 92.6277 29.3969L92.3157 29.9729C92.5557 29.5409 92.8197 29.1489 93.1077 28.7969C93.4277 28.3809 93.8277 28.1729 94.3077 28.1729C94.7237 28.1729 95.1077 28.2689 95.4597 28.4609C95.8117 28.6369 96.0997 28.8609 96.3237 29.1329C96.0517 29.0209 95.7317 28.9089 95.3637 28.7969C94.9957 28.6849 94.6437 28.6289 94.3077 28.6289C94.1317 28.6289 93.9797 28.6689 93.8517 28.7489C93.7237 28.8289 93.6117 28.9329 93.5157 29.0609C93.4357 29.1729 93.3557 29.3009 93.2757 29.4449C93.2117 29.5889 93.1397 29.7249 93.0597 29.8529L92.7477 29.9009C92.4757 30.3649 92.2517 30.9089 92.0757 31.5329C91.9157 32.1409 91.8357 32.7809 91.8357 33.4529C91.8357 33.8529 91.8517 34.2129 91.8837 34.5329C91.9317 34.8529 91.9957 35.1809 92.0757 35.5169L92.3637 36.2609L92.3157 35.5649C92.2837 35.0209 92.2517 34.5409 92.2197 34.1249C92.1877 33.6929 92.1717 33.2209 92.1717 32.7089C92.2037 32.2449 92.2677 31.8049 92.3637 31.3889C92.4437 31.0369 92.5637 30.7089 92.7237 30.4049C92.5317 30.7889 92.4037 31.2289 92.3397 31.7249C92.2597 32.2689 92.2197 32.8449 92.2197 33.4529C92.2197 33.9329 92.2437 34.3889 92.2917 34.8209C92.3397 35.2529 92.3957 35.6849 92.4597 36.1169C92.5397 36.5489 92.6197 36.9969 92.6997 37.4609C92.7797 37.9089 92.8437 38.4049 92.8917 38.9489L92.9637 39.4049L93.1077 40.7729L92.5077 41.0129ZM92.7957 30.2849L92.7237 30.4049L92.7957 30.2849ZM108.065 28.7489C107.921 28.7489 107.721 28.7729 107.465 28.8209C107.225 28.8689 106.977 28.9249 106.721 28.9889C106.481 29.0529 106.257 29.1169 106.049 29.1809C105.857 29.2449 105.737 29.2929 105.689 29.3249C106.105 29.2609 106.489 29.1889 106.841 29.1089C107.193 29.0129 107.577 28.9649 107.993 28.9649C107.913 29.1089 107.809 29.2209 107.681 29.3009C107.553 29.3809 107.409 29.4449 107.249 29.4929C107.105 29.5249 106.945 29.5569 106.769 29.5889C106.593 29.6049 106.409 29.6369 106.217 29.6849L106.049 29.4689C105.745 29.5809 105.513 29.6529 105.353 29.6849C105.193 29.7009 105.025 29.7089 104.849 29.7089C104.657 29.7089 104.457 29.7089 104.249 29.7089C104.057 29.6929 103.841 29.6849 103.601 29.6849C103.601 29.7649 103.593 29.8289 103.577 29.8769C103.945 29.8769 104.257 29.8769 104.513 29.8769C104.769 29.8609 105.081 29.8289 105.449 29.7809C105.097 29.8449 104.785 29.8929 104.513 29.9249C104.257 29.9569 103.945 29.9729 103.577 29.9729C103.513 30.3409 103.457 30.7009 103.409 31.0529C103.361 31.4049 103.337 31.7489 103.337 32.0849C103.337 32.2769 103.345 32.5009 103.361 32.7569C103.377 33.0129 103.393 33.2769 103.409 33.5489C103.441 33.8049 103.465 34.0529 103.481 34.2929C103.497 34.5169 103.505 34.6849 103.505 34.7969V36.2369C103.585 36.5569 103.817 36.7969 104.201 36.9569C104.585 37.1169 105.137 37.1969 105.857 37.1969H106.625C106.897 37.1969 107.081 37.2289 107.177 37.2929C107.289 37.3409 107.345 37.4129 107.345 37.5089C107.345 37.5889 107.281 37.6369 107.153 37.6529C107.025 37.6529 106.897 37.6529 106.769 37.6529C106.305 37.6529 105.817 37.6209 105.305 37.5569C104.825 37.4929 104.353 37.4209 103.889 37.3409C104.353 37.4529 104.841 37.5569 105.353 37.6529C105.881 37.7329 106.393 37.7729 106.889 37.7729H107.105C107.169 37.7729 107.241 37.7649 107.321 37.7489C107.321 37.8289 107.321 37.9009 107.321 37.9649C107.337 38.0289 107.361 38.1009 107.393 38.1809L107.585 38.1329C107.633 38.1169 107.689 38.1089 107.753 38.1089C107.817 38.0929 107.865 38.0689 107.897 38.0369C108.409 38.0849 108.665 38.2609 108.665 38.5649C108.665 38.7409 108.617 38.8849 108.521 38.9969C108.425 39.1089 108.305 39.1969 108.161 39.2609C108.017 39.3249 107.857 39.3729 107.681 39.4049C107.505 39.4209 107.337 39.4289 107.177 39.4289C106.617 39.4289 106.065 39.3969 105.521 39.3329C104.993 39.2529 104.473 39.1729 103.961 39.0929C104.409 39.2529 104.977 39.3809 105.665 39.4769C106.353 39.5729 107.049 39.6209 107.753 39.6209C107.577 39.7329 107.369 39.8209 107.129 39.8849C106.889 39.9489 106.641 39.9809 106.385 39.9809L104.657 39.7649C104.433 39.7329 104.257 39.7009 104.129 39.6689C104.017 39.6369 103.905 39.6049 103.793 39.5729C103.681 39.5249 103.553 39.4769 103.409 39.4289C103.281 39.3809 103.097 39.3249 102.857 39.2609V38.9969C102.441 38.8849 102.105 38.6929 101.849 38.4209C101.593 38.1489 101.393 37.8529 101.249 37.5329C101.105 37.2129 101.009 36.8929 100.961 36.5729C100.913 36.2369 100.889 35.9409 100.889 35.6849C100.889 35.4129 100.889 35.1649 100.889 34.9409C100.905 34.7009 100.913 34.4609 100.913 34.2209C100.913 34.0449 100.905 33.8209 100.889 33.5489C100.889 33.2769 100.881 32.9889 100.865 32.6849C100.849 32.3809 100.833 32.0689 100.817 31.7489C100.817 31.4289 100.817 31.1249 100.817 30.8369C100.817 30.6609 100.817 30.4929 100.817 30.3329C100.833 30.1729 100.849 30.0289 100.865 29.9009H100.625C100.609 30.0129 100.601 30.1409 100.601 30.2849V30.7169C100.601 31.1809 100.609 31.6449 100.625 32.1089C100.641 32.5569 100.649 32.9729 100.649 33.3569C100.665 33.7409 100.681 34.0769 100.697 34.3649C100.713 34.6369 100.721 34.8369 100.721 34.9649V35.9249V36.1169C100.673 35.6849 100.625 35.0689 100.577 34.2689C100.529 33.3409 100.505 32.3169 100.505 31.1969V30.7649C100.505 30.5889 100.505 30.4209 100.505 30.2609C100.521 30.1009 100.545 29.9809 100.577 29.9009L99.761 29.8529C99.585 29.7409 99.409 29.6529 99.233 29.5889C99.057 29.5249 98.897 29.4929 98.753 29.4929V29.0129C98.753 28.9169 98.761 28.8369 98.777 28.7729C98.809 28.6929 98.889 28.6529 99.017 28.6529C99.049 28.6529 99.129 28.6689 99.257 28.7009V28.4129C99.081 28.3169 98.937 28.1889 98.825 28.0289C98.713 27.8529 98.657 27.6769 98.657 27.5009C98.657 27.0849 98.953 26.8769 99.545 26.8769C99.769 26.8769 100.001 26.8929 100.241 26.9249C100.481 26.9569 100.729 26.9809 100.985 26.9969C101.049 26.6449 101.105 26.3329 101.153 26.0609C101.201 25.7729 101.249 25.5009 101.297 25.2449C101.345 24.9729 101.401 24.7089 101.465 24.4529C101.529 24.1809 101.609 23.9009 101.705 23.6129C101.849 23.2929 101.961 22.9489 102.041 22.5809C102.121 22.1969 102.177 21.8209 102.209 21.4529L102.713 21.4769C102.793 21.4769 102.857 21.5009 102.905 21.5489C102.969 21.5969 103.001 21.7089 103.001 21.8849C103.001 22.0289 102.977 22.2209 102.929 22.4609L103.217 22.5329C103.345 22.1009 103.497 21.7489 103.673 21.4769C103.865 21.2049 104.049 21.0689 104.225 21.0689C104.497 21.0689 104.665 21.4129 104.729 22.1009V22.5329C104.729 22.9489 104.697 23.3409 104.633 23.7089C104.585 24.0609 104.521 24.4129 104.441 24.7649C104.361 25.1169 104.281 25.4769 104.201 25.8449C104.121 26.2129 104.049 26.6129 103.985 27.0449C104.337 27.0929 104.681 27.1169 105.017 27.1169C105.177 27.1169 105.337 27.1169 105.497 27.1169C105.657 27.1009 105.817 27.0929 105.977 27.0929C106.137 27.0929 106.305 27.0289 106.481 26.9009C106.657 26.7729 106.817 26.7089 106.961 26.7089C107.089 26.7089 107.185 26.7489 107.249 26.8289C107.313 26.9089 107.345 26.9969 107.345 27.0929C107.057 27.1729 106.769 27.2609 106.481 27.3569C106.209 27.4369 105.945 27.5169 105.689 27.5969C105.945 27.5649 106.217 27.5089 106.505 27.4289C106.793 27.3329 107.097 27.2449 107.417 27.1649C107.417 27.2449 107.417 27.3169 107.417 27.3809C107.433 27.4449 107.457 27.5169 107.489 27.5969C107.521 27.5969 107.561 27.5889 107.609 27.5729C107.705 27.5409 107.761 27.5249 107.777 27.5249C107.937 27.6049 108.041 27.7089 108.089 27.8369C108.137 27.9489 108.161 28.0769 108.161 28.2209C108.161 28.3329 108.145 28.4369 108.113 28.5329C108.081 28.6129 108.065 28.6849 108.065 28.7489ZM101.705 37.6049C101.481 37.1729 101.361 36.7489 101.345 36.3329C101.329 35.9169 101.305 35.5249 101.273 35.1569L101.057 31.5089L100.985 31.9409C100.985 33.0129 101.017 33.9889 101.081 34.8689C101.161 35.7329 101.273 36.4049 101.417 36.8849C101.417 37.0289 101.409 37.1249 101.393 37.1729C101.393 37.2209 101.393 37.2609 101.393 37.2929C101.393 37.3249 101.409 37.3649 101.441 37.4129C101.489 37.4609 101.577 37.5249 101.705 37.6049ZM103.073 36.3089C103.041 36.1809 103.025 36.0449 103.025 35.9009V34.7249C103.009 34.8849 102.993 35.0449 102.977 35.2049C102.961 35.3489 102.953 35.5009 102.953 35.6609C102.953 36.0769 102.977 36.3969 103.025 36.6209C103.073 36.8129 103.169 36.9729 103.313 37.1009C103.233 37.0049 103.177 36.9009 103.145 36.7889C103.129 36.6609 103.105 36.5009 103.073 36.3089ZM100.745 36.2849L100.721 36.1169L100.745 36.2849ZM103.361 37.1249C103.345 37.1089 103.329 37.1009 103.313 37.1009C103.329 37.1009 103.345 37.1089 103.361 37.1249Z" fill="#1E1E1E"/>
</g>
<defs>
<filter id="filter0_d_5_1119" x="0" y="0.300781" width="151.742" height="71.806" filterUnits="userSpaceOnUse" color-interpolation-filters="sRGB">
<feFlood flood-opacity="0" result="BackgroundImageFix"/>
<feColorMatrix in="SourceAlpha" type="matrix" values="0 0 0 0 0 0 0 0 0 0 0 0 0 0 0 0 0 0 127 0" result="hardAlpha"/>
<feOffset dy="4"/>
<feGaussianBlur stdDeviation="2"/>
<feComposite in2="hardAlpha" operator="out"/>
<feColorMatrix type="matrix" values="0 0 0 0 0 0 0 0 0 0 0 0 0 0 0 0 0 0 0.25 0"/>
<feBlend mode="normal" in2="BackgroundImageFix" result="effect1_dropShadow_5_1119"/>
<feBlend mode="normal" in="SourceGraphic" in2="effect1_dropShadow_5_1119" result="shape"/>
</filter>
</defs>
</svg>
