<svg width="332" height="19" viewBox="0 0 332 19" fill="none" xmlns="http://www.w3.org/2000/svg">
<g filter="url(#filter0_d_5_1091)">
<path d="M316.864 5.57512C320.384 5.57512 323.024 5.71085 324.784 5.9823C326.545 6.25375 327.425 6.54782 327.425 6.86451C327.425 7.36216 325.884 7.79195 322.804 8.15388C319.724 8.56105 316.424 8.94561 312.903 9.30754C307.623 8.99085 301.243 8.69678 293.762 8.42533C286.721 8.15388 279.241 7.90505 271.32 7.67885C263.4 7.49788 255.479 7.36216 247.559 7.27168C239.638 7.18119 232.377 7.13595 225.777 7.13595H222.477L193.434 7.20381C203.115 7.2943 212.796 7.33954 222.477 7.33954C232.597 7.38478 242.498 7.47526 252.179 7.61098C262.3 7.74671 271.98 7.97291 281.221 8.2896C290.902 8.60629 299.922 9.05871 308.283 9.64685L297.062 10.1219C290.902 10.1219 286.061 10.0088 282.541 9.78257C279.021 9.55636 274.181 9.39802 268.02 9.30754L260.76 8.56105C247.999 8.56105 235.458 8.47057 223.137 8.2896C210.816 8.15388 198.275 8.08602 185.514 8.08602C174.953 8.08602 164.832 8.22175 155.151 8.4932V8.90036C136.23 8.99085 117.529 9.10396 99.0472 9.23968C80.5658 9.3754 61.8644 9.51112 42.943 9.64685C38.1026 9.42064 32.8222 9.23968 27.1018 9.10395C21.8214 9.01347 16.541 8.96823 11.2606 8.96823C11.2606 8.87775 11.2606 8.78726 11.2606 8.69678C11.7006 8.65154 11.9206 8.58368 11.9206 8.4932C11.9206 8.13127 11.4806 7.72409 10.6005 7.27168L19.1812 6.52519L23.8015 6.59306V5.84657C18.9611 5.62037 14.3408 5.28105 9.94045 4.82864C5.98015 4.42147 4 3.90119 4 3.26781C4 2.77016 5.54012 2.36299 8.62035 2.0463C11.7006 1.77485 15.4409 1.57126 19.8412 1.43553C24.6816 1.29981 29.5219 1.20933 34.3623 1.16409C39.2027 1.16409 43.383 1.16409 46.9033 1.16409C68.0249 1.16409 89.1465 1.05098 110.268 0.824774C131.83 0.643809 153.171 0.553329 174.293 0.553329C177.813 0.553329 183.974 0.575951 192.774 0.621192C201.575 0.711675 211.476 0.802154 222.477 0.892637C233.477 1.02836 244.698 1.18671 256.139 1.36768C268.02 1.54864 278.801 1.75223 288.482 1.97843C298.162 2.20464 306.083 2.45347 312.243 2.72492C318.844 2.99636 322.144 3.26781 322.144 3.53926C322.144 3.67499 321.704 3.87857 320.824 4.15002C302.343 3.56188 283.641 3.13209 264.72 2.86064C246.238 2.63443 227.757 2.36299 209.276 2.0463C227.317 2.49871 245.358 2.86064 263.4 3.13209C282.321 3.40353 301.023 3.85595 319.504 4.48933L316.864 5.57512ZM258.779 9.23968C244.698 9.05872 230.397 8.92299 215.876 8.8325C201.355 8.78726 186.614 8.76465 171.653 8.76465C176.053 8.71941 180.453 8.69678 184.854 8.69678H198.055C208.176 8.69678 218.296 8.71941 228.417 8.76465C238.538 8.85513 248.659 9.01347 258.779 9.23968Z" fill="#1E1E1E"/>
</g>
<defs>
<filter id="filter0_d_5_1091" x="0" y="0.553329" width="331.425" height="17.5686" filterUnits="userSpaceOnUse" color-interpolation-filters="sRGB">
<feFlood flood-opacity="0" result="BackgroundImageFix"/>
<feColorMatrix in="SourceAlpha" type="matrix" values="0 0 0 0 0 0 0 0 0 0 0 0 0 0 0 0 0 0 127 0" result="hardAlpha"/>
<feOffset dy="4"/>
<feGaussianBlur stdDeviation="2"/>
<feComposite in2="hardAlpha" operator="out"/>
<feColorMatrix type="matrix" values="0 0 0 0 0 0 0 0 0 0 0 0 0 0 0 0 0 0 0.25 0"/>
<feBlend mode="normal" in2="BackgroundImageFix" result="effect1_dropShadow_5_1091"/>
<feBlend mode="normal" in="SourceGraphic" in2="effect1_dropShadow_5_1091" result="shape"/>
</filter>
</defs>
</svg>
